<?xml version="1.0" encoding="utf-8"?>
<!-- Generator: Adobe Illustrator 19.2.0, SVG Export Plug-In . SVG Version: 6.00 Build 0)  -->
<svg version="1.1" id="Layer_1" xmlns="http://www.w3.org/2000/svg" xmlns:xlink="http://www.w3.org/1999/xlink" x="0px" y="0px"
	 viewBox="0 0 927.3 1200" style="enable-background:new 0 0 927.3 1200;" xml:space="preserve">
<style type="text/css">
	.st0{clip-path:url(#SVGID_2_);fill:#30566D;}
	.st1{clip-path:url(#SVGID_4_);}
	.st2{fill:#8ABCC1;}
	.st3{fill:#F8F9F7;}
	.st4{clip-path:url(#SVGID_6_);fill:#8ABCC1;}
	.st5{clip-path:url(#SVGID_8_);fill:#74AAAD;}
	.st6{clip-path:url(#SVGID_10_);fill:#E6F1EE;}
	.st7{clip-path:url(#SVGID_12_);}
	.st8{clip-path:url(#SVGID_14_);}
	.st9{fill:#93C4CC;}
	.st10{clip-path:url(#SVGID_16_);fill:#F7FAF9;}
	.st11{clip-path:url(#SVGID_18_);fill:#F7FAF9;}
	.st12{clip-path:url(#SVGID_20_);}
	.st13{fill:#E96642;}
	.st14{fill:#F3764B;}
	.st15{fill:#E1593C;}
	.st16{fill:#98866F;}
	.st17{fill:#74AAAD;}
	.st18{clip-path:url(#SVGID_22_);fill:#EEEEEE;}
	.st19{fill:#3C5568;}
	.st20{fill:#223B3F;}
	.st21{fill:#D6CCC0;}
	.st22{fill:#000222;}
	.st23{fill:#264147;}
	.st24{fill:#E1D5C9;}
	.st25{fill:#2B4A51;}
	.st26{fill:#445E73;}
	.st27{fill:#344B56;}
	.st28{fill:#E7FDFF;}
	.st29{fill:#E1A836;}
	.st30{fill:#E9B540;}
	.st31{fill:#C95230;}
	.st32{fill:#D45F36;}
	.st33{fill:#F8B77C;}
	.st34{fill:#FCC287;}
	.st35{fill:#D0932E;}
	.st36{fill:#F9F9F9;}
	.st37{fill:#FFFFFF;}
	.st38{fill:#005E64;}
	.st39{fill:#478879;}
	.st40{fill:#529285;}
	.st41{fill:#7A5034;}
	.st42{fill:#684127;}
	.st43{fill:#3A2A21;}
	.st44{fill:#F7D8BA;}
	.st45{fill:#443328;}
	.st46{fill:none;}
</style>
<g>
	<g>
		<g>
			<defs>
				<rect id="SVGID_1_" x="1" y="2" width="927.3" height="1200"/>
			</defs>
			<clipPath id="SVGID_2_">
				<use xlink:href="#SVGID_1_"  style="overflow:visible;"/>
			</clipPath>
			<rect x="1" y="2" class="st0" width="927.3" height="1200"/>
		</g>
		<g>
			<defs>
				<rect id="SVGID_3_" x="1" y="2" width="927.3" height="1200"/>
			</defs>
			<clipPath id="SVGID_4_">
				<use xlink:href="#SVGID_3_"  style="overflow:visible;"/>
			</clipPath>
			<g class="st1">
				<polygon class="st2" points="1070.6,1112.8 813.9,1112.8 942.3,835.5 				"/>
				<polygon class="st3" points="942.3,835.5 878.1,974.2 908.3,958.1 933.7,970 954.8,940.3 1000.8,962 				"/>
			</g>
		</g>
		<g>
			<defs>
				<rect id="SVGID_5_" x="1" y="2" width="927.3" height="1200"/>
			</defs>
			<clipPath id="SVGID_6_">
				<use xlink:href="#SVGID_5_"  style="overflow:visible;"/>
			</clipPath>
			<rect x="22" y="1045.9" class="st4" width="927.3" height="158.2"/>
		</g>
		<g>
			<defs>
				<rect id="SVGID_7_" x="1" y="2" width="927.3" height="1200"/>
			</defs>
			<clipPath id="SVGID_8_">
				<use xlink:href="#SVGID_7_"  style="overflow:visible;"/>
			</clipPath>
			<rect x="2" y="1081.4" class="st5" width="927.3" height="122.8"/>
		</g>
		<g>
			<defs>
				<rect id="SVGID_9_" x="1" y="2" width="927.3" height="1200"/>
			</defs>
			<clipPath id="SVGID_10_">
				<use xlink:href="#SVGID_9_"  style="overflow:visible;"/>
			</clipPath>
			<path class="st6" d="M258.9,505c0-24.1-17.7-44.1-40.7-47.6c-2.1-34-30.2-61-64.7-61c-23.8,0-44.6,12.9-55.8,32
				c-7.5-4.6-16.3-7.3-25.7-7.3c-20.2,0-37.5,12.1-45.2,29.5c-0.5,0-1.1-0.1-1.6-0.1c-13.7,0-24.8,11-25,24.6H0.1
				c-21.5,0-38.9,17.5-38.9,39c0,21.6,17.4,39,38.9,39H216v-0.3C240.1,550.4,258.9,529.9,258.9,505z"/>
		</g>
		<g>
			<defs>
				<rect id="SVGID_11_" x="1" y="2" width="927.3" height="1200"/>
			</defs>
			<clipPath id="SVGID_12_">
				<use xlink:href="#SVGID_11_"  style="overflow:visible;"/>
			</clipPath>
			<g class="st7">
				<polygon class="st2" points="856.4,1054 599.7,1054 728.1,776.7 				"/>
				<polygon class="st3" points="728.1,776.7 663.9,915.3 694.1,899.3 719.5,911.2 740.6,881.5 786.6,903.2 				"/>
			</g>
		</g>
		<g>
			<defs>
				<rect id="SVGID_13_" x="1" y="2" width="927.3" height="1200"/>
			</defs>
			<clipPath id="SVGID_14_">
				<use xlink:href="#SVGID_13_"  style="overflow:visible;"/>
			</clipPath>
			<g class="st8">
				<polygon class="st9" points="136.5,737.1 -22.4,1080.5 295.5,1080.5 				"/>
				<path class="st3" d="M203,880.7l-66.5-143.6L57.1,908.8l37.4-19.9l31.5,14.7l26.1-36.8l48.1,22.7
					C201,886.5,201.9,883.6,203,880.7z"/>
			</g>
		</g>
		<g>
			<defs>
				<rect id="SVGID_15_" x="1" y="2" width="927.3" height="1200"/>
			</defs>
			<clipPath id="SVGID_16_">
				<use xlink:href="#SVGID_15_"  style="overflow:visible;"/>
			</clipPath>
			<path class="st10" d="M638.1,491.9c0-13.7-10-25.1-23.1-27.1c-1.2-19.3-17.2-34.7-36.7-34.7c-13.5,0-25.3,7.3-31.7,18.2
				c-4.3-2.6-9.3-4.1-14.6-4.1c-11.5,0-21.3,6.9-25.7,16.8c-0.3,0-0.6,0-0.9,0c-7.8,0-14.1,6.2-14.2,14c0,0,0,0-0.1,0
				c-12.2,0-22.1,9.9-22.1,22.2c0,12.2,9.9,22.2,22.1,22.2h122.7v-0.2C627.4,517.7,638.1,506.1,638.1,491.9z"/>
		</g>
		<g>
			<defs>
				<rect id="SVGID_17_" x="1" y="2" width="927.3" height="1200"/>
			</defs>
			<clipPath id="SVGID_18_">
				<use xlink:href="#SVGID_17_"  style="overflow:visible;"/>
			</clipPath>
			<path class="st11" d="M879.2,565.6c0-18.1-13.2-33.1-30.5-35.7c-1.6-25.5-22.7-45.7-48.5-45.7c-17.8,0-33.4,9.6-41.9,24
				c-5.6-3.5-12.2-5.4-19.3-5.4c-15.1,0-28.1,9.1-33.9,22.1c-0.4,0-0.8,0-1.2,0c-10.2,0-18.6,8.2-18.8,18.5H685
				c-16.1,0-29.2,13.1-29.2,29.3S668.9,602,685,602h162v-0.2C865.1,599.6,879.2,584.3,879.2,565.6z"/>
		</g>
		<g>
			<defs>
				<rect id="SVGID_19_" x="1" y="2" width="927.3" height="1200"/>
			</defs>
			<clipPath id="SVGID_20_">
				<use xlink:href="#SVGID_19_"  style="overflow:visible;"/>
			</clipPath>
			<g class="st12">
				<g>
					<g>
						<polygon class="st13" points="321.1,425.6 258,429.4 280.1,402.3 255.5,378.8 315.8,375.4 						"/>
						<path class="st14" d="M388.6,350.1c0,0.2,0.1,0.5,0.1,0.7c1,10.1,0.4,60.5,0.6,61.4l-92.5,0.7l-5.2-61.9L388.6,350.1z"/>
						<polygon class="st15" points="321.1,425.6 296.8,413 319.8,413.2 						"/>
					</g>
					<rect x="388.4" y="350.1" class="st16" width="6.2" height="193.2"/>
				</g>
				<g>
					<polygon class="st17" points="716.9,1090.2 57.8,1093.1 238.9,776.2 441.8,619.9 525.4,747.9 					"/>
					<polygon class="st3" points="391.1,522.8 238.9,776.2 238.9,776.2 309.4,738.8 368.7,766.6 418,697.2 525.4,747.9 					"/>
				</g>
			</g>
		</g>
		<g>
			<defs>
				<rect id="SVGID_21_" x="1" y="42" width="927.3" height="1160"/>
			</defs>
			<clipPath id="SVGID_22_">
				<use xlink:href="#SVGID_21_"  style="overflow:visible;"/>
			</clipPath>
			<path class="st18" d="M-197.9,1118l463.6,5c0,0,187.8-0.2,150.7-118.6c-15.4-49.2-139.1-73.4-136-143.8
				c3.1-70.5,154.9-134.9,110.7-337.8c0,0,73.2,145.1-19.5,292.3c0,0-40.2,57.6,89.6,100.2c211.4,69.5,228.7,278.9,49.5,302.7
				l-708.6-5L-197.9,1118L-197.9,1118z"/>
		</g>
	</g>
	<g>
		<g>
			<path class="st19" d="M285.6,1067l26.2-12.1c0,0-6.2-40.1-10.6-55.2c-5.1-17.5-40.8-58.7-40.8-58.7l-49.7,33.3
				c0,0,47.1,15.9,59.9,37.8C286.6,1039.2,285.6,1067,285.6,1067z"/>
		</g>
		<g>
			<g>
				<path class="st20" d="M291.8,1079.7c0,0-1-3.1,5.4-4.2c6.4-1.2,10.6-1.5,12.7-2.7s4.4,5.3,4.1,5.6c-0.3,0.4-9.2,5-9.9,4.9
					C303.4,1083.2,291.8,1079.7,291.8,1079.7z"/>
			</g>
			<g>
				<path class="st21" d="M293.9,1090.9c0,0-2.2,3.1,0.6,8.1c1.1,1.8,6.5-0.8,19.9,0.6c13.4,1.3,30.3,0.5,44.3-14.7
					c1.5-1.6,0.3-9.3-6.1-7.6C346.3,1078.8,293.9,1090.9,293.9,1090.9z"/>
			</g>
			<g>
				<path class="st22" d="M316.6,1076.7c0.5,1.4-0.4,3-2.1,3.6l-14.4,5c-1.6,0.6-3.4-0.1-3.9-1.5l-6.9-19.7c-0.5-1.4,0.4-3,2.1-3.6
					l14.4-5c1.6-0.6,3.4,0.1,3.9,1.5L316.6,1076.7z"/>
			</g>
			<g>
				<path class="st23" d="M291.8,1079.7c0,0,0.7,10.3,1.6,12.4c7.9-0.3,5.4-0.5,13.6,0.4s39.7,0.4,48.4-14.3c1-2.1-5.6-10-24.4-8.1
					c-3.8-0.1-10.7-3.7-13.6-5.8c-3.6,0.2-7.2,5.3-11.1,12.6C302.5,1084.2,291.2,1077.1,291.8,1079.7z"/>
			</g>
			<g>
				<path class="st21" d="M325.6,1075.8c0,0-1.5-1.4-1.9-3.6c-0.8,0.5-1.6,1.1-2.3,1.9c-0.1,0.1-0.3,0.2-0.5,0.2s-0.3-0.1-0.4-0.3
					c-0.5-1-0.8-2-0.9-3c-0.2,0.1-0.3,0.1-0.5,0.2c-1.1,0.5-2.4,1.1-3.8,1.8c-0.2,0.1-0.4,0.1-0.6-0.1c-0.2-0.1-0.2-0.4-0.2-0.6
					c1.2-4.9,6.2-6.4,6.4-6.4c0.2-0.1,0.5,0,0.6,0.2s0.2,0.4,0.1,0.6c-0.4,0.9-0.7,1.7-0.8,2.5c1.7-0.8,2.9-1.3,4-1.4
					c0.2,0,0.4,0.1,0.6,0.2c0.1,0.2,0.1,0.4,0,0.6c-0.3,0.6-0.5,1.2-0.6,1.7c1.8-0.9,3.3-1.3,3.4-1.3c0.3-0.1,0.6,0.1,0.7,0.4
					s-0.1,0.6-0.4,0.7c0,0-1.7,0.4-3.8,1.5c0.1,2.1,1.5,3.3,1.6,3.4c0.2,0.2,0.3,0.6,0.1,0.8c-0.1,0.1-0.2,0.1-0.2,0.2
					C326,1076,325.8,1076,325.6,1075.8z M324,1069.1c-0.9,0.3-1.9,0.7-3.2,1.3c0,0.8,0.2,1.5,0.5,2.3c0.8-0.7,1.6-1.3,2.4-1.8
					C323.7,1070.4,323.8,1069.8,324,1069.1z M320.1,1067.5c-1.2,0.6-3,1.8-3.9,3.9c0.9-0.4,1.8-0.8,2.6-1.2c0.3-0.1,0.6-0.3,0.9-0.4
					C319.7,1069,319.8,1068.2,320.1,1067.5z"/>
			</g>
		</g>
		<g>
			<g>
				<g>
					<path class="st23" d="M155.8,1110c0,0,0.1-3.2,6.5-2.2s10.5,2.1,12.9,1.6c2.4-0.4,2.4,6.4,2,6.7c-0.4,0.2-10.3,1.6-10.9,1.4
						C165.6,1117.2,155.8,1110,155.8,1110z"/>
				</g>
				<g>
					<path class="st24" d="M154,1121.3c0,0-3.1,2.1-2.1,7.8c0.5,2.1,6.4,1.4,18.6,7.1c12.2,5.7,28.5,10.5,46.7,0.8
						c1.9-1,3.4-8.6-3.2-9.2C207.4,1127.2,154,1121.3,154,1121.3z"/>
				</g>
				<g>
					<path class="st22" d="M180.1,1115.4c0,1.5-1.4,2.7-3.1,2.7h-15.3c-1.7,0-3.1-1.2-3.1-2.7v-20.9c0-1.5,1.4-2.7,3.1-2.7H177
						c1.7,0,3.1,1.2,3.1,2.7V1115.4z"/>
				</g>
				<g>
					<path class="st25" d="M155.8,1110c0,0-2.7,10-2.6,12.3c7.6,2.3,5.3,1.3,12.7,4.9c7.5,3.5,37.4,13.5,50.4,2.6
						c1.6-1.6-2-11.3-20.3-15.7c-3.5-1.4-8.9-7-10.9-10c-3.5-1-8.6,2.6-14.6,8.2C164.3,1117.8,156,1107.3,155.8,1110z"/>
				</g>
			</g>
			<g>
				<path class="st24" d="M188.8,1117.6c0,0-1-1.8-0.6-4c-0.9,0.2-1.8,0.6-2.8,1c-0.2,0.1-0.4,0.1-0.5,0c-0.2-0.1-0.3-0.3-0.3-0.4
					c-0.1-1.1-0.1-2.1,0.2-3.1c-0.2,0-0.3,0-0.5,0.1c-1.2,0.1-2.6,0.3-4.2,0.4c-0.2,0-0.4-0.1-0.5-0.3c-0.1-0.2-0.1-0.4,0-0.6
					c2.8-4.2,7.9-4,8.1-4c0.2,0,0.4,0.2,0.5,0.4c0.1,0.2,0,0.5-0.1,0.6c-0.7,0.7-1.2,1.4-1.6,2.1c1.8-0.2,3.2-0.2,4.3,0
					c0.2,0,0.4,0.2,0.5,0.4c0.1,0.2,0,0.4-0.2,0.6c-0.5,0.5-0.9,0.9-1.1,1.4c2-0.3,3.5-0.1,3.6-0.1c0.3,0,0.5,0.3,0.5,0.6
					c0,0.3-0.3,0.5-0.6,0.5c0,0-1.8-0.2-4,0.2c-0.6,2,0.3,3.6,0.4,3.7c0.2,0.3,0.1,0.6-0.2,0.8c-0.1,0.1-0.2,0.1-0.3,0.1
					C189.1,1117.9,188.9,1117.7,188.8,1117.6z M189.5,1110.7c-0.9,0-2.1,0.1-3.5,0.2c-0.2,0.7-0.3,1.5-0.3,2.3
					c1-0.4,1.9-0.7,2.9-0.9C188.7,1111.7,189,1111.2,189.5,1110.7z M186.3,1107.8c-1.3,0.2-3.4,0.7-5,2.3c1-0.1,2-0.2,2.8-0.3
					c0.4,0,0.7-0.1,1-0.1C185.4,1109.1,185.8,1108.4,186.3,1107.8z"/>
			</g>
		</g>
		<g>
			<g>
				<path class="st26" d="M183.9,1101.8h-28.2V971l47.5,4.6c0,0-2.2,1.2-7.7,10.4C188,998.5,183.9,1101.8,183.9,1101.8z"/>
			</g>
			<g>
				<g>
					<path class="st26" d="M155.6,929.3v44.8c0,0,40.6,3.1,54.2,3.1l1.5-19.5l-1.5-28.3L155.6,929.3L155.6,929.3z"/>
				</g>
				<g>
					<path class="st19" d="M209.8,929.3v47.9c13.5,0,54.2-3.1,54.2-3.1v-44.8L209.8,929.3L209.8,929.3z"/>
				</g>
			</g>
		</g>
		<g>
			<path class="st27" d="M188.4,1100.3c0,0.9-0.7,1.5-1.5,1.5H152c-0.8,0-1.5-0.7-1.5-1.5v-11.6c0-0.9,0.7-1.5,1.5-1.5h34.9
				c0.8,0,1.5,0.7,1.5,1.5V1100.3z"/>
		</g>
		<g>
			<path class="st28" d="M178.4,946.8c0,2.5-2,4.5-4.5,4.5H168c-2.5,0-4.5-2-4.5-4.5v-5.9c0-2.5,2-4.5,4.5-4.5h5.9
				c2.5,0,4.5,2,4.5,4.5V946.8z"/>
		</g>
		<g>
			<path class="st28" d="M255,946.8c0,2.5-2,4.5-4.5,4.5h-5.9c-2.5,0-4.5-2-4.5-4.5v-5.9c0-2.5,2-4.5,4.5-4.5h5.9
				c2.5,0,4.5,2,4.5,4.5V946.8z"/>
		</g>
		<g>
			<polygon class="st29" points="122.5,1019.9 114,1019.9 114,1026 128.7,1026 132.1,1016.3 170.2,1016.3 170.2,1009.5 
				126.1,1009.5 			"/>
			<polygon class="st30" points="99.2,1026 114,1026 114,1019.9 105.4,1019.9 101.8,1009.5 57.7,1009.5 57.7,1016.3 95.9,1016.3 			
				"/>
			<path class="st31" d="M133.2,984.6h7c-1.8-12.7-14.5-22.4-26.3-22.4l-1.7,2.9l1.7,3.4C123.5,968.4,131.4,974.9,133.2,984.6z"/>
			<path class="st32" d="M113.9,962.2c-11.7,0-24.5,9.8-26.3,22.5c0.2,0,3.4,0,3.6,0h3.4c1.8-9.7,9.7-16.2,19.3-16.2l0,0
				L113.9,962.2L113.9,962.2z"/>
			<polygon class="st19" points="114,984 112.3,992.9 114,1019.9 122.5,1019.9 126.1,1009.5 170.2,1009.5 170.2,992.9 170.2,984 			
				"/>
			<polygon class="st26" points="57.7,984 57.7,992.9 57.7,1009.5 101.8,1009.5 105.4,1019.9 114,1019.9 114,992.9 114,984 			"/>
			<polygon class="st19" points="132.1,1016.3 128.7,1026 114,1026 112.3,1031.1 114,1056.4 170.2,1056.4 170.2,1031.1 
				170.2,1016.3 			"/>
			<polygon class="st26" points="99.2,1026 95.9,1016.3 57.7,1016.3 57.7,1031.1 57.7,1056.4 114,1056.4 114,1031.1 114,1026 			"/>
		</g>
		<g>
			<polygon class="st33" points="224,814.1 209.8,814.1 208.3,823.7 209.8,833.4 224,833.4 			"/>
			<rect x="195.6" y="814.1" class="st34" width="14.2" height="19.3"/>
		</g>
		<g>
			<g>
				<g>
					<path class="st33" d="M365,926.7h5.2c1.6,0,2.9-1.3,2.9-2.9c0-1.1-0.7-2.1-1.7-2.6l0,0c-0.7-1.4,0.8-1.6,0.8-1.6
						c1.6,0,2.9-1.3,2.9-2.9c0-1.4-1.1-2.6-2.5-2.8l0,0c-1-1,0.4-1.4,0.4-1.4l0,0c1.4-0.2,2.5-1.4,2.5-2.8c0-1.3-0.9-2.4-2.1-2.8
						l0,0c-1.4-0.9-0.2-1.9-0.2-1.9l0,0c0.8-0.5,1.3-1.4,1.3-2.4c0-1.6-1.3-2.9-2.9-2.9c-2.7-0.4-1.4-2.4-1.4-2.4l0,0
						c0.4-0.5,0.6-1.1,0.6-1.8c0-1.6-1.3-2.9-2.9-2.9H363c-19-1.9-16.4,4.2-19.7,6.8c-3.3,2.6-12.2,2.5-12.2,2.5s0,14.7,0,18.9
						c14-0.4,12.5,1.5,17.4,4.8C352.2,928,360.7,927.3,365,926.7z"/>
				</g>
				<g>
					<path class="st29" d="M339.4,926.3c-41,4.8-61-2.8-81-21.7c-21.7-20.5-22-47.1-21.6-54.8l32.3,1.9c-0.2,4.1-0.1,18.5,11.4,29.4
						c12.5,11.8,24.5,16.7,55.1,13.1L339.4,926.3z"/>
				</g>
			</g>
			<g>
				<path class="st33" d="M96.9,973.3l0.5,5.1c0.2,1.6,1.6,2.7,3.2,2.6c1.1-0.1,2.1-0.9,2.4-1.9l0,0c1.4-0.8,1.7,0.7,1.7,0.7
					c0.2,1.6,1.6,2.7,3.2,2.6c1.4-0.1,2.5-1.3,2.6-2.7l0,0c0.9-1.1,1.4,0.2,1.4,0.2l0,0c0.3,1.4,1.6,2.4,3.1,2.2
					c1.3-0.1,2.3-1.1,2.5-2.4l0,0c0.7-1.5,1.9-0.4,1.9-0.4l0,0c0.6,0.7,1.5,1.2,2.5,1.1c1.6-0.2,2.7-1.6,2.6-3.2
					c0.1-2.7,2.3-1.7,2.3-1.7l0,0c0.5,0.3,1.2,0.5,1.8,0.5c1.6-0.2,2.7-1.6,2.6-3.1l-0.5-4.8c0-19.1-5.8-15.9-8.7-19
					c-3-3.1-3.7-11.9-3.7-11.9s-14.7,1.5-18.8,1.9c1.8,13.9-0.2,12.5-3.1,17.8C94.3,960.7,95.9,969.1,96.9,973.3z"/>
			</g>
			<g>
				<path class="st30" d="M93.2,946.5c-5-41,2-71.9,20.7-92c20.4-21.8,47-22.2,54.7-21.8L167,865c-4.2-0.2-18.5,0-29.4,11.6
					c-11.8,12.6-16,35.4-12.3,66L93.2,946.5z"/>
			</g>
			<g>
				<g>
					<path class="st30" d="M168.2,832.6c-9.6,0-17.4,7.2-17.4,19.8l4.9,88.8h54.5l1.5-48.7l-1.5-59.9L168.2,832.6L168.2,832.6z"/>
				</g>
				<g>
					<path class="st29" d="M269.2,852.4c0-12.6-7.8-19.8-17.4-19.8h-42v108.6H264L269.2,852.4z"/>
				</g>
			</g>
			<g>
				<polygon class="st29" points="186.3,868.1 203.5,849.6 181.2,832.6 171,832.6 				"/>
			</g>
			<g>
				<polygon class="st35" points="233.7,868.1 216.5,849.5 239.1,832.6 249,832.6 				"/>
			</g>
			<g>
				<polygon class="st36" points="209.8,831.1 208.3,845.7 209.8,865.8 209.8,865.9 216.5,849.5 239,832.6 				"/>
				<polygon class="st37" points="181.2,832.6 203.5,849.6 209.8,865.8 209.8,831.1 				"/>
			</g>
		</g>
		<g>
			<path class="st38" d="M176,941.2V833.5c0-1.1-0.9-2-2-2h-6c-1.1,0-2,0.9-2,2v107.7H176z"/>
		</g>
		<g>
			<path class="st38" d="M252.7,941.2V833.5c0-1.1-0.9-2-2-2h-6c-1.1,0-2,0.9-2,2v107.7H252.7z"/>
		</g>
		<g>
			<g>
				<g>
					<polygon class="st39" points="229.1,825.3 209.8,836 229.1,846.6 					"/>
				</g>
				<g>
					<polygon class="st40" points="190.5,825.3 209.8,836 190.5,846.6 					"/>
				</g>
			</g>
			<g>
				<path class="st40" d="M208.2,829c-2.9,0-5.3,2.4-5.3,5.3v3.2c0,2.9,2.4,5.3,5.3,5.3h1.6l1.5-6.9l-1.5-6.9L208.2,829L208.2,829z"
					/>
				<path class="st39" d="M211.4,829h-1.6v13.8h1.6c2.9,0,5.3-2.4,5.3-5.3v-3.2C216.7,831.4,214.3,829,211.4,829z"/>
			</g>
		</g>
		<g>
			<g>
				<path class="st33" d="M270.8,751.8c-0.1,3.5-1.4,7.7-4.9,7.5l0,0c-3.5-0.2-6.1-3.2-5.9-6.6l1.2-20.8c0.2-3.5,3.2-6.1,6.6-5.9
					l0,0c3.5,0.2,6.4,3.2,5.9,6.6C272.9,737.4,271.1,742.4,270.8,751.8z"/>
				<path class="st34" d="M148.9,751.8c0.1,3.5,1.4,7.7,4.9,7.5l0,0c3.5-0.2,6.1-3.2,5.9-6.6l-1.2-20.8c-0.2-3.5-3.2-6.1-6.6-5.9
					l0,0c-3.5,0.2-6.4,3.2-5.9,6.6C146.7,737.4,148.5,742.4,148.9,751.8z"/>
				<g>
					<path class="st34" d="M263.7,764.3c0,16.4-10.3,29.7-26.7,29.7h-54.2c-16.4,0-26.7-13.3-26.7-29.7l-3-69.1
						c0-16.4,10.3-29.7,26.7-29.7H240c16.4,0,26.7,13.3,26.7,29.7L263.7,764.3z"/>
					<g>
						<path class="st33" d="M239.7,665.5h-30.1V794h27.1c16.4,0,26.7-13.3,26.7-29.7l3-69.1C266.4,678.8,256.1,665.5,239.7,665.5z"
							/>
					</g>
				</g>
				<g>
					<path class="st41" d="M183.2,775.2c-13.2,11.1-25.3-12.5-25.3-29.8l-1.9-49.2c-1.2,3.4-4.4-8.5-4.4-0.3l4.2,78.4
						c0,47.5,53.8,52.1,53.8,52.1l1.5-33.1l-1.5-27.1C193.3,766.3,188.8,770.4,183.2,775.2z"/>
				</g>
				<g>
					<path class="st42" d="M235.9,775.2c13.2,11.1,25.4-12.5,25.4-29.8l1.8-49.4c1.2,3.4,4.8-12.6,4.8-4.3l-4.5,82.7
						c0,47.5-53.8,52.1-53.8,52.1v-60.1C225.9,766.3,230.3,770.4,235.9,775.2z"/>
				</g>
				<g>
					<path class="st33" d="M210.3,787.4c-8.6,0-17.3-4.5-16.8-5.7c0.5-1.3,1.9-1.9,3.2-1.4l0,0c0.1,0.1,13.4,4.9,26.3,0
						c1.3-0.5,2.7,0.2,3.2,1.4C226.6,782.9,219.3,787.4,210.3,787.4z"/>
				</g>
				<g>
					<path class="st42" d="M227.2,721.1c13.3-4.4,26.7-0.1,26.8,0c2.3,0.7,5.2-4.7,2.9-5.4c-0.7-0.2-16.9-6.8-33.9-1.6
						C220.9,714.8,224.9,721.9,227.2,721.1z"/>
				</g>
				<g>
					<circle class="st43" cx="239.6" cy="730.1" r="5.4"/>
					<circle class="st44" cx="241" cy="728.9" r="1.8"/>
				</g>
				<g>
					<path class="st41" d="M192.4,721.1c-2.9-1.2-5.7-3.4-10.7-3.4c-9-0.1-16.1,3.4-16.2,3.4c-2.3,0.7-5.2-4.7-2.9-5.4
						c0.5-0.2,8.5-4.9,19-5.1c4.6-0.1,10.9,1.5,14.9,3.5C198.7,715.2,194.7,722.1,192.4,721.1z"/>
				</g>
				<g>
					<path class="st34" d="M198.8,764.4c0,3.3,5,5.9,11,6l-0.3-66.1C205.6,709.4,198.8,764.4,198.8,764.4z"/>
					<path class="st33" d="M215.5,726.9c-2.4-14.2-4.2-21-5.9-22.6v66.1c0.1,0,0.2,0,0.3,0c6.1,0,11-2.7,11-6
						C220.9,764.4,218.8,746.3,215.5,726.9z"/>
				</g>
				<ellipse class="st34" cx="200.8" cy="766.5" rx="3.6" ry="2.9"/>
				<ellipse class="st33" cx="218.8" cy="766.5" rx="3.6" ry="2.9"/>
				<g>
					<circle class="st45" cx="179.8" cy="730.1" r="5.4"/>
					<circle class="st44" cx="181.2" cy="728.9" r="1.8"/>
				</g>
			</g>
			<g>
				<path class="st42" d="M252.6,661.3c0.9-11-14.4-29.1-43-28.2l-1.5,23.4l1.5,21.4c2.2-0.1,4.6-0.2,7.2-0.4
					c18.5-1.6,26.3-5.9,26.3-5.9s23.3-4.6,17.2,86.1c3.4-7.2,3.5,3.9,3.5,3.9s4.7-64.9,4.8-73.6
					C268.7,678.2,265.2,658.9,252.6,661.3z"/>
				<path class="st41" d="M191.3,636c-41.8,11.6-39.5,37.5-39.7,60.4s3.8,64.2,3.8,64.2s1.5-18.2,2.1-14.2
					c-0.3-18.5-2.8-66.6,16.5-72.8c7.1-2.3,6.7,5.2,35.6,4.3v-44.8C204,633.3,197.9,634.2,191.3,636z"/>
			</g>
		</g>
		<path class="st27" d="M321.5,1057.6c0.3,0.8-0.1,1.7-0.9,2l-33.6,13.1c-0.8,0.3-1.7-0.1-2-0.9l-4.3-11.1c-0.3-0.8,0.1-1.7,0.9-2
			l33.6-13.1c0.8-0.3,1.7,0.1,2,0.9L321.5,1057.6z"/>
	</g>
</g>
<line class="st46" x1="-51" y1="318" x2="1003" y2="322"/>
<line class="st46" x1="-77" y1="320" x2="1003" y2="322"/>
<line class="st46" x1="-77" y1="320" x2="1179" y2="320"/>
</svg>
