<?xml version="1.0" encoding="utf-8"?>
<!-- Generator: Adobe Illustrator 19.2.0, SVG Export Plug-In . SVG Version: 6.00 Build 0)  -->
<svg version="1.1" id="Layer_1" xmlns="http://www.w3.org/2000/svg" xmlns:xlink="http://www.w3.org/1999/xlink" x="0px" y="0px"
	 viewBox="0 0 928.3 726.4" style="enable-background:new 0 0 928.3 726.4;" xml:space="preserve">
<style type="text/css">
	.st0{clip-path:url(#SVGID_2_);}
	.st1{fill-rule:evenodd;clip-rule:evenodd;fill:#8ABCC1;}
	.st2{fill-rule:evenodd;clip-rule:evenodd;fill:#F8F9F7;}
	.st3{clip-path:url(#SVGID_2_);fill:#8ABCC1;}
	.st4{clip-path:url(#SVGID_2_);fill:#74AAAD;}
	.st5{opacity:0.6;clip-path:url(#SVGID_2_);fill:#E6F1EE;}
	.st6{fill-rule:evenodd;clip-rule:evenodd;fill:#93C4CC;}
	.st7{opacity:0.6;clip-path:url(#SVGID_2_);fill:#F7FAF9;}
	.st8{fill:#E96642;}
	.st9{fill:#F3764B;}
	.st10{fill:#E1593C;}
	.st11{fill:#98866F;}
	.st12{fill-rule:evenodd;clip-rule:evenodd;fill:#74AAAD;}
	.st13{clip-path:url(#SVGID_2_);fill:#EEEEEE;}
	.st14{fill:#478879;}
	.st15{fill:#223B3F;}
	.st16{fill:#D6CCC0;}
	.st17{fill:#211104;}
	.st18{fill:#264147;}
	.st19{fill:#E1D5C9;}
	.st20{fill:#2B4A51;}
	.st21{fill:#529285;}
	.st22{fill:#C55A28;}
	.st23{fill:#BD5328;}
	.st24{fill:#E1A836;}
	.st25{fill:#E9B540;}
	.st26{fill:#C95230;}
	.st27{fill:#D45F36;}
	.st28{fill:#3C5568;}
	.st29{fill:#445E73;}
	.st30{fill:#F8B77C;}
	.st31{fill:#FCC287;}
	.st32{fill:#DCA036;}
	.st33{fill:#D0932E;}
	.st34{fill:#F9F9F9;}
	.st35{fill:#FFFFFF;}
	.st36{fill:#7A5034;}
	.st37{fill:#684127;}
	.st38{fill:#3A2A21;}
	.st39{fill:#F7D8BA;}
	.st40{fill:#443328;}
	.st41{fill:#377866;}
	.st42{clip-path:url(#SVGID_4_);fill:#D5E7E2;}
	.st43{clip-path:url(#SVGID_4_);}
	.st44{fill:#F7FAF9;}
	.st45{fill-rule:evenodd;clip-rule:evenodd;fill:#98866F;}
	.st46{fill:#8C643E;}
	.st47{fill:#724B2D;}
	.st48{fill:#7F5634;}
	.st49{fill:#344B56;}
	.st50{fill:#D65037;}
</style>
<g>
	<g>
		<defs>
			<polygon id="SVGID_1_" points="928.3,726.4 1,726.4 0,0 927.3,0 			"/>
		</defs>
		<clipPath id="SVGID_2_">
			<use xlink:href="#SVGID_1_"  style="overflow:visible;"/>
		</clipPath>
		<g class="st0">
			<polygon class="st1" points="1070.6,652 813.9,652 942.3,421 			"/>
			<polygon class="st2" points="942.3,421 878.1,536.5 908.3,523.1 933.7,533.1 954.8,508.3 1000.8,526.4 			"/>
		</g>
		<rect x="22" y="596.3" class="st3" width="927.3" height="131.9"/>
		<rect x="2" y="625.8" class="st4" width="927.3" height="102.3"/>
		<path class="st5" d="M258.9,145.5c0-20.1-17.7-36.8-40.7-39.7c-2.1-28.4-30.2-50.8-64.7-50.8c-23.8,0-44.6,10.7-55.8,26.7
			c-7.5-3.8-16.3-6-25.7-6c-20.2,0-37.5,10.1-45.2,24.6c-0.5,0-1.1,0-1.6,0c-13.7,0-24.8,9.1-25,20.5c0,0-0.1,0-0.1,0
			c-21.5,0-38.9,14.6-38.9,32.5c0,18,17.4,32.5,38.9,32.5h215.9v-0.2C240.1,183.3,258.9,166.3,258.9,145.5z"/>
		<g class="st0">
			<polygon class="st1" points="856.4,603 599.7,603 728.1,371.9 			"/>
			<polygon class="st2" points="728.1,371.9 663.9,487.5 694.1,474.1 719.5,484 740.6,459.2 786.6,477.3 			"/>
		</g>
		<g class="st0">
			<polygon class="st6" points="136.5,338.9 -22.4,625.1 295.5,625.1 			"/>
			<path class="st2" d="M203,458.6l-66.5-119.7L57.1,482l37.4-16.6l31.5,12.3l26.1-30.7l48.1,18.9C201,463.5,201.9,461,203,458.6z"
				/>
		</g>
		<path class="st7" d="M638.1,134.6c0-11.4-10-20.9-23.1-22.6c-1.2-16.1-17.2-28.9-36.7-28.9c-13.5,0-25.3,6.1-31.7,15.2
			c-4.3-2.2-9.3-3.4-14.6-3.4c-11.5,0-21.3,5.7-25.7,14c-0.3,0-0.6,0-0.9,0c-7.8,0-14.1,5.2-14.2,11.7c0,0,0,0-0.1,0
			c-12.2,0-22.1,8.3-22.1,18.5c0,10.2,9.9,18.5,22.1,18.5h122.7v-0.1C627.4,156.1,638.1,146.4,638.1,134.6z"/>
		<path class="st7" d="M878.2,222.5c0-15.1-13.2-27.6-30.5-29.8c-1.6-21.3-22.7-38.1-48.5-38.1c-17.8,0-33.4,8-41.9,20
			c-5.6-2.9-12.2-4.5-19.3-4.5c-15.1,0-28.1,7.6-33.9,18.4c-0.4,0-0.8,0-1.2,0c-10.2,0-18.6,6.9-18.8,15.4c0,0-0.1,0-0.1,0
			c-16.1,0-29.2,10.9-29.2,24.4c0,13.5,13.1,24.4,29.2,24.4H846v-0.2C864.1,250.9,878.2,238.1,878.2,222.5z"/>
		<g class="st0">
			<g>
				<g>
					<polygon class="st8" points="321.1,79.4 258,82.5 280.1,59.9 255.5,40.3 315.8,37.5 					"/>
					<path class="st9" d="M388.6,16.4c0,0.2,0.1,0.4,0.1,0.6c1,8.4,0.4,50.4,0.6,51.2l-92.5,0.6l-5.2-51.6L388.6,16.4z"/>
					<polygon class="st10" points="321.1,79.4 296.8,68.8 319.8,69 					"/>
				</g>
				<rect x="388.4" y="16.4" class="st11" width="6.2" height="161.1"/>
			</g>
			<g>
				<polygon class="st12" points="716.9,633.2 57.8,635.6 238.9,371.6 441.8,241.2 525.4,347.9 				"/>
				<polygon class="st2" points="391.1,160.4 238.9,371.6 238.9,371.6 309.4,340.4 368.7,363.5 418,305.7 525.4,347.9 				"/>
			</g>
		</g>
		<path class="st13" d="M-197.9,660.6h463.6c0,0,187.8-0.1,150.7-98.8c-15.4-41-139.1-61.1-136-119.9
			c3.1-58.7,154.9-112.4,110.7-281.5c0,0,73.2,120.9-19.5,243.6c0,0-40.2,48,89.6,83.5c211.4,57.9,228.7,232.4,49.5,252.3h-708.6
			V660.6z"/>
	</g>
	<g>
		<g>
			<path class="st14" d="M285.6,613.9l26.2-10.1c0,0-6.2-33.4-10.6-46c-5.1-14.6-40.8-49-40.8-49l-49.7,27.7
				c0,0,47.1,13.3,59.9,31.5C286.6,590.7,285.6,613.9,285.6,613.9z"/>
		</g>
		<g>
			<g>
				<path class="st15" d="M291.8,624.4c0,0-1-2.5,5.4-3.5c6.4-1,10.6-1.3,12.7-2.3c2.1-1,4.4,4.4,4.1,4.7c-0.3,0.3-9.2,4.1-9.9,4.1
					C303.4,627.4,291.8,624.4,291.8,624.4z"/>
			</g>
			<g>
				<path class="st16" d="M293.9,633.8c0,0-2.2,2.5,0.6,6.7c1.1,1.5,6.5-0.6,19.9,0.5c13.4,1.1,30.3,0.4,44.3-12.3
					c1.5-1.3,0.3-7.7-6.1-6.4C346.3,623.7,293.9,633.8,293.9,633.8z"/>
			</g>
			<g>
				<path class="st17" d="M316.6,622c0.5,1.2-0.4,2.5-2.1,3l-14.4,4.2c-1.6,0.5-3.4-0.1-3.9-1.3l-6.9-16.4c-0.5-1.2,0.4-2.5,2.1-3
					l14.4-4.2c1.6-0.5,3.4,0.1,3.9,1.3L316.6,622z"/>
			</g>
			<g>
				<path class="st18" d="M291.8,624.4c0,0,0.7,8.6,1.6,10.4c7.9-0.3,5.4-0.4,13.6,0.3c8.2,0.7,39.7,0.3,48.4-11.9
					c1-1.7-5.6-8.3-24.4-6.8c-3.8-0.1-10.7-3.1-13.6-4.8c-3.6,0.2-7.2,4.4-11.1,10.5C302.5,628.2,291.2,622.3,291.8,624.4z"/>
			</g>
			<g>
				<path class="st16" d="M325.6,621.2c0,0-1.5-1.1-1.9-3c-0.8,0.4-1.6,0.9-2.3,1.6c-0.1,0.1-0.3,0.2-0.5,0.1
					c-0.2,0-0.3-0.1-0.4-0.3c-0.5-0.8-0.8-1.7-0.9-2.5c-0.2,0.1-0.3,0.1-0.5,0.2c-1.1,0.4-2.4,0.9-3.8,1.5c-0.2,0.1-0.4,0-0.6-0.1
					c-0.2-0.1-0.2-0.3-0.2-0.5c1.2-4,6.2-5.3,6.4-5.4c0.2-0.1,0.5,0,0.6,0.1c0.1,0.1,0.2,0.4,0.1,0.5c-0.4,0.7-0.7,1.4-0.8,2.1
					c1.7-0.6,2.9-1,4-1.2c0.2,0,0.4,0,0.6,0.2c0.1,0.1,0.1,0.3,0,0.5c-0.3,0.5-0.5,1-0.6,1.4c1.8-0.8,3.3-1,3.4-1.1
					c0.3-0.1,0.6,0.1,0.7,0.4c0.1,0.3-0.1,0.5-0.4,0.6c0,0-1.7,0.3-3.8,1.3c0.1,1.7,1.5,2.7,1.6,2.8c0.2,0.2,0.3,0.5,0.1,0.7
					c-0.1,0.1-0.2,0.1-0.2,0.1C326,621.4,325.8,621.4,325.6,621.2z M324,615.6c-0.9,0.2-1.9,0.6-3.2,1.1c0,0.6,0.2,1.3,0.5,1.9
					c0.8-0.6,1.6-1.1,2.4-1.5C323.7,616.7,323.8,616.2,324,615.6z M320.1,614.3c-1.2,0.5-3,1.5-3.9,3.2c0.9-0.4,1.8-0.7,2.6-1
					c0.3-0.1,0.6-0.2,0.9-0.4C319.7,615.5,319.8,614.9,320.1,614.3z"/>
			</g>
		</g>
		<g>
			<g>
				<g>
					<path class="st18" d="M155.8,649.7c0,0,0.1-2.7,6.5-1.9c6.4,0.8,10.5,1.7,12.9,1.4c2.4-0.3,2.4,5.3,2,5.6
						c-0.4,0.2-10.3,1.4-10.9,1.2C165.6,655.7,155.8,649.7,155.8,649.7z"/>
				</g>
				<g>
					<path class="st19" d="M154,659.1c0,0-3.1,1.8-2.1,6.5c0.5,1.7,6.4,1.2,18.6,5.9c12.2,4.7,28.5,8.7,46.7,0.6
						c1.9-0.8,3.4-7.2-3.2-7.7C207.4,664,154,659.1,154,659.1z"/>
				</g>
				<g>
					<path class="st17" d="M180.1,654.2c0,1.3-1.4,2.3-3.1,2.3h-15.3c-1.7,0-3.1-1-3.1-2.3v-17.4c0-1.2,1.4-2.3,3.1-2.3H177
						c1.7,0,3.1,1,3.1,2.3V654.2z"/>
				</g>
				<g>
					<path class="st20" d="M155.8,649.7c0,0-2.7,8.3-2.6,10.2c7.6,1.9,5.3,1.1,12.7,4.1c7.5,2.9,37.4,11.3,50.4,2.1
						c1.6-1.4-2-9.4-20.3-13.1c-3.5-1.2-8.9-5.9-10.9-8.3c-3.5-0.8-8.6,2.2-14.6,6.9C164.3,656.2,156,647.5,155.8,649.7z"/>
				</g>
			</g>
			<g>
				<path class="st19" d="M188.8,656c0,0-1-1.5-0.6-3.4c-0.9,0.2-1.8,0.5-2.8,0.8c-0.2,0.1-0.4,0.1-0.5,0c-0.2-0.1-0.3-0.2-0.3-0.4
					c-0.1-0.9-0.1-1.8,0.2-2.6c-0.2,0-0.3,0-0.5,0c-1.2,0.1-2.6,0.2-4.2,0.3c-0.2,0-0.4-0.1-0.5-0.2c-0.1-0.2-0.1-0.4,0-0.5
					c2.8-3.5,7.9-3.3,8.1-3.3c0.2,0,0.4,0.1,0.5,0.3c0.1,0.2,0,0.4-0.1,0.5c-0.7,0.6-1.2,1.1-1.6,1.7c1.8-0.1,3.2-0.2,4.3,0
					c0.2,0,0.4,0.2,0.5,0.3c0.1,0.2,0,0.4-0.2,0.5c-0.5,0.4-0.9,0.8-1.1,1.2c2-0.2,3.5-0.1,3.6-0.1c0.3,0,0.5,0.3,0.5,0.5
					c0,0.3-0.3,0.5-0.6,0.4c0,0-1.8-0.2-4,0.2c-0.6,1.7,0.3,3,0.4,3.1c0.2,0.2,0.1,0.5-0.2,0.7c-0.1,0-0.2,0.1-0.3,0.1
					C189.1,656.2,188.9,656.2,188.8,656z M189.5,650.3c-0.9,0-2.1,0-3.5,0.2c-0.2,0.6-0.3,1.2-0.3,1.9c1-0.3,1.9-0.6,2.9-0.7
					C188.7,651.2,189,650.7,189.5,650.3z M186.3,647.9c-1.3,0.1-3.4,0.6-5,2c1-0.1,2-0.2,2.8-0.2c0.4,0,0.7-0.1,1-0.1
					C185.4,649,185.8,648.4,186.3,647.9z"/>
			</g>
		</g>
		<g>
			<g>
				<path class="st21" d="M183.9,642.9h-28.2v-109l47.5,3.8c0,0-2.2,1-7.7,8.7C188,556.8,183.9,642.9,183.9,642.9z"/>
			</g>
			<g>
				<g>
					<path class="st21" d="M155.6,499.1v37.3c0,0,40.6,2.6,54.2,2.6l1.5-16.3l-1.5-23.6H155.6z"/>
				</g>
				<g>
					<path class="st14" d="M209.8,499.1V539c13.5,0,54.2-2.6,54.2-2.6v-37.3H209.8z"/>
				</g>
			</g>
		</g>
		<g>
			<path class="st14" d="M188.4,641.6c0,0.7-0.7,1.3-1.5,1.3h-34.9c-0.8,0-1.5-0.6-1.5-1.3V632c0-0.7,0.7-1.3,1.5-1.3h34.9
				c0.8,0,1.5,0.6,1.5,1.3V641.6z"/>
		</g>
		<g>
			<path class="st22" d="M178.4,513.7c0,2.1-2,3.7-4.5,3.7h-5.9c-2.5,0-4.5-1.7-4.5-3.7v-4.9c0-2.1,2-3.7,4.5-3.7h5.9
				c2.5,0,4.5,1.7,4.5,3.7V513.7z"/>
		</g>
		<g>
			<path class="st23" d="M255,513.7c0,2.1-2,3.7-4.5,3.7h-5.9c-2.5,0-4.5-1.7-4.5-3.7v-4.9c0-2.1,2-3.7,4.5-3.7h5.9
				c2.5,0,4.5,1.7,4.5,3.7V513.7z"/>
		</g>
		<g>
			<polygon class="st24" points="122.5,574.6 114,574.6 114,579.7 128.7,579.7 132.1,571.7 170.2,571.7 170.2,565.9 126.1,565.9 			
				"/>
			<polygon class="st25" points="99.2,579.7 114,579.7 114,574.6 105.4,574.6 101.8,565.9 57.7,565.9 57.7,571.7 95.9,571.7 			"/>
			<path class="st26" d="M133.2,545.2h7c-1.8-10.6-14.5-18.7-26.3-18.7l-1.7,2.4l1.7,2.8C123.5,531.7,131.4,537.1,133.2,545.2z"/>
			<path class="st27" d="M113.9,526.5c-11.7,0-24.5,8.1-26.3,18.7c0.2,0,3.4,0,3.6,0h3.4c1.8-8.1,9.7-13.5,19.3-13.5c0,0,0,0,0,0
				L113.9,526.5C113.9,526.5,113.9,526.5,113.9,526.5z"/>
			<polygon class="st28" points="114,544.7 112.3,552.1 114,574.6 122.5,574.6 126.1,565.9 170.2,565.9 170.2,552.1 170.2,544.7 			
				"/>
			<polygon class="st29" points="57.7,544.7 57.7,552.1 57.7,565.9 101.8,565.9 105.4,574.6 114,574.6 114,552.1 114,544.7 			"/>
			<polygon class="st28" points="132.1,571.7 128.7,579.7 114,579.7 112.3,583.9 114,605 170.2,605 170.2,583.9 170.2,571.7 			"/>
			<polygon class="st29" points="99.2,579.7 95.9,571.7 57.7,571.7 57.7,583.9 57.7,605 114,605 114,583.9 114,579.7 			"/>
		</g>
		<g>
			<polygon class="st30" points="224,403.1 209.8,403.1 208.3,411.1 209.8,419.2 224,419.2 			"/>
			<rect x="195.6" y="403.1" class="st31" width="14.2" height="16"/>
		</g>
		<g>
			<g>
				<g>
					<path class="st30" d="M365,497l5.2,0c1.6,0,2.9-1.1,2.9-2.4c0-1-0.7-1.8-1.7-2.2c0,0,0,0,0,0c-0.7-1.2,0.8-1.3,0.8-1.3
						c1.6,0,2.9-1.1,2.9-2.4c0-1.2-1.1-2.2-2.5-2.4c0,0,0,0,0,0c-1-0.9,0.4-1.2,0.4-1.2s0,0,0,0c1.4-0.2,2.5-1.1,2.5-2.4
						c0-1.1-0.9-2-2.1-2.3c0,0,0,0,0,0c-1.4-0.7-0.2-1.6-0.2-1.6l0,0c0.8-0.4,1.3-1.2,1.3-2c0-1.3-1.3-2.4-2.9-2.4
						c-2.7-0.3-1.4-2-1.4-2s0,0,0,0c0.4-0.4,0.6-0.9,0.6-1.5c0-1.3-1.3-2.4-2.9-2.4l-4.9,0c-19-1.6-16.4,3.5-19.7,5.7
						c-3.3,2.2-12.2,2.1-12.2,2.1s0,12.3,0,15.7c14-0.3,12.5,1.2,17.4,4C352.2,498,360.7,497.4,365,497z"/>
				</g>
				<g>
					<path class="st24" d="M339.4,496.6c-41,4-61-2.3-81-18c-21.7-17.1-22-39.3-21.6-45.7l32.3,1.5c-0.2,3.5-0.1,15.5,11.4,24.5
						c12.5,9.8,24.5,13.9,55.1,10.9L339.4,496.6z"/>
				</g>
			</g>
			<g>
				<path class="st30" d="M96.9,535.8l0.5,4.3c0.2,1.3,1.6,2.3,3.2,2.1c1.1-0.1,2.1-0.7,2.4-1.6c0,0,0,0,0,0
					c1.4-0.7,1.7,0.6,1.7,0.6c0.2,1.3,1.6,2.3,3.2,2.1c1.4-0.1,2.5-1.1,2.6-2.3c0,0,0,0,0,0c0.9-0.9,1.4,0.2,1.4,0.2s0,0,0,0
					c0.3,1.2,1.6,2,3.1,1.8c1.3-0.1,2.3-1,2.5-2c0,0,0,0,0,0c0.7-1.2,1.9-0.3,1.9-0.3l0,0c0.6,0.6,1.5,1,2.5,0.9
					c1.6-0.1,2.7-1.3,2.6-2.6c0.1-2.3,2.3-1.4,2.3-1.4s0,0,0,0c0.5,0.3,1.2,0.4,1.8,0.4c1.6-0.1,2.7-1.3,2.6-2.6l-0.5-4
					c0-15.9-5.8-13.3-8.7-15.8c-3-2.6-3.7-9.9-3.7-9.9s-14.7,1.2-18.8,1.6c1.8,11.6-0.2,10.5-3.1,14.8
					C94.3,525.3,95.9,532.3,96.9,535.8z"/>
			</g>
			<g>
				<path class="st25" d="M93.2,513.4c-5-34.1,2-59.9,20.7-76.7c20.4-18.2,47-18.5,54.7-18.2l-1.7,26.9c-4.2-0.2-18.5,0-29.4,9.6
					c-11.8,10.5-16,29.5-12.3,55L93.2,513.4z"/>
			</g>
			<g>
				<g>
					<path class="st25" d="M168.2,418.5c-9.6,0-17.4,6-17.4,16.5l4.9,74h54.5l1.5-40.6l-1.5-49.9H168.2z"/>
				</g>
				<g>
					<path class="st24" d="M269.2,435c0-10.5-7.8-16.5-17.4-16.5h-42V509H264L269.2,435z"/>
				</g>
			</g>
			<g>
				<polygon class="st32" points="186.3,448.1 203.5,432.7 181.2,418.5 171,418.5 				"/>
			</g>
			<g>
				<polygon class="st33" points="233.7,448.1 216.5,432.6 239.1,418.5 249,418.5 				"/>
			</g>
			<g>
				<polygon class="st34" points="209.8,417.2 208.3,429.5 209.8,446.2 209.8,446.3 216.5,432.6 239,418.5 				"/>
				<polygon class="st35" points="181.2,418.5 203.5,432.7 209.8,446.2 209.8,417.2 				"/>
			</g>
		</g>
		<g>
			<path class="st27" d="M176,509v-89.7c0-0.9-0.9-1.7-2-1.7h-6c-1.1,0-2,0.8-2,1.7V509H176z"/>
		</g>
		<g>
			<path class="st26" d="M252.7,509v-89.7c0-0.9-0.9-1.7-2-1.7h-6c-1.1,0-2,0.8-2,1.7V509H252.7z"/>
		</g>
		<g>
			<g>
				<g>
					<polygon class="st14" points="229.1,412.4 209.8,421.3 229.1,430.2 					"/>
				</g>
				<g>
					<polygon class="st21" points="190.5,412.4 209.8,421.3 190.5,430.2 					"/>
				</g>
			</g>
			<g>
				<path class="st21" d="M208.2,415.6c-2.9,0-5.3,2-5.3,4.4v2.7c0,2.4,2.4,4.4,5.3,4.4h1.6l1.5-5.8l-1.5-5.8H208.2z"/>
				<path class="st14" d="M211.4,415.6h-1.6v11.5h1.6c2.9,0,5.3-2,5.3-4.4V420C216.7,417.5,214.3,415.6,211.4,415.6z"/>
			</g>
		</g>
		<g>
			<g>
				<path class="st30" d="M270.8,351.2c-0.1,2.9-1.4,6.4-4.9,6.2l0,0c-3.5-0.2-6.1-2.6-5.9-5.5l1.2-17.3c0.2-2.9,3.2-5.1,6.6-4.9
					l0,0c3.5,0.2,6.4,2.7,5.9,5.5C272.9,339.2,271.1,343.4,270.8,351.2z"/>
				<path class="st31" d="M148.9,351.2c0.1,2.9,1.4,6.4,4.9,6.2l0,0c3.5-0.2,6.1-2.6,5.9-5.5l-1.2-17.3c-0.2-2.9-3.2-5.1-6.6-4.9
					l0,0c-3.5,0.2-6.4,2.7-5.9,5.5C146.7,339.2,148.5,343.4,148.9,351.2z"/>
				<g>
					<path class="st31" d="M263.7,361.6c0,13.7-10.3,24.8-26.7,24.8h-54.2c-16.4,0-26.7-11.1-26.7-24.8l-3-57.6
						c0-13.7,10.3-24.8,26.7-24.8h60.2c16.4,0,26.7,11.1,26.7,24.8L263.7,361.6z"/>
					<g>
						<path class="st30" d="M239.7,279.2h-30.1v107.1h27.1c16.4,0,26.7-11.1,26.7-24.8l3-57.6C266.4,290.3,256.1,279.2,239.7,279.2z
							"/>
					</g>
				</g>
				<g>
					<path class="st36" d="M183.2,370.7c-13.2,9.3-25.3-10.4-25.3-24.8l-1.9-41c-1.2,2.8-4.4-7.1-4.4-0.2l4.2,65.3
						c0,39.6,53.8,43.4,53.8,43.4l1.5-27.6l-1.5-22.6C193.3,363.3,188.8,366.7,183.2,370.7z"/>
				</g>
				<g>
					<path class="st37" d="M235.9,370.7c13.2,9.3,25.4-10.4,25.4-24.8l1.8-41.2c1.2,2.8,4.8-10.5,4.8-3.6l-4.5,68.9
						c0,39.6-53.8,43.4-53.8,43.4v-50.1C225.9,363.3,230.3,366.7,235.9,370.7z"/>
				</g>
				<g>
					<path class="st30" d="M210.3,380.8c-8.6,0-17.3-3.7-16.8-4.8c0.5-1.1,1.9-1.6,3.2-1.2l0,0c0.1,0,13.4,4.1,26.3,0
						c1.3-0.4,2.7,0.1,3.2,1.2C226.6,377.1,219.3,380.8,210.3,380.8z"/>
				</g>
				<g>
					<path class="st37" d="M227.2,325.6c13.3-3.7,26.7,0,26.8,0c2.3,0.6,5.2-3.9,2.9-4.5c-0.7-0.2-16.9-5.7-33.9-1.3
						C220.9,320.3,224.9,326.3,227.2,325.6z"/>
				</g>
				<g>
					<ellipse class="st38" cx="239.6" cy="333.1" rx="5.4" ry="4.5"/>
					<ellipse class="st39" cx="241" cy="332.1" rx="1.8" ry="1.5"/>
				</g>
				<g>
					<path class="st36" d="M192.4,325.6c-2.9-1-5.7-2.8-10.7-2.8c-9-0.1-16.1,2.8-16.2,2.8c-2.3,0.6-5.2-3.9-2.9-4.5
						c0.5-0.1,8.5-4.1,19-4.2c4.6-0.1,10.9,1.2,14.9,2.9C198.7,320.6,194.7,326.4,192.4,325.6z"/>
				</g>
				<g>
					<path class="st31" d="M198.8,361.7c0,2.7,5,4.9,11,5l-0.3-55.1C205.6,315.8,198.8,361.7,198.8,361.7z"/>
					<path class="st30" d="M215.5,330.4c-2.4-11.8-4.2-17.5-5.9-18.8v55.1c0.1,0,0.2,0,0.3,0c6.1,0,11-2.2,11-5
						C220.9,361.7,218.8,346.6,215.5,330.4z"/>
				</g>
				<ellipse class="st31" cx="200.8" cy="363.4" rx="3.6" ry="2.5"/>
				<ellipse class="st30" cx="218.8" cy="363.4" rx="3.6" ry="2.5"/>
				<g>
					<ellipse class="st40" cx="179.8" cy="333.1" rx="5.4" ry="4.5"/>
					<ellipse class="st39" cx="181.2" cy="332.1" rx="1.8" ry="1.5"/>
				</g>
			</g>
			<g>
				<path class="st37" d="M252.6,275.8c0.9-9.2-14.4-24.3-43-23.5l-1.5,19.5l1.5,17.8c2.2-0.1,4.6-0.2,7.2-0.3
					c18.5-1.4,26.3-5,26.3-5s23.3-3.8,17.2,71.8c3.4-6,3.5,3.2,3.5,3.2s4.7-54.1,4.8-61.4C268.7,289.9,265.2,273.7,252.6,275.8z"/>
				<path class="st36" d="M191.3,254.7c-41.8,9.6-39.5,31.3-39.7,50.3c-0.2,19.1,3.8,53.5,3.8,53.5s1.5-15.1,2.1-11.9
					c-0.3-15.4-2.8-55.5,16.5-60.7c7.1-1.9,6.7,4.3,35.6,3.6v-37.3C204,252.4,197.9,253.1,191.3,254.7z"/>
			</g>
		</g>
		<path class="st41" d="M321.5,606c0.3,0.7-0.1,1.4-0.9,1.7L287,618.6c-0.8,0.3-1.7-0.1-2-0.8l-4.3-9.2c-0.3-0.7,0.1-1.4,0.9-1.7
			l33.6-10.9c0.8-0.3,1.7,0.1,2,0.8L321.5,606z"/>
	</g>
</g>
<g>
	<g>
		<defs>
			<rect id="SVGID_3_" x="1" y="-1572.7" width="926.3" height="1200"/>
		</defs>
		<clipPath id="SVGID_4_">
			<use xlink:href="#SVGID_3_"  style="overflow:visible;"/>
		</clipPath>
		<rect x="0.5" y="-1572.7" class="st42" width="926.3" height="1200"/>
		<g class="st43">
			<ellipse class="st44" cx="642.5" cy="-1068.2" rx="56.2" ry="56.2"/>
			<ellipse class="st44" cx="560.6" cy="-1018.9" rx="44.2" ry="44.3"/>
			<ellipse class="st44" cx="800.5" cy="-1029.3" rx="54.6" ry="54.7"/>
			<ellipse class="st44" cx="735.3" cy="-1078.7" rx="73.7" ry="73.8"/>
			<rect x="560.6" y="-1033.3" class="st44" width="245.6" height="58.6"/>
			<ellipse class="st44" cx="589.2" cy="-1062.5" rx="28.5" ry="28.5"/>
		</g>
		<g class="st43">
			<ellipse class="st44" cx="127.1" cy="-1157.9" rx="37" ry="37"/>
			<ellipse class="st44" cx="73.2" cy="-1125.4" rx="29.1" ry="29.1"/>
			<ellipse class="st44" cx="231.2" cy="-1132.3" rx="36" ry="36"/>
			<ellipse class="st44" cx="188.2" cy="-1164.8" rx="48.5" ry="48.6"/>
			<rect x="73.2" y="-1134.9" class="st44" width="161.7" height="38.6"/>
			<ellipse class="st44" cx="92.1" cy="-1154.1" rx="18.8" ry="18.8"/>
		</g>
		<g class="st43">
			<polygon class="st6" points="312.5,-131.9 -147.2,-131.9 82.6,-627 			"/>
			<polygon class="st2" points="82.6,-627 -32.3,-379.4 21.8,-408.1 67.3,-386.8 105.2,-439.9 187.5,-401.1 			"/>
		</g>
		<g class="st43">
			<polygon class="st6" points="749.2,-809.9 464.4,-196.6 1033.9,-196.6 			"/>
			<path class="st2" d="M868.2-553.4L749.2-809.9L606.8-503.2l67-35.5l56.4,26.3l46.8-65.7l86.2,40.6
				C864.6-542.9,866.3-548.2,868.2-553.4z"/>
		</g>
		<g class="st43">
			<polygon class="st12" points="868.8,-57.9 -61.4,-53.9 194.1,-499.6 480.5,-719.6 598.5,-539.5 			"/>
			<polygon class="st2" points="409,-856.1 194.1,-499.6 194.1,-499.6 293.7,-552.3 377.4,-513.2 447,-610.8 598.5,-539.5 			"/>
		</g>
	</g>
	<g>
		<g>
			<polygon class="st8" points="127.4,-885.4 50.5,-867.8 72.1,-905.5 37,-929.3 110.6,-945.9 			"/>
			<path class="st9" d="M159.9-986.1c0.1,0.3,0.2,0.5,0.3,0.8c3.3,12.2,13,74.2,13.3,75.3l-78.7,14.1l-19.2-74.9L159.9-986.1z"/>
			<polygon class="st10" points="127.4,-885.4 94.8,-895.9 123.3,-900.4 			"/>
		</g>
		
			<rect x="197" y="-994.4" transform="matrix(0.9852 -0.1714 0.1714 0.9852 131.2654 23.3685)" class="st45" width="7.9" height="491.6"/>
	</g>
	<g>
		<path class="st30" d="M486-985.5l-0.3-7c-0.1-1.7-1.5-3-3.1-2.9c-0.9,0-1.7,0.5-2.3,1.2c0,0,0,0,0,0c-2.3,1.2-3.5-0.9-3.5-0.9
			s0,0,0,0c-0.6-0.9-1.6-1.5-2.7-1.5c-1.1,0-2.1,0.7-2.6,1.6c0,0,0,0,0,0c-2.9,0.3-1.6-7.8-1.6-8l2.4-12.5c0.4-1.6-0.5-3.3-2.1-3.7
			c-1.6-0.4-3.3,0.5-3.7,2.1l-0.7,3.8l0,0c-1.3,6.3-3.6,13.2-4.9,16.8c-1.5-3.2-4.2-8.9-5.7-12.6l-2.7-6.8c-0.7-1.5-2.4-2.2-4-1.6
			c-1.5,0.7-2.2,2.4-1.6,4l4.7,12c0.4,1.2,0.8,2.5,1.1,3.8c0.1,0.4,0.1,0.9,0.2,1.3c0.7,3.3,0.3,5.6-0.2,7.1
			c-0.3,0.3-0.5,0.6-0.8,0.9c-0.7,1-1.1,2.4-0.9,4.3c1.7,16.4,5.8,16.8,9,20.3c3.2,3.5,3,18.5,3,18.5l19.3-0.8c0,0,0.2-1.8-0.4-11.3
			c-0.6-9.6,0.7-9.5,3.3-13.8C487.2-974.6,486.5-981.9,486-985.5z"/>
		<g>
			<path class="st30" d="M185.9-794.6l-5.4,0.4c-1.7,0.1-3.1-1.1-3.2-2.8c-0.1-1.2,0.6-2.3,1.5-2.8c0,0,0,0,0,0c0.6-1.6-1-1.6-1-1.6
				c-1.7,0.1-3.1-1.1-3.2-2.8c-0.1-1.5,0.9-2.8,2.4-3.2v0c1-1.2-0.5-1.4-0.5-1.4s0,0,0,0c-1.5-0.1-2.7-1.2-2.9-2.8
				c-0.1-1.4,0.8-2.6,2-3.1c0,0,0,0,0,0c1.4-1,0-2,0-2l0,0c-0.9-0.5-1.5-1.4-1.6-2.4c-0.1-1.7,1.1-3.1,2.8-3.2
				c2.8-0.6,1.3-2.7,1.3-2.7s0,0,0,0c-0.4-0.5-0.7-1.1-0.8-1.8c-0.1-1.7,1.1-3.1,2.8-3.2l5.1-0.4c19.8-3.4,17.5,3.1,21.2,5.6
				c3.7,2.5,13,1.7,13,1.7s1.1,15.5,1.4,19.8c-14.7,0.7-13,2.5-17.8,6.4C199.5-794.2,190.4-794.3,185.9-794.6z"/>
		</g>
		<g>
			<path class="st9" d="M231.8-797.3c-8.1,0.6-15.2,0.1-20.8-1.1l6.6-29.6c10.3,2.3,53.6,4.4,78.4-49c5-10.8,15.1-11.3,15.1-11.3
				l17.4,11.5C307.7-818.7,262.9-799.7,231.8-797.3z"/>
		</g>
		<g>
			<g>
				<path class="st46" d="M442.9-673.3c0,0-0.7-2.9,5.4-3.5c6-0.6,10-0.6,12.1-1.6c2.1-0.9,3.7,5.3,3.4,5.6
					c-0.3,0.3-8.9,3.9-9.6,3.8C453.5-669.1,442.9-673.3,442.9-673.3z"/>
			</g>
			<g>
				<path class="st16" d="M444-662.6c0,0-2.3,2.7,0,7.6c0.9,1.7,6.1-0.2,18.5,2.1c12.4,2.3,28.3,2.8,42.5-10.3
					c1.5-1.3,1-8.6-5.1-7.6C493.8-669.9,444-662.6,444-662.6z"/>
			</g>
			<g>
				<path class="st30" d="M466.3-674.1c0.4,1.4-0.6,2.8-2.2,3.2l-13.8,3.6c-1.6,0.4-3.1-0.4-3.5-1.7l-4.9-18.9
					c-0.4-1.4,0.6-2.8,2.2-3.2l13.8-3.6c1.6-0.4,3.1,0.4,3.5,1.7L466.3-674.1z"/>
			</g>
			<g>
				<path class="st47" d="M442.9-673.3c0,0-0.1,9.7,0.5,11.7c7.4,0.3,5.1,0,12.7,1.4c7.6,1.4,37.1,3.4,46.3-9.6
					c1.1-1.9-4.5-9.8-22.1-9.5c-3.5-0.4-9.7-4.3-12.3-6.5c-3.4-0.1-7.1,4.4-11.3,10.9C452.5-668.2,442.5-675.8,442.9-673.3z"/>
			</g>
			<g>
				<path class="st16" d="M474.4-674.5c0,0-1.3-1.4-1.5-3.5c-0.8,0.4-1.5,0.9-2.3,1.6c-0.1,0.1-0.3,0.2-0.5,0.1
					c-0.2,0-0.3-0.2-0.4-0.3c-0.4-1-0.6-1.9-0.6-2.9c-0.1,0.1-0.3,0.1-0.4,0.2c-1.1,0.4-2.3,0.8-3.7,1.3c-0.2,0.1-0.4,0-0.6-0.1
					c-0.2-0.1-0.2-0.4-0.1-0.6c1.5-4.4,6.3-5.5,6.5-5.5c0.2,0,0.4,0,0.5,0.2c0.1,0.2,0.1,0.4,0,0.6c-0.5,0.8-0.8,1.5-0.9,2.3
					c1.6-0.6,2.8-0.9,3.9-1c0.2,0,0.4,0.1,0.5,0.3c0.1,0.2,0.1,0.4,0,0.6c-0.3,0.5-0.6,1.1-0.7,1.5c1.8-0.7,3.2-0.9,3.3-0.9
					c0.3,0,0.6,0.2,0.6,0.5c0,0.3-0.2,0.6-0.5,0.6c0,0-1.7,0.2-3.6,1.1c0,1.9,1.2,3.2,1.2,3.3c0.2,0.2,0.2,0.6,0,0.8
					c-0.1,0.1-0.2,0.1-0.2,0.1C474.8-674.3,474.6-674.4,474.4-674.5z M473.4-680.9c-0.9,0.2-1.9,0.5-3.1,1c0,0.7,0.1,1.4,0.3,2.2
					c0.8-0.6,1.6-1.1,2.4-1.5C473-679.8,473.2-680.3,473.4-680.9z M469.9-682.8c-1.2,0.5-2.9,1.5-4,3.3c0.9-0.3,1.7-0.6,2.5-0.9
					c0.3-0.1,0.6-0.2,0.9-0.3C469.4-681.4,469.6-682.1,469.9-682.8z"/>
			</g>
		</g>
		<g>
			<g>
				<path class="st46" d="M350.7-631.8c0,0-0.3-3-6.2-1.6c-5.9,1.4-9.7,2.7-12,2.5c-2.3-0.2-1.8,6.2-1.4,6.4
					c0.4,0.2,9.7,0.8,10.3,0.5C342.1-624.3,350.7-631.8,350.7-631.8z"/>
			</g>
			<g>
				<path class="st19" d="M353.2-621.3c0,0,3.1,1.8,2.5,7.2c-0.3,2-5.9,1.8-16.9,8c-11,6.2-25.9,11.8-43.5,4
					c-1.8-0.8-3.8-7.8,2.3-8.8C303.7-612,353.2-621.3,353.2-621.3z"/>
			</g>
			<g>
				<path class="st31" d="M328.3-625c0.1,1.4,1.5,2.4,3.1,2.3l14.2-1.1c1.6-0.1,2.9-1.4,2.7-2.8L347-646c-0.1-1.4-1.5-2.4-3.1-2.3
					l-14.2,1.1c-1.6,0.1-2.9,1.4-2.7,2.8L328.3-625z"/>
			</g>
			<g>
				<path class="st48" d="M350.7-631.8c0,0,3.2,9.1,3.3,11.3c-6.9,2.7-4.8,1.6-11.5,5.5c-6.7,3.8-33.9,15.3-46.9,6
					c-1.7-1.4,1-10.7,17.9-16.1c3.2-1.6,7.8-7.2,9.5-10.1c3.2-1.2,8.2,1.9,14.3,6.6C343.3-623.9,350.3-634.2,350.7-631.8z"/>
			</g>
			<g>
				<path class="st19" d="M319.9-622.4c-0.1,0-0.2,0-0.3-0.1c-0.3-0.1-0.4-0.5-0.3-0.7c0-0.1,0.8-1.7,0.1-3.5
					c-2.1-0.2-3.8,0.1-3.8,0.1c-0.3,0.1-0.6-0.1-0.6-0.4c-0.1-0.3,0.1-0.6,0.4-0.6c0.1,0,1.5-0.3,3.4-0.2c-0.3-0.4-0.7-0.8-1.2-1.2
					c-0.2-0.1-0.2-0.3-0.2-0.5c0-0.2,0.2-0.4,0.4-0.4c1-0.3,2.3-0.3,4-0.3c-0.4-0.6-1-1.3-1.6-1.8c-0.2-0.1-0.2-0.4-0.2-0.6
					c0.1-0.2,0.2-0.4,0.4-0.4c0.2,0,5-0.6,7.9,3.1c0.1,0.2,0.1,0.4,0.1,0.6c-0.1,0.2-0.3,0.3-0.5,0.3c-1.5,0-2.8,0-3.9-0.1
					c-0.2,0-0.3,0-0.5,0c0.3,0.9,0.4,1.9,0.4,2.9c0,0.2-0.1,0.3-0.2,0.4c-0.1,0.1-0.3,0.1-0.5,0c-0.9-0.4-1.8-0.6-2.6-0.7
					c0.5,2.1-0.3,3.8-0.3,3.8C320.2-622.5,320-622.4,319.9-622.4z M320.2-627.6c0.9,0.1,1.8,0.3,2.7,0.6c0-0.8-0.2-1.5-0.5-2.1
					c-1.3,0-2.4,0-3.3,0.1C319.6-628.6,319.9-628.1,320.2-627.6z M323.2-630.2c0.3,0,0.6,0,1,0c0.8,0,1.7,0,2.6,0.1
					c-1.6-1.4-3.6-1.8-4.8-1.8C322.4-631.4,322.8-630.8,323.2-630.2z"/>
			</g>
		</g>
		<g>
			<polygon class="st30" points="367.6,-911 354.4,-910 353.6,-901 355.7,-892 368.9,-893 			"/>
			
				<rect x="341.8" y="-909.5" transform="matrix(0.9971 -7.574172e-02 7.574172e-02 0.9971 69.2078 23.8031)" class="st31" width="13.3" height="18"/>
		</g>
		<g>
			<g>
				<g>
					<g>
						<path class="st29" d="M350.5-639.4l-26.4,2l-9.3-122.1l44.7,0.9c0,0-2,1.3-6.4,10.2C347.1-736.2,350.5-639.4,350.5-639.4z"/>
					</g>
				</g>
				<g>
					<path class="st28" d="M438.3-682l23.4-11.8c0,0-6.8-36.2-11.3-49.8c-5.2-15.8-38.8-52-38.8-52L369.8-764c0,0,2.4,0.1,10.9,5.3
						c5.2,3.2,30.2,7.9,42.4,27.4C438.3-707.2,438.3-682,438.3-682z"/>
				</g>
				<g>
					<g>
						<g>
							<path class="st29" d="M311.9-798.5l3.2,41.8c0,0,38.2,0,50.8-1l0-18.3l-3.5-26.4L311.9-798.5z"/>
						</g>
					</g>
					<g>
						<path class="st28" d="M362.5-802.4l3.4,44.7c12.7-1,50.4-6.7,50.4-6.7l-3.2-41.8L362.5-802.4z"/>
					</g>
				</g>
			</g>
			<g>
				<path class="st28" d="M354.6-641.2c0.1,0.8-0.5,1.5-1.3,1.5l-32.6,2.5c-0.8,0.1-1.4-0.5-1.5-1.3l-0.8-10.8
					c-0.1-0.8,0.5-1.5,1.3-1.5l32.6-2.5c0.8-0.1,1.4,0.5,1.5,1.3L354.6-641.2z"/>
			</g>
			<g>
				<path class="st49" d="M470.6-691.7c0.3,0.7,0,1.6-0.7,1.9l-30.1,13c-0.7,0.3-1.5,0-1.9-0.8l-4.3-9.9c-0.3-0.7,0-1.6,0.7-1.9
					l30.1-13c0.7-0.3,1.5,0,1.9,0.8L470.6-691.7z"/>
			</g>
		</g>
		<g>
			<path class="st8" d="M448.6-864.8c-21.5,7.4-46.8,3.6-63.3-5.4l14.6-26.5c10.8,5.9,32.9,9.1,46.3-0.4
				c14.8-10.5,14.3-33.8,11.3-51.5l29.9-5.1c8.1,47.5-8.3,70.4-23.6,81.3C459.1-869.2,453.9-866.6,448.6-864.8z"/>
		</g>
		<g>
			<g>
				<g>
					<path class="st9" d="M316.8-889.8c-9,0.7-15.7,7.9-14.8,19.7l10.9,82.6l50.9-3.9l-2-45.6l-5.7-55.9L316.8-889.8z"/>
				</g>
			</g>
			<g>
				<path class="st8" d="M412.6-878.5c-0.9-11.8-8.7-17.9-17.7-17.3l-39.2,3l7.7,101.4l50.6-3.8L412.6-878.5z"/>
			</g>
		</g>
		<g>
			<polygon class="st34" points="355.5,-894.2 355.2,-880.4 356.9,-876.1 357,-876 362.7,-883.2 382.9,-894.8 			"/>
			<polygon class="st35" points="328.9,-890.7 350.6,-882.1 356.9,-876.1 355.5,-894.2 			"/>
		</g>
		<g>
			<polygon class="st10" points="336.5,-856.5 350.6,-882.1 328.9,-890.7 319.5,-890 			"/>
		</g>
		<g>
			<polygon class="st50" points="380.6,-859.9 362.7,-883.2 382.9,-894.8 392.3,-895.5 			"/>
		</g>
		<g>
			<path class="st19" d="M331.8-788.9l-7.6-100.6c-0.1-1.1-1-1.8-2.1-1.8l-5.6,0.4c-1.1,0.1-1.8,1-1.8,2.1l7.6,100.6L331.8-788.9z"
				/>
		</g>
		<g>
			<path class="st16" d="M403.4-794.4l-7.6-100.6c-0.1-1.1-1-1.8-2.1-1.8l-5.6,0.4c-1.1,0.1-1.8,1-1.8,2.1l7.6,100.6L403.4-794.4z"
				/>
		</g>
		<g>
			<path class="st27" d="M334.4-783.9c0.2,2.3-1.6,4.3-3.9,4.5l-5.5,0.4c-2.3,0.2-4.3-1.6-4.5-3.9l-0.4-5.5
				c-0.2-2.3,1.6-4.3,3.9-4.5l5.5-0.4c2.3-0.2,4.3,1.6,4.5,3.9L334.4-783.9z"/>
		</g>
		<g>
			<path class="st26" d="M406-789.3c0.2,2.3-1.6,4.3-3.9,4.5l-5.5,0.4c-2.3,0.2-4.3-1.6-4.5-3.9l-0.4-5.5c-0.2-2.3,1.6-4.3,3.9-4.5
				l5.5-0.4c2.3-0.2,4.3,1.6,4.5,3.9L406-789.3z"/>
		</g>
		<g>
			<path class="st30" d="M409.1-975.3c0.1,3.4-0.8,7.5-4.2,7.6l0,0c-3.4,0.1-6.2-2.6-6.2-6l-0.4-20.2c-0.1-3.4,2.6-6.2,6-6.2l0,0
				c3.4-0.1,6.5,2.6,6.2,6C410.1-989.4,408.8-984.4,409.1-975.3z"/>
			<path class="st31" d="M291-966.3c0.4,3.3,1.9,7.3,5.3,6.9l0,0c3.3-0.4,5.7-3.5,5.2-6.8l-2.7-20.1c-0.4-3.3-3.5-5.7-6.8-5.2l0,0
				c-3.3,0.4-6,3.6-5.2,6.8C287.9-980.1,290-975.4,291-966.3z"/>
			<g>
				<path class="st31" d="M403.1-962.7c1.2,15.9-7.8,29.5-23.7,30.7l-52.5,4c-15.9,1.2-26.9-10.9-28.1-26.8l-8-66.7
					c-1.2-15.9,7.8-29.5,23.7-30.7l58.3-4.4c15.9-1.2,26.9,10.9,28.1,26.8L403.1-962.7z"/>
				<g>
					<path class="st30" d="M372.6-1056.6l-29.1,2.2l9.5,124.5l26.3-2c15.9-1.2,24.9-14.9,23.7-30.7l-2.2-67.1
						C399.5-1045.7,388.5-1057.8,372.6-1056.6z"/>
				</g>
			</g>
			<g>
				<path class="st36" d="M326-946.2c-12,11.7-25.5-10.3-26.7-27l-5.4-47.5c-1,3.4-6.4-7.8-5.8,0.2l10.6,66.9
					c3.5,46,56.6,55.1,56.6,55.1l-1-32.1l-3.4-26.1C335.1-955.6,331.1-951.2,326-946.2z"/>
			</g>
			<g>
				<path class="st37" d="M377.1-950.1c13.6,9.8,23.6-14,22.4-30.7l-1.9-48c1.5,3.2,4.7-12.6,5.3-4.6l0.1,71.8
					c3.5,46-47.6,63-47.6,63l-4.4-58.3C366.7-958,371.3-954.3,377.1-950.1z"/>
			</g>
			<g>
				<path class="st30" d="M354-926.3c-15.8,1.2-20-13-19.5-14.2c0.4-1.3,1.9-2,3.4-1.7l0,0c0.1,0,14.9,3.7,28.6-2.2
					c1.4-0.6,3-0.1,3.6,1.1C370.7-942.1,367.2-927.3,354-926.3z"/>
			</g>
			<g>
				<path class="st37" d="M364.7-1001.8c12.6-5.2,25.9-2,26-2c2.3,0.5,4.7-5,2.5-5.5c-0.7-0.2-16.9-5.4-32.9,1
					C358.1-1007.5,362.5-1000.9,364.7-1001.8z"/>
			</g>
			<g>
				<path class="st36" d="M331-999.3c-2.9-1-5.8-2.8-10.6-2.5c-8.7,0.6-15.3,4.4-15.4,4.5c-2.1,0.9-5.4-4.2-3.3-5.1
					c0.4-0.2,7.8-5.3,18-6.3c4.5-0.4,10.7,0.6,14.7,2.3C336.6-1005.5,333.3-998.5,331-999.3z"/>
			</g>
			<g>
				<path class="st31" d="M340.4-957.8c0.2,3.2,5.3,5.4,11.1,5l-5.1-64C342.8-1011.6,340.4-957.8,340.4-957.8z"/>
				<path class="st30" d="M353.8-995.3c-3.3-13.5-5.6-20-7.4-21.4l4.9,64c0.1,0,0.2,0,0.3,0c5.9-0.4,10.5-3.4,10.2-6.6
					C361.7-959.4,358.3-976.8,353.8-995.3z"/>
			</g>
			
				<ellipse transform="matrix(0.9971 -7.611662e-02 7.611662e-02 0.9971 73.7532 23.2891)" class="st31" cx="342.4" cy="-955.9" rx="3.5" ry="2.9"/>
			
				<ellipse transform="matrix(0.9971 -7.587793e-02 7.587793e-02 0.9971 73.6698 24.5458)" class="st30" cx="359.9" cy="-957.2" rx="3.5" ry="2.9"/>
			<path class="st36" d="M341.6-1079c-7,0-14.7,1-23.2,3.5c-23.7,6.9-19.9,22.3-19.9,22.3c-3.8-2.2-10.7,0-12,15.3
				c-1.4,15.9,5.3,26.2,5.3,26.2s1.9,0.8,2.1-8.2c-1.7-23,12.1-11.6,12.1-11.6s0.2-0.3,0.5-0.8c0,0,7.5-10.2,38.3-3.2l-0.3-22.7
				L341.6-1079z"/>
			<g>
				<path class="st37" d="M341.6-1079l3.3,43.4c41.1,9.5,59.2,15.3,58-1C401.6-1054.3,391.4-1080.6,341.6-1079z"/>
			</g>
			<g>
				<path class="st40" d="M312.9-987.5c-0.2,0-0.3,0-0.5-0.1c-0.8-0.3-1.2-1.1-0.9-1.9c0.1-0.2,1.7-4.8,6.8-5.2
					c4.9-0.4,7.8,3.7,7.9,3.9c0.5,0.7,0.3,1.6-0.4,2.1c-0.7,0.5-1.6,0.3-2.1-0.4c-0.1-0.1-2-2.8-5.2-2.6c-3.1,0.2-4.1,3-4.2,3.2
					C314.1-987.9,313.6-987.5,312.9-987.5z"/>
			</g>
			<g>
				<path class="st38" d="M370.1-991.9c-0.2,0-0.4,0-0.7-0.2c-0.7-0.4-1-1.3-0.7-2c0.1-0.2,2.3-4.7,7.2-5c5.1-0.4,7.4,3.9,7.5,4.1
					c0.4,0.7,0.1,1.6-0.6,2c-0.7,0.4-1.6,0.1-2-0.6c-0.1-0.1-1.5-2.7-4.6-2.5c-3.2,0.2-4.7,3.2-4.8,3.4
					C371.2-992.2,370.7-991.9,370.1-991.9z"/>
			</g>
			<path class="st50" d="M337.8-936.9c0,0,4.1,9,15.2,9.1c6.3-0.4,12.4-7,13.4-11.3C352.9-937.6,337.8-936.9,337.8-936.9z"/>
			<path class="st35" d="M336.7-940.2c0,0,16.9,3.4,30.4-2.3c0.7,2.7-1,4.4-1,4.4s-11.4,5.7-28.1,1.7
				C337.1-937.8,336.7-940.2,336.7-940.2z"/>
		</g>
	</g>
</g>
</svg>
