<?xml version="1.0" encoding="utf-8"?>
<!-- Generator: Adobe Illustrator 19.2.0, SVG Export Plug-In . SVG Version: 6.00 Build 0)  -->
<svg version="1.1" id="Layer_1" xmlns="http://www.w3.org/2000/svg" xmlns:xlink="http://www.w3.org/1999/xlink" x="0px" y="0px"
	 viewBox="0 0 282.6 366.1" style="enable-background:new 0 0 282.6 366.1;" xml:space="preserve">
<style type="text/css">
	.st0{fill:#F7FAF9;}
	.st1{fill:none;}
	.st2{fill:#E96643;}
	.st3{fill:#F4774C;}
	.st4{fill:#E15A3C;}
	.st5{fill-rule:evenodd;clip-rule:evenodd;fill:#988670;}
	.st6{fill:#F7B77C;}
	.st7{fill:#8C653F;}
	.st8{fill:#D6CCC0;}
	.st9{fill:#734C2E;}
	.st10{fill:#E1D5C9;}
	.st11{fill:#FDC387;}
	.st12{fill:#7F5735;}
	.st13{fill:#465F73;}
	.st14{fill:#3D5668;}
	.st15{fill:#354C57;}
	.st16{fill:#F9F9F9;}
	.st17{fill:#FFFFFF;}
	.st18{fill:#D65237;}
	.st19{fill:#D56036;}
	.st20{fill:#CA532F;}
	.st21{fill:#7A5135;}
	.st22{fill:#684228;}
	.st23{fill:#453428;}
	.st24{fill:#3A2B22;}
</style>
<g>
	<g>
		<g>
			<ellipse class="st0" cx="170.7" cy="169" rx="13.5" ry="13.5"/>
		</g>
		<rect class="st1" width="282.6" height="366.1"/>
	</g>
	<g>
		<g>
			<polygon class="st2" points="38.6,209.7 15.1,215.1 21.7,203.5 11,196.3 33.4,191.2 			"/>
			<path class="st3" d="M48.5,179c0,0.1,0.1,0.2,0.1,0.2c1,3.7,4,22.6,4.1,23l-24,4.3l-5.9-22.8L48.5,179z"/>
			<polygon class="st4" points="38.6,209.7 28.6,206.5 37.3,205.1 			"/>
		</g>
		
			<rect x="59.8" y="176.4" transform="matrix(0.9852 -0.1714 0.1714 0.9852 -42.1887 14.1758)" class="st5" width="2.4" height="150"/>
	</g>
	<g>
		<path class="st6" d="M147.9,179.2l-0.1-2.1c0-0.5-0.4-0.9-1-0.9c-0.3,0-0.5,0.2-0.7,0.4c0,0,0,0,0,0c-0.7,0.4-1.1-0.3-1.1-0.3
			s0,0,0,0c-0.2-0.3-0.5-0.5-0.8-0.4c-0.3,0-0.6,0.2-0.8,0.5c0,0,0,0,0,0c-0.9,0.1-0.5-2.4-0.5-2.4l0.7-3.8c0.1-0.5-0.2-1-0.6-1.1
			c-0.5-0.1-1,0.2-1.1,0.6l-0.2,1.2l0,0c-0.4,1.9-1.1,4-1.5,5.1c-0.5-1-1.3-2.7-1.7-3.8l-0.8-2.1c-0.2-0.5-0.7-0.7-1.2-0.5
			c-0.5,0.2-0.7,0.7-0.5,1.2l1.4,3.7c0.1,0.4,0.2,0.8,0.3,1.1c0,0.1,0,0.3,0.1,0.4c0.2,1,0.1,1.7-0.1,2.2c-0.1,0.1-0.2,0.2-0.2,0.3
			c-0.2,0.3-0.3,0.7-0.3,1.3c0.5,5,1.8,5.1,2.7,6.2c1,1.1,0.9,5.6,0.9,5.6l5.9-0.2c0,0,0.1-0.5-0.1-3.5c-0.2-2.9,0.2-2.9,1-4.2
			C148.3,182.5,148.1,180.2,147.9,179.2z"/>
		<g>
			<path class="st6" d="M56.4,237.4l-1.7,0.1c-0.5,0-0.9-0.3-1-0.9c0-0.4,0.2-0.7,0.5-0.9c0,0,0,0,0,0c0.2-0.5-0.3-0.5-0.3-0.5
				c-0.5,0-0.9-0.3-1-0.9c0-0.5,0.3-0.9,0.7-1v0c0.3-0.4-0.2-0.4-0.2-0.4s0,0,0,0c-0.5,0-0.8-0.4-0.9-0.9c0-0.4,0.2-0.8,0.6-0.9
				c0,0,0,0,0,0c0.4-0.3,0-0.6,0-0.6l0,0c-0.3-0.1-0.5-0.4-0.5-0.7c0-0.5,0.3-0.9,0.9-1c0.9-0.2,0.4-0.8,0.4-0.8s0,0,0,0
				c-0.1-0.1-0.2-0.3-0.2-0.6c0-0.5,0.3-0.9,0.9-1l1.6-0.1c6-1.1,5.3,0.9,6.5,1.7c1.1,0.8,4,0.5,4,0.5s0.3,4.7,0.4,6
				c-4.5,0.2-4,0.8-5.4,2C60.5,237.5,57.8,237.5,56.4,237.4z"/>
		</g>
		<g>
			<path class="st3" d="M70.4,236.5c-2.5,0.2-4.6,0-6.3-0.3l2-9c3.1,0.7,16.3,1.3,23.9-15c1.5-3.3,4.6-3.4,4.6-3.4l5.3,3.5
				C93.6,230,79.9,235.8,70.4,236.5z"/>
		</g>
		<g>
			<g>
				<path class="st7" d="M134.8,274.4c0,0-0.2-0.9,1.6-1.1c1.8-0.2,3.1-0.2,3.7-0.5c0.6-0.3,1.1,1.6,1,1.7c-0.1,0.1-2.7,1.2-2.9,1.2
					C138,275.7,134.8,274.4,134.8,274.4z"/>
			</g>
			<g>
				<path class="st8" d="M135.2,277.6c0,0-0.7,0.8,0,2.3c0.3,0.5,1.9-0.1,5.6,0.6c3.8,0.7,8.6,0.8,13-3.1c0.5-0.4,0.3-2.6-1.6-2.3
					C150.3,275.4,135.2,277.6,135.2,277.6z"/>
			</g>
			<g>
				<path class="st6" d="M142,274.1c0.1,0.4-0.2,0.9-0.7,1l-4.2,1.1c-0.5,0.1-1-0.1-1.1-0.5l-1.5-5.8c-0.1-0.4,0.2-0.9,0.7-1
					l4.2-1.1c0.5-0.1,1,0.1,1.1,0.5L142,274.1z"/>
			</g>
			<g>
				<path class="st9" d="M134.8,274.4c0,0,0,2.9,0.2,3.6c2.3,0.1,1.5,0,3.9,0.4c2.3,0.4,11.3,1.1,14.1-2.9c0.3-0.6-1.4-3-6.8-2.9
					c-1.1-0.1-3-1.3-3.7-2c-1,0-2.2,1.3-3.5,3.3C137.7,275.9,134.7,273.6,134.8,274.4z"/>
			</g>
			<g>
				<path class="st8" d="M144.4,274c0,0-0.4-0.4-0.5-1.1c-0.2,0.1-0.5,0.3-0.7,0.5c0,0-0.1,0-0.1,0c-0.1,0-0.1-0.1-0.1-0.1
					c-0.1-0.3-0.2-0.6-0.2-0.9c0,0-0.1,0-0.1,0.1c-0.3,0.1-0.7,0.3-1.1,0.4c-0.1,0-0.1,0-0.2,0c0,0-0.1-0.1,0-0.2
					c0.5-1.4,1.9-1.7,2-1.7c0.1,0,0.1,0,0.2,0.1c0,0.1,0,0.1,0,0.2c-0.1,0.2-0.2,0.5-0.3,0.7c0.5-0.2,0.9-0.3,1.2-0.3
					c0.1,0,0.1,0,0.2,0.1c0,0.1,0,0.1,0,0.2c-0.1,0.2-0.2,0.3-0.2,0.5c0.5-0.2,1-0.3,1-0.3c0.1,0,0.2,0,0.2,0.1c0,0.1,0,0.2-0.1,0.2
					c0,0-0.5,0.1-1.1,0.3c0,0.6,0.4,1,0.4,1c0.1,0.1,0.1,0.2,0,0.2c0,0,0,0-0.1,0C144.5,274.1,144.5,274.1,144.4,274z M144.1,272.1
					c-0.3,0.1-0.6,0.2-1,0.3c0,0.2,0,0.4,0.1,0.7c0.2-0.2,0.5-0.3,0.7-0.5C144,272.4,144,272.2,144.1,272.1z M143,271.5
					c-0.4,0.1-0.9,0.4-1.2,1c0.3-0.1,0.5-0.2,0.8-0.3c0.1,0,0.2-0.1,0.3-0.1C142.9,271.9,142.9,271.7,143,271.5z"/>
			</g>
		</g>
		<g>
			<g>
				<path class="st7" d="M106.7,287.1c0,0-0.1-0.9-1.9-0.5c-1.8,0.4-3,0.8-3.6,0.7c-0.7-0.1-0.5,1.9-0.4,1.9c0.1,0.1,3,0.2,3.1,0.2
					C104.1,289.3,106.7,287.1,106.7,287.1z"/>
			</g>
			<g>
				<path class="st10" d="M107.4,290.2c0,0,0.9,0.5,0.8,2.2c-0.1,0.6-1.8,0.5-5.1,2.4c-3.3,1.9-7.9,3.6-13.3,1.2
					c-0.6-0.2-1.1-2.4,0.7-2.7C92.3,293.1,107.4,290.2,107.4,290.2z"/>
			</g>
			<g>
				<path class="st11" d="M99.9,289.1c0,0.4,0.5,0.7,1,0.7l4.3-0.3c0.5,0,0.9-0.4,0.8-0.8l-0.5-6c0-0.4-0.5-0.7-1-0.7l-4.3,0.3
					c-0.5,0-0.9,0.4-0.8,0.8L99.9,289.1z"/>
			</g>
			<g>
				<path class="st12" d="M106.7,287.1c0,0,1,2.8,1,3.4c-2.1,0.8-1.5,0.5-3.5,1.7c-2.1,1.2-10.4,4.7-14.3,1.8
					c-0.5-0.4,0.3-3.3,5.4-4.9c1-0.5,2.4-2.2,2.9-3.1c1-0.4,2.5,0.6,4.4,2C104.4,289.5,106.6,286.3,106.7,287.1z"/>
			</g>
			<g>
				<path class="st10" d="M97.3,289.9C97.2,289.9,97.2,289.9,97.3,289.9c-0.2-0.1-0.2-0.2-0.2-0.2c0,0,0.2-0.5,0-1.1
					c-0.7-0.1-1.1,0-1.2,0c-0.1,0-0.2,0-0.2-0.1c0-0.1,0-0.2,0.1-0.2c0,0,0.5-0.1,1-0.1c-0.1-0.1-0.2-0.3-0.4-0.4
					c0,0-0.1-0.1-0.1-0.2c0-0.1,0.1-0.1,0.1-0.1c0.3-0.1,0.7-0.1,1.2-0.1c-0.1-0.2-0.3-0.4-0.5-0.6c0,0-0.1-0.1-0.1-0.2
					c0-0.1,0.1-0.1,0.1-0.1c0.1,0,1.5-0.2,2.4,1c0,0,0,0.1,0,0.2c0,0.1-0.1,0.1-0.2,0.1c-0.5,0-0.8,0-1.2,0c0,0-0.1,0-0.1,0
					c0.1,0.3,0.1,0.6,0.1,0.9c0,0.1,0,0.1-0.1,0.1c0,0-0.1,0-0.2,0c-0.3-0.1-0.5-0.2-0.8-0.2c0.2,0.6-0.1,1.2-0.1,1.2
					C97.4,289.9,97.3,289.9,97.3,289.9z M97.4,288.3c0.3,0,0.5,0.1,0.8,0.2c0-0.2-0.1-0.4-0.1-0.6c-0.4,0-0.7,0-1,0
					C97.2,288,97.3,288.2,97.4,288.3z M98.3,287.5c0.1,0,0.2,0,0.3,0c0.2,0,0.5,0,0.8,0c-0.5-0.4-1.1-0.5-1.5-0.6
					C98.1,287.2,98.2,287.3,98.3,287.5z"/>
			</g>
		</g>
		<g>
			<polygon class="st6" points="111.8,201.9 107.8,202.2 107.6,204.9 108.2,207.7 112.3,207.3 			"/>
			
				<rect x="104" y="202.3" transform="matrix(0.9971 -7.574172e-02 7.574172e-02 0.9971 -15.2276 8.6167)" class="st11" width="4.1" height="5.5"/>
		</g>
		<g>
			<g>
				<g>
					<g>
						<path class="st13" d="M106.6,284.7l-8,0.6l-2.8-37.3l13.6,0.3c0,0-0.6,0.4-2,3.1C105.6,255.2,106.6,284.7,106.6,284.7z"/>
					</g>
				</g>
				<g>
					<path class="st14" d="M133.4,271.7l7.2-3.6c0,0-2.1-11-3.4-15.2c-1.6-4.8-11.8-15.9-11.8-15.9l-12.8,9.6c0,0,0.7,0,3.3,1.6
						c1.6,1,9.2,2.4,12.9,8.3C133.4,264,133.4,271.7,133.4,271.7z"/>
				</g>
				<g>
					<g>
						<g>
							<path class="st13" d="M94.9,236.2l1,12.8c0,0,11.6,0,15.5-0.3l0-5.6l-1.1-8L94.9,236.2z"/>
						</g>
					</g>
					<g>
						<path class="st14" d="M110.3,235l1,13.6c3.9-0.3,15.4-2.1,15.4-2.1l-1-12.8L110.3,235z"/>
					</g>
				</g>
			</g>
			<g>
				<path class="st14" d="M107.9,284.2c0,0.2-0.2,0.5-0.4,0.5l-10,0.8c-0.2,0-0.4-0.2-0.5-0.4l-0.3-3.3c0-0.2,0.2-0.5,0.4-0.5
					l10-0.8c0.2,0,0.4,0.2,0.5,0.4L107.9,284.2z"/>
			</g>
			<g>
				<path class="st15" d="M143.3,268.8c0.1,0.2,0,0.5-0.2,0.6l-9.2,4c-0.2,0.1-0.5,0-0.6-0.2l-1.3-3c-0.1-0.2,0-0.5,0.2-0.6l9.2-4
					c0.2-0.1,0.5,0,0.6,0.2L143.3,268.8z"/>
			</g>
		</g>
		<g>
			<path class="st2" d="M136.5,216c-6.6,2.3-14.3,1.1-19.3-1.7l4.5-8.1c3.3,1.8,10,2.8,14.1-0.1c4.5-3.2,4.4-10.3,3.4-15.7l9.1-1.6
				c2.5,14.5-2.5,21.5-7.2,24.8C139.7,214.6,138.2,215.4,136.5,216z"/>
		</g>
		<g>
			<g>
				<g>
					<path class="st3" d="M96.3,208.3c-2.7,0.2-4.8,2.4-4.5,6l3.3,25.2l15.5-1.2l-0.6-13.9l-1.7-17L96.3,208.3z"/>
				</g>
			</g>
			<g>
				<path class="st2" d="M125.6,211.8c-0.3-3.6-2.6-5.5-5.4-5.3l-12,0.9l2.4,30.9l15.4-1.2L125.6,211.8z"/>
			</g>
		</g>
		<g>
			<polygon class="st16" points="108.2,207 108,211.2 108.6,212.5 108.6,212.5 110.3,210.3 116.5,206.8 			"/>
			<polygon class="st17" points="100,208.1 106.6,210.7 108.6,212.5 108.2,207 			"/>
		</g>
		<g>
			<polygon class="st4" points="102.4,218.5 106.6,210.7 100,208.1 97.2,208.3 			"/>
		</g>
		<g>
			<polygon class="st18" points="115.8,217.5 110.3,210.3 116.5,206.8 119.4,206.6 			"/>
		</g>
		<g>
			<path class="st10" d="M100.9,239.1l-2.3-30.7c0-0.3-0.3-0.6-0.6-0.5l-1.7,0.1c-0.3,0-0.6,0.3-0.5,0.6l2.3,30.7L100.9,239.1z"/>
		</g>
		<g>
			<path class="st8" d="M122.8,237.5l-2.3-30.7c0-0.3-0.3-0.6-0.6-0.5l-1.7,0.1c-0.3,0-0.6,0.3-0.5,0.6l2.3,30.7L122.8,237.5z"/>
		</g>
		<g>
			<path class="st19" d="M101.7,240.6c0.1,0.7-0.5,1.3-1.2,1.4l-1.7,0.1c-0.7,0.1-1.3-0.5-1.4-1.2l-0.1-1.7
				c-0.1-0.7,0.5-1.3,1.2-1.4l1.7-0.1c0.7-0.1,1.3,0.5,1.4,1.2L101.7,240.6z"/>
		</g>
		<g>
			<path class="st20" d="M123.6,239c0.1,0.7-0.5,1.3-1.2,1.4l-1.7,0.1c-0.7,0.1-1.3-0.5-1.4-1.2l-0.1-1.7c-0.1-0.7,0.5-1.3,1.2-1.4
				l1.7-0.1c0.7-0.1,1.3,0.5,1.4,1.2L123.6,239z"/>
		</g>
		<g>
			<path class="st6" d="M124.5,182.3c0,1-0.2,2.3-1.3,2.3l0,0c-1,0-1.9-0.8-1.9-1.8l-0.1-6.2c0-1,0.8-1.9,1.8-1.9l0,0
				c1,0,2,0.8,1.9,1.8C124.8,177.9,124.4,179.5,124.5,182.3z"/>
			<path class="st11" d="M88.5,185c0.1,1,0.6,2.2,1.6,2.1l0,0c1-0.1,1.7-1.1,1.6-2.1l-0.8-6.1c-0.1-1-1.1-1.7-2.1-1.6l0,0
				c-1,0.1-1.8,1.1-1.6,2.1C87.5,180.8,88.2,182.2,88.5,185z"/>
			<g>
				<path class="st11" d="M122.7,186.1c0.4,4.8-2.4,9-7.2,9.4l-16,1.2c-4.8,0.4-8.2-3.3-8.6-8.2l-2.4-20.3c-0.4-4.8,2.4-9,7.2-9.4
					l17.8-1.4c4.8-0.4,8.2,3.3,8.6,8.2L122.7,186.1z"/>
				<g>
					<path class="st6" d="M113.4,157.4l-8.9,0.7l2.9,38l8-0.6c4.8-0.4,7.6-4.5,7.2-9.4l-0.7-20.5
						C121.6,160.8,118.2,157.1,113.4,157.4z"/>
				</g>
			</g>
			<g>
				<path class="st21" d="M99.2,191.1c-3.7,3.6-7.8-3.1-8.2-8.2l-1.7-14.5c-0.3,1-1.9-2.4-1.8,0l3.2,20.4
					c1.1,14,17.3,16.8,17.3,16.8l-0.3-9.8l-1-8C101.9,188.3,100.7,189.6,99.2,191.1z"/>
			</g>
			<g>
				<path class="st22" d="M114.7,189.9c4.2,3,7.2-4.3,6.8-9.4l-0.6-14.6c0.4,1,1.4-3.8,1.6-1.4l0,21.9c1.1,14-14.5,19.2-14.5,19.2
					l-1.4-17.8C111.6,187.5,113,188.7,114.7,189.9z"/>
			</g>
			<g>
				<path class="st6" d="M107.7,197.2c-4.8,0.4-6.1-4-6-4.3c0.1-0.4,0.6-0.6,1-0.5l0,0c0,0,4.5,1.1,8.7-0.7c0.4-0.2,0.9,0,1.1,0.3
					C112.8,192.4,111.7,196.9,107.7,197.2z"/>
			</g>
			<g>
				<path class="st22" d="M111,174.2c3.8-1.6,7.9-0.6,7.9-0.6c0.7,0.2,1.4-1.5,0.7-1.7c-0.2,0-5.2-1.6-10,0.3
					C108.9,172.4,110.3,174.4,111,174.2z"/>
			</g>
			<g>
				<path class="st21" d="M100.7,174.9c-0.9-0.3-1.8-0.9-3.2-0.8c-2.7,0.2-4.7,1.4-4.7,1.4c-0.7,0.3-1.6-1.3-1-1.5
					c0.1-0.1,2.4-1.6,5.5-1.9c1.4-0.1,3.3,0.2,4.5,0.7C102.4,173,101.4,175.2,100.7,174.9z"/>
			</g>
			<g>
				<path class="st11" d="M103.5,187.6c0.1,1,1.6,1.6,3.4,1.5l-1.6-19.5C104.3,171.2,103.5,187.6,103.5,187.6z"/>
				<path class="st6" d="M107.6,176.1c-1-4.1-1.7-6.1-2.3-6.5l1.5,19.5c0,0,0.1,0,0.1,0c1.8-0.1,3.2-1,3.1-2
					C110,187.1,109,181.8,107.6,176.1z"/>
			</g>
			
				<ellipse transform="matrix(0.9971 -7.611662e-02 7.611662e-02 0.9971 -14.0208 8.4735)" class="st11" cx="104.2" cy="188.2" rx="1.1" ry="0.9"/>
			
				<ellipse transform="matrix(0.9971 -7.587793e-02 7.587793e-02 0.9971 -13.9317 8.8482)" class="st6" cx="109.5" cy="187.8" rx="1.1" ry="0.9"/>
			<path class="st21" d="M103.9,150.6c-2.1,0-4.5,0.3-7.1,1.1c-7.2,2.1-6.1,6.8-6.1,6.8c-1.1-0.7-3.3,0-3.7,4.7
				c-0.4,4.9,1.6,8,1.6,8s0.6,0.2,0.6-2.5c-0.5-7,3.7-3.5,3.7-3.5s0.1-0.1,0.2-0.3c0,0,2.3-3.1,11.7-1l-0.1-6.9L103.9,150.6z"/>
			<g>
				<path class="st22" d="M103.9,150.6l1,13.2c12.5,2.9,18.1,4.7,17.7-0.3C122.2,158.1,119.1,150.1,103.9,150.6z"/>
			</g>
			<g>
				<path class="st23" d="M95.2,178.5c-0.1,0-0.1,0-0.2,0c-0.2-0.1-0.4-0.3-0.3-0.6c0-0.1,0.5-1.5,2.1-1.6c1.5-0.1,2.4,1.1,2.4,1.2
					c0.1,0.2,0.1,0.5-0.1,0.6c-0.2,0.1-0.5,0.1-0.6-0.1c0,0-0.6-0.9-1.6-0.8c-0.9,0.1-1.3,0.9-1.3,1
					C95.5,178.4,95.4,178.5,95.2,178.5z"/>
			</g>
			<g>
				<path class="st24" d="M112.6,177.2c-0.1,0-0.1,0-0.2,0c-0.2-0.1-0.3-0.4-0.2-0.6c0-0.1,0.7-1.4,2.2-1.5c1.5-0.1,2.3,1.2,2.3,1.2
					c0.1,0.2,0,0.5-0.2,0.6c-0.2,0.1-0.5,0-0.6-0.2c0,0-0.5-0.8-1.4-0.8c-1,0.1-1.4,1-1.5,1C112.9,177.1,112.8,177.2,112.6,177.2z"
					/>
			</g>
			<path class="st18" d="M102.7,194c0,0,1.2,2.8,4.6,2.8c1.9-0.1,3.8-2.1,4.1-3.4C107.4,193.7,102.7,194,102.7,194z"/>
			<path class="st17" d="M102.4,193c0,0,5.2,1,9.3-0.7c0.2,0.8-0.3,1.3-0.3,1.3s-3.5,1.7-8.6,0.5C102.5,193.7,102.4,193,102.4,193z"
				/>
		</g>
	</g>
</g>
</svg>
