<?xml version="1.0" encoding="utf-8"?>
<!-- Generator: Adobe Illustrator 19.2.0, SVG Export Plug-In . SVG Version: 6.00 Build 0)  -->
<svg version="1.1" id="Layer_1" xmlns="http://www.w3.org/2000/svg" xmlns:xlink="http://www.w3.org/1999/xlink" x="0px" y="0px"
	 viewBox="0 0 897.3 266.7" style="enable-background:new 0 0 897.3 266.7;" xml:space="preserve">
<style type="text/css">
	.st0{fill:#EEEEEE;}
	.st1{fill:#2F566C;}
	.st2{fill:#234050;}
	.st3{fill:#577789;}
	.st4{opacity:0.25;fill:#9CD7E6;enable-background:new    ;}
	.st5{fill:#2E566A;}
	.st6{fill:#97D6EA;}
	.st7{fill:#1CB2B8;}
	.st8{fill:#CCCCCC;}
	.st9{fill:#FFFFFF;}
	.st10{fill:#F2F2F2;}
	.st11{fill:#999999;}
	.st12{fill:#F7F7F7;}
	.st13{fill:#E6E6E6;}
	.st14{opacity:0.75;fill:#83AFB9;enable-background:new    ;}
	.st15{fill:#B3BAC2;}
	.st16{opacity:0.5;fill:#FFFFFF;enable-background:new    ;}
	.st17{fill:#2F475F;}
	.st18{fill:#78CEDC;}
	.st19{fill:#D2EDEF;}
	.st20{fill:#17868B;}
	.st21{fill:#23404F;}
	.st22{fill:#587887;}
	.st23{opacity:0.1;fill:#FFFFFF;enable-background:new    ;}
	.st24{fill:#4AC1C7;}
	.st25{opacity:0.5;fill:#1CB2B8;enable-background:new    ;}
	.st26{fill:#12A19A;}
	.st27{opacity:0.5;fill:#4AC1C7;enable-background:new    ;}
	.st28{font-family:'GillSansMT';}
	.st29{font-size:30px;}
	.st30{enable-background:new    ;}
	.st31{font-size:15.1111px;}
	.st32{font-size:13.3333px;}
	.st33{fill:none;}
	.st34{fill:none;stroke:#FFFFFF;stroke-width:0.8889;stroke-miterlimit:10;}
	.st35{opacity:0.1;fill:#231F20;enable-background:new    ;}
</style>
<g>
	<rect x="97.3" class="st0" width="800" height="266.7"/>
	<g>
		<path class="st1" d="M436.7,146.4c-2.2,0-4.4,0.8-6.1,2.5c-3.3,3.3-3.3,8.8,0,12.1c1.7,1.7,3.9,2.5,6.1,2.5c2.2,0,4.4-0.8,6.1-2.5
			c3.3-3.3,3.3-8.8,0-12.1C441.1,147.2,438.9,146.4,436.7,146.4z M440.6,158.9c-2.2,2.2-5.7,2.2-7.9,0s-2.2-5.7,0-7.9s5.7-2.2,7.9,0
			C442.8,153.2,442.8,156.7,440.6,158.9z"/>
		<path class="st2" d="M432.7,151c-2.2,2.2-2.2,5.7,0,7.9c2.2,2.2,5.7,2.2,7.9,0s2.2-5.7,0-7.9S434.9,148.8,432.7,151z M439.5,157.7
			c-1.6,1.6-4.1,1.6-5.6,0c-1.6-1.6-1.6-4.1,0-5.6c1.6-1.6,4.1-1.6,5.6,0S441,156.2,439.5,157.7z"/>
		<path class="st1" d="M449.2,160l1-3.8l-2.7-0.7c0-0.5,0-0.9,0-1.4l2.6-0.8l-1.1-3.8l-2.5,0.8c-0.2-0.5-0.5-1-0.9-1.5l1.8-1.8
			l-2.8-2.8l-1.8,1.8c-0.5-0.3-1-0.6-1.5-0.9l0.8-2.5l-3.8-1.1l-0.8,2.6c-0.3,0-0.5,0-0.8,0v2.3c2.2,0,4.4,0.8,6.1,2.5
			c3.3,3.3,3.3,8.8,0,12.1c-1.7,1.7-3.9,2.5-6.1,2.5v2.3c0.2,0,0.4,0,0.6,0l0.7,2.7l3.8-1l-0.7-2.6c0.6-0.3,1.2-0.6,1.7-1l1.9,1.9
			l2.8-2.8l-1.9-1.9c0.4-0.5,0.7-1.1,1-1.7L449.2,160z"/>
		<path class="st3" d="M436.7,163.5c-2.2,0-4.4-0.8-6.1-2.5c-3.3-3.3-3.3-8.8,0-12.1c1.7-1.7,3.9-2.5,6.1-2.5l0,0v-2.3l0,0
			c-0.2,0-0.4,0-0.6,0l-0.7-2.7l-3.8,1l0.7,2.6c-0.6,0.3-1.2,0.6-1.7,1l-1.9-1.9l-2.8,2.8l1.9,1.9c-0.4,0.5-0.7,1.1-1,1.7l-2.6-0.7
			l-1,3.8l2.7,0.7c0,0.5,0,0.9,0,1.4l-2.6,0.8l1.1,3.8l2.5-0.8c0.2,0.5,0.5,1,0.9,1.5l-1.8,1.8l2.8,2.8l1.8-1.8
			c0.5,0.3,1,0.6,1.5,0.9l-0.8,2.5l3.8,1.1l0.8-2.6c0.3,0,0.5,0,0.8,0l0,0L436.7,163.5L436.7,163.5z"/>
	</g>
	<path class="st1" d="M264.7,124.5l4-15.4l-10.8-2.8c0.1-1.8,0.1-3.7,0-5.6l10.5-3.2l-4.6-15.2l-10,3c-1-2.1-2.1-4.1-3.5-6.1
		l7.1-7.1l-11.2-11.2l-7.1,7.1c-1.9-1.3-4-2.5-6.1-3.5l3-10l-15.2-4.6l-3.2,10.5c-1.1-0.1-2.1,0-3.2,0l0,0c-0.8,0-1.6-0.1-2.3,0
		l-2.8-10.8l-15.4,4l2.7,10.6c-2.4,1.1-4.7,2.3-6.9,3.9l-7.4-7.4l-11.2,11.2l7.4,7.4c-1.5,2.2-2.8,4.5-3.9,6.9L164,83.5l-4,15.4
		l10.8,2.8c-0.1,1.8-0.1,3.7,0,5.6l-10.5,3.2l4.6,15.2l10-3c1,2.1,2.1,4.1,3.5,6.1l-7.1,7.1l11.2,11.2l7.1-7.1
		c1.9,1.3,4,2.5,6.1,3.5l-3,10l15.2,4.6l3.2-10.5c1.1,0.1,2.1,0,3.2,0l0,0c0.8,0,1.6,0.1,2.3,0l2.8,10.8l15.4-4l-2.7-10.6
		c2.4-1.1,4.7-2.3,6.9-3.9l7.4,7.4l11.2-11.2l-7.4-7.4c1.5-2.2,2.8-4.5,3.9-6.9L264.7,124.5z M214.4,133.3
		c-16.2,0-29.3-13.1-29.3-29.3s13.1-29.3,29.3-29.3c16.2,0,29.3,13.1,29.3,29.3S230.6,133.3,214.4,133.3z"/>
	<ellipse class="st4" cx="321.4" cy="210.1" rx="111.9" ry="45.6"/>
	<path class="st5" d="M400.3,156.5H241.9V55.3c0-2.3,2.1-4.2,4.6-4.2h149.2c2.6,0,4.6,1.9,4.6,4.2V156.5z"/>
	<g>
		<rect x="248.6" y="59.3" class="st6" width="145.3" height="83.2"/>
		<path class="st7" d="M394,59.3H248.6v83.2h145.3L394,59.3L394,59.3z"/>
	</g>
	<g>
		<path class="st8" d="M241.3,231c0.4,0.2,1,0.3,1.4,0.3h157.5c0.4,0,1-0.1,1.3-0.3l3.9-2.1H236.7L241.3,231z"/>
		<path class="st9" d="M405.2,225.7c0-0.2-0.4-0.4-0.8-0.4H237.7c-0.4,0-0.8,0.2-0.8,0.4l-0.2,3.2h168.8L405.2,225.7z"/>
		<path class="st10" d="M404.7,227.2H237.6c-0.5,0-0.8-0.3-0.8-0.8l5.1-74.6h158.4l5.1,74.6C405.5,226.8,405.2,227.2,404.7,227.2z"
			/>
		<polygon class="st11" points="256.5,172 265.9,172 266.2,164.5 256.9,164.5 		"/>
		<polygon class="st11" points="268.2,172 277.6,172 277.9,164.5 268.6,164.5 		"/>
		<polygon class="st11" points="280.3,172 289.7,172 289.9,164.5 280.6,164.5 		"/>
		<polygon class="st11" points="292,172 301.4,172 301.5,164.5 292.2,164.5 		"/>
		<polygon class="st11" points="280,182.4 289.4,182.4 289.6,174.9 280.2,174.9 		"/>
		<polygon class="st11" points="291.8,182.4 301.2,182.4 301.3,174.9 292,174.9 		"/>
		<polygon class="st11" points="279.3,202.8 288.9,202.8 289.1,195.3 279.6,195.3 		"/>
		<polygon class="st11" points="291.5,192.7 301,192.7 301.1,185.2 291.7,185.2 		"/>
		<polygon class="st11" points="256,182.4 276.9,182.4 277.2,174.9 256.4,174.9 		"/>
		<polygon class="st11" points="303.8,172 313.2,172 313.2,164.5 304,164.5 		"/>
		<polygon class="st11" points="315.6,172 324.9,172 324.9,164.5 315.6,164.5 		"/>
		<polygon class="st11" points="327.6,172 337,172 336.9,164.5 327.6,164.5 		"/>
		<polygon class="st11" points="339.4,172 348.7,172 348.5,164.5 339.2,164.5 		"/>
		<polygon class="st11" points="327.7,182.4 337.1,182.4 337,174.9 327.7,174.9 		"/>
		<polygon class="st11" points="339.5,182.4 348.9,182.4 348.8,174.9 339.4,174.9 		"/>
		<polygon class="st11" points="303.7,182.4 313.1,182.4 313.2,174.9 303.8,174.9 		"/>
		<polygon class="st11" points="315.5,182.4 324.9,182.4 324.9,174.9 315.6,174.9 		"/>
		<polygon class="st11" points="351.3,172 360.6,172 360.3,164.5 351.1,164.5 		"/>
		<polygon class="st11" points="363.3,172 372.7,172 372.3,164.5 363.1,164.5 		"/>
		<polygon class="st11" points="375,172 384.4,172 384,164.5 374.7,164.5 		"/>
		<polygon class="st11" points="363.7,182.4 373.1,182.4 372.8,174.9 363.4,174.9 		"/>
		<polygon class="st11" points="375.5,182.4 384.9,182.4 384.5,174.9 375.2,174.9 		"/>
		<polygon class="st11" points="351.5,182.4 360.9,182.4 360.7,174.9 351.3,174.9 		"/>
		<polygon class="st11" points="327.9,192.7 337.4,192.7 337.2,185.2 327.8,185.2 		"/>
		<polygon class="st11" points="339.8,192.7 349.3,192.7 349.1,185.2 339.7,185.2 		"/>
		<polygon class="st11" points="303.6,192.7 313.1,192.7 313.2,185.2 303.7,185.2 		"/>
		<polygon class="st11" points="315.6,192.7 325.1,192.7 325,185.2 315.6,185.2 		"/>
		<polygon class="st11" points="351.9,192.7 361.4,192.7 361.1,185.2 351.7,185.2 		"/>
		<polygon class="st11" points="352.4,202.8 362,202.8 361.7,195.3 352.2,195.3 		"/>
		<polygon class="st11" points="364.4,202.8 374,202.8 373.6,195.3 364.1,195.3 		"/>
		<polygon class="st11" points="376.6,202.8 386.2,202.8 385.8,195.3 376.3,195.3 		"/>
		<polygon class="st11" points="266.9,202.8 276.5,202.8 276.8,195.3 267.2,195.3 		"/>
		<polygon class="st11" points="254.9,202.8 264.5,202.8 264.8,195.3 255.3,195.3 		"/>
		<polygon class="st11" points="255.4,192.7 289.1,192.7 289.3,185.2 255.8,185.2 		"/>
		<polygon class="st11" points="364.1,192.7 385.5,192.7 385.1,185.2 363.8,185.2 		"/>
		<polygon class="st11" points="291.3,202.8 349.6,202.8 349.4,195.3 291.5,195.3 		"/>
		<polygon class="st9" points="256.6,170.7 265.9,170.7 266.3,163.2 257,163.2 		"/>
		<polygon class="st9" points="268.3,170.7 277.6,170.7 277.9,163.2 268.6,163.2 		"/>
		<polygon class="st9" points="280.4,170.7 289.7,170.7 289.9,163.2 280.6,163.2 		"/>
		<polygon class="st9" points="292.1,170.7 301.4,170.7 301.5,163.2 292.3,163.2 		"/>
		<polygon class="st9" points="280,181.1 289.4,181.1 289.6,173.6 280.3,173.6 		"/>
		<polygon class="st9" points="291.8,181.1 301.2,181.1 301.3,173.6 292,173.6 		"/>
		<polygon class="st9" points="279.3,201.5 288.9,201.5 289.1,194 279.6,194 		"/>
		<polygon class="st9" points="291.6,191.4 301,191.4 301.2,183.9 291.7,183.9 		"/>
		<polygon class="st9" points="256,181.1 277,181.1 277.2,173.6 256.4,173.6 		"/>
		<polygon class="st9" points="303.9,170.7 313.2,170.7 313.2,163.2 304,163.2 		"/>
		<polygon class="st9" points="315.6,170.7 324.9,170.7 324.9,163.2 315.6,163.2 		"/>
		<polygon class="st9" points="327.6,170.7 337,170.7 336.9,163.2 327.6,163.2 		"/>
		<polygon class="st9" points="339.3,170.7 348.7,170.7 348.5,163.2 339.2,163.2 		"/>
		<polygon class="st9" points="327.7,181.1 337.1,181.1 337,173.6 327.7,173.6 		"/>
		<polygon class="st9" points="339.5,181.1 348.9,181.1 348.7,173.6 339.4,173.6 		"/>
		<polygon class="st9" points="303.7,181.1 313.1,181.1 313.2,173.6 303.8,173.6 		"/>
		<polygon class="st9" points="315.5,181.1 324.9,181.1 324.9,173.6 315.6,173.6 		"/>
		<polygon class="st9" points="351.2,170.7 360.5,170.7 360.3,163.2 351,163.2 		"/>
		<polygon class="st9" points="363.3,170.7 372.6,170.7 372.3,163.2 363,163.2 		"/>
		<polygon class="st9" points="375,170.7 384.3,170.7 383.9,163.2 374.6,163.2 		"/>
		<polygon class="st9" points="363.7,181.1 373.1,181.1 372.7,173.6 363.4,173.6 		"/>
		<polygon class="st9" points="375.5,181.1 384.9,181.1 384.5,173.6 375.1,173.6 		"/>
		<polygon class="st9" points="351.5,181.1 360.9,181.1 360.6,173.6 351.3,173.6 		"/>
		<polygon class="st9" points="327.8,191.4 337.3,191.4 337.2,183.9 327.8,183.9 		"/>
		<polygon class="st9" points="339.8,191.4 349.2,191.4 349.1,183.9 339.6,183.9 		"/>
		<polygon class="st9" points="303.7,191.4 313.1,191.4 313.2,183.9 303.8,183.9 		"/>
		<polygon class="st9" points="315.6,191.4 325.1,191.4 325,183.9 315.6,183.9 		"/>
		<polygon class="st9" points="351.8,191.4 361.3,191.4 361.1,183.9 351.7,183.9 		"/>
		<polygon class="st9" points="352.3,201.5 361.9,201.5 361.7,194 352.1,194 		"/>
		<polygon class="st9" points="364.4,201.5 373.9,201.5 373.6,194 364.1,194 		"/>
		<polygon class="st9" points="376.5,201.5 386.1,201.5 385.7,194 376.2,194 		"/>
		<polygon class="st9" points="267,201.5 276.5,201.5 276.8,194 267.3,194 		"/>
		<polygon class="st9" points="254.9,201.5 264.5,201.5 264.9,194 255.4,194 		"/>
		<polygon class="st9" points="255.5,191.4 289.1,191.4 289.3,183.9 255.9,183.9 		"/>
		<polygon class="st9" points="364,191.4 385.4,191.4 385,183.9 363.8,183.9 		"/>
		<polygon class="st9" points="291.3,201.5 349.5,201.5 349.4,194 291.5,194 		"/>
		<polygon class="st9" points="256.6,171.2 265.9,171.2 266.3,163.7 257,163.7 		"/>
		<polygon class="st9" points="268.3,171.2 277.6,171.2 277.9,163.7 268.6,163.7 		"/>
		<polygon class="st9" points="280.3,171.2 289.7,171.2 289.9,163.7 280.6,163.7 		"/>
		<polygon class="st9" points="292.1,171.2 301.4,171.2 301.5,163.7 292.2,163.7 		"/>
		<polygon class="st9" points="280,181.6 289.4,181.6 289.6,174.1 280.2,174.1 		"/>
		<polygon class="st9" points="291.8,181.6 301.2,181.6 301.3,174.1 292,174.1 		"/>
		<polygon class="st9" points="279.3,202 288.9,202 289.1,194.5 279.6,194.5 		"/>
		<polygon class="st9" points="291.5,191.9 301,191.9 301.2,184.4 291.7,184.4 		"/>
		<polygon class="st9" points="256,181.6 276.9,181.6 277.2,174.1 256.4,174.1 		"/>
		<polygon class="st9" points="303.9,171.2 313.2,171.2 313.2,163.7 304,163.7 		"/>
		<polygon class="st9" points="315.6,171.2 324.9,171.2 324.9,163.7 315.6,163.7 		"/>
		<polygon class="st9" points="327.6,171.2 337,171.2 336.9,163.7 327.6,163.7 		"/>
		<polygon class="st9" points="339.3,171.2 348.7,171.2 348.5,163.7 339.2,163.7 		"/>
		<polygon class="st9" points="327.7,181.6 337.1,181.6 337,174.1 327.7,174.1 		"/>
		<polygon class="st12" points="339.5,181.6 348.9,181.6 348.7,174.1 339.4,174.1 		"/>
		<polygon class="st9" points="303.7,181.6 313.1,181.6 313.2,174.1 303.8,174.1 		"/>
		<polygon class="st9" points="315.5,181.6 324.9,181.6 324.9,174.1 315.6,174.1 		"/>
		<polygon class="st9" points="351.2,171.2 360.6,171.2 360.3,163.7 351,163.7 		"/>
		<polygon class="st9" points="363.3,171.2 372.6,171.2 372.3,163.7 363,163.7 		"/>
		<polygon class="st9" points="375,171.2 384.3,171.2 383.9,163.7 374.7,163.7 		"/>
		<polygon class="st11" points="257.1,160.9 266.4,160.9 266.6,157.2 257.3,157.2 		"/>
		<polygon class="st11" points="268.7,160.9 278,160.9 278.1,157.2 268.9,157.2 		"/>
		<polygon class="st11" points="280.7,160.9 290,160.9 290.1,157.2 280.8,157.2 		"/>
		<polygon class="st11" points="292.3,160.9 301.6,160.9 301.6,157.2 292.4,157.2 		"/>
		<polygon class="st11" points="304,160.9 313.3,160.9 313.3,157.2 304.1,157.2 		"/>
		<polygon class="st11" points="315.6,160.9 324.9,160.9 324.9,157.2 315.6,157.2 		"/>
		<polygon class="st11" points="327.6,160.9 336.8,160.9 336.8,157.2 327.6,157.2 		"/>
		<polygon class="st11" points="339.2,160.9 348.4,160.9 348.3,157.2 339.1,157.2 		"/>
		<polygon class="st11" points="351,160.9 360.2,160.9 360.1,157.2 350.9,157.2 		"/>
		<polygon class="st11" points="362.9,160.9 372.2,160.9 372,157.2 362.8,157.2 		"/>
		<polygon class="st11" points="374.5,160.9 383.8,160.9 383.6,157.2 374.4,157.2 		"/>
		<polygon class="st9" points="257.2,160.2 266.4,160.2 266.6,156.6 257.4,156.6 		"/>
		<polygon class="st9" points="268.8,160.2 278,160.2 278.2,156.6 268.9,156.6 		"/>
		<polygon class="st9" points="280.7,160.2 290,160.2 290.1,156.6 280.9,156.6 		"/>
		<polygon class="st9" points="292.3,160.2 301.6,160.2 301.6,156.6 292.4,156.6 		"/>
		<polygon class="st9" points="304,160.2 313.3,160.2 313.3,156.6 304.1,156.6 		"/>
		<polygon class="st9" points="315.6,160.2 324.9,160.2 324.8,156.6 315.6,156.6 		"/>
		<polygon class="st9" points="327.6,160.2 336.8,160.2 336.8,156.6 327.6,156.6 		"/>
		<polygon class="st9" points="339.2,160.2 348.4,160.2 348.3,156.6 339.1,156.6 		"/>
		<polygon class="st9" points="351,160.2 360.2,160.2 360.1,156.6 350.9,156.6 		"/>
		<polygon class="st9" points="362.9,160.2 372.2,160.2 372,156.6 362.8,156.6 		"/>
		<polygon class="st9" points="374.5,160.2 383.7,160.2 383.6,156.6 374.3,156.6 		"/>
		<polygon class="st9" points="257.2,160.5 266.4,160.5 266.6,156.9 257.4,156.9 		"/>
		<polygon class="st9" points="268.8,160.5 278,160.5 278.1,156.9 268.9,156.9 		"/>
		<polygon class="st9" points="280.7,160.5 290,160.5 290.1,156.9 280.9,156.9 		"/>
		<polygon class="st9" points="292.3,160.5 301.6,160.5 301.6,156.9 292.4,156.9 		"/>
		<polygon class="st9" points="304,160.5 313.3,160.5 313.3,156.9 304.1,156.9 		"/>
		<polygon class="st9" points="315.6,160.5 324.9,160.5 324.9,156.9 315.6,156.9 		"/>
		<polygon class="st9" points="327.6,160.5 336.8,160.5 336.8,156.9 327.6,156.9 		"/>
		<polygon class="st9" points="339.2,160.5 348.4,160.5 348.3,156.9 339.1,156.9 		"/>
		<polygon class="st9" points="351,160.5 360.2,160.5 360.1,156.9 350.9,156.9 		"/>
		<polygon class="st9" points="362.9,160.5 372.2,160.5 372,156.9 362.8,156.9 		"/>
		<polygon class="st9" points="374.5,160.5 383.8,160.5 383.6,156.9 374.4,156.9 		"/>
		<polygon class="st9" points="363.7,181.6 373.1,181.6 372.8,174.1 363.4,174.1 		"/>
		<polygon class="st9" points="375.5,181.6 384.9,181.6 384.5,174.1 375.1,174.1 		"/>
		<polygon class="st9" points="351.5,181.6 360.9,181.6 360.7,174.1 351.3,174.1 		"/>
		<polygon class="st9" points="327.8,191.9 337.3,191.9 337.2,184.4 327.8,184.4 		"/>
		<polygon class="st9" points="339.8,191.9 349.3,191.9 349.1,184.4 339.6,184.4 		"/>
		<polygon class="st9" points="303.6,191.9 313.1,191.9 313.2,184.4 303.8,184.4 		"/>
		<polygon class="st9" points="315.6,191.9 325.1,191.9 325,184.4 315.6,184.4 		"/>
		<polygon class="st9" points="351.9,191.9 361.4,191.9 361.1,184.4 351.7,184.4 		"/>
		<polygon class="st9" points="352.4,202 361.9,202 361.7,194.5 352.2,194.5 		"/>
		<polygon class="st9" points="364.4,202 373.9,202 373.6,194.5 364.1,194.5 		"/>
		<polygon class="st9" points="376.6,202 386.1,202 385.7,194.5 376.2,194.5 		"/>
		<polygon class="st9" points="266.9,202 276.5,202 276.8,194.5 267.3,194.5 		"/>
		<polygon class="st9" points="254.9,202 264.5,202 264.8,194.5 255.3,194.5 		"/>
		<polygon class="st9" points="255.4,191.9 289.1,191.9 289.3,184.4 255.8,184.4 		"/>
		<polygon class="st9" points="364.1,191.9 385.5,191.9 385.1,184.4 363.8,184.4 		"/>
		<polygon class="st9" points="291.3,202 349.5,202 349.4,194.5 291.5,194.5 		"/>
		<polygon class="st8" points="340.4,223.4 299.9,223.4 300.2,206 340.2,206 		"/>
		<path class="st13" d="M266.1,149.3h-15.4c-0.4,0-0.8,0.3-0.8,0.6l-0.2,3.3c0,0.4,0.3,0.6,0.8,0.6H266c0.4,0,0.8-0.3,0.8-0.6
			l0.2-3.3C266.9,149.6,266.6,149.3,266.1,149.3z"/>
		<g>
			<path class="st13" d="M393.6,149.3h-15.4c-0.4,0-0.8,0.3-0.8,0.6l0.2,3.3c0,0.4,0.4,0.6,0.8,0.6h15.4c0.4,0,0.8-0.3,0.8-0.6
				l-0.2-3.3C394.4,149.6,394,149.3,393.6,149.3z"/>
		</g>
		<path class="st9" d="M266.1,149.3h-15.4c-0.4,0-0.8,0.3-0.8,0.6l-0.1,1.7h17l0.1-1.7C266.9,149.6,266.6,149.3,266.1,149.3z"/>
		<path class="st9" d="M393.6,149.3h-15.4c-0.4,0-0.8,0.3-0.8,0.6l0.1,1.7h17l-0.1-1.7C394.4,149.6,394,149.3,393.6,149.3z"/>
	</g>
	<polygon class="st14" points="331.6,35.2 331.6,31.2 335.6,31.2 335.6,30.3 331.6,30.3 331.6,26.3 330.7,26.3 330.7,30.3 
		326.7,30.3 326.7,31.2 330.7,31.2 330.7,35.2 	"/>
	<polygon class="st14" points="458.5,175.8 461.3,173 464.2,175.8 464.8,175.1 462,172.3 464.8,169.5 464.2,168.9 461.3,171.7 
		458.5,168.9 457.9,169.5 460.7,172.3 457.9,175.1 	"/>
	<path class="st9" d="M267.8,67.6L267.8,67.6c-0.9,0-1.6-0.7-1.6-1.6l0,0c0-0.9,0.7-1.6,1.6-1.6l0,0c0.9,0,1.6,0.7,1.6,1.6l0,0
		C269.5,66.8,268.7,67.6,267.8,67.6z"/>
	<path class="st9" d="M262.6,67.6L262.6,67.6c-0.9,0-1.6-0.7-1.6-1.6l0,0c0-0.9,0.7-1.6,1.6-1.6l0,0c0.9,0,1.6,0.7,1.6,1.6l0,0
		C264.2,66.8,263.5,67.6,262.6,67.6z"/>
	<path class="st9" d="M257,67.6L257,67.6c-0.9,0-1.6-0.7-1.6-1.6l0,0c0-0.9,0.7-1.6,1.6-1.6l0,0c0.9,0,1.6,0.7,1.6,1.6l0,0
		C258.7,66.8,257.9,67.6,257,67.6z"/>
	<g>
		<path class="st9" d="M323.8,55.1c0,1.4-1.1,2.5-2.5,2.5l0,0c-1.4,0-2.5-1.1-2.5-2.5l0,0c0-1.4,1.1-2.5,2.5-2.5l0,0
			C322.7,52.6,323.8,53.7,323.8,55.1L323.8,55.1z"/>
		<path class="st15" d="M321.3,53.3c1,0,1.8,0.8,1.8,1.8s-0.8,1.8-1.8,1.8s-1.8-0.8-1.8-1.8C319.6,54.1,320.4,53.3,321.3,53.3
			 M321.3,52.6c-1.4,0-2.5,1.1-2.5,2.5s1.1,2.5,2.5,2.5s2.5-1.1,2.5-2.5S322.7,52.6,321.3,52.6L321.3,52.6z"/>
	</g>
	<g>
		<rect x="260.3" y="111.4" class="st9" width="44.5" height="1.5"/>
		<rect x="308.6" y="111.4" class="st16" width="22.6" height="1.5"/>
		<rect x="307" y="80.4" class="st9" width="22.6" height="1.5"/>
		<rect x="350.9" y="70.5" class="st9" width="22.6" height="1.5"/>
		<rect x="309.6" y="85.4" class="st16" width="38.1" height="1.5"/>
		<rect x="309.6" y="70.5" class="st9" width="38.1" height="1.5"/>
		<rect x="260.3" y="106.4" class="st9" width="44.5" height="1.5"/>
		<rect x="342.5" y="101.4" class="st9" width="44.5" height="1.5"/>
		<rect x="260.3" y="101.4" class="st9" width="78.9" height="1.5"/>
		<rect x="312.5" y="91.5" class="st9" width="78.9" height="1.5"/>
		<rect x="260.3" y="96.5" class="st16" width="51.3" height="1.5"/>
		<rect x="260.3" y="91.5" class="st9" width="44.5" height="1.5"/>
		<rect x="259.6" y="85.4" class="st9" width="44.5" height="1.5"/>
		<rect x="259.6" y="80.5" class="st9" width="44.5" height="1.5"/>
		<rect x="259.6" y="75.4" class="st9" width="23.6" height="1.5"/>
		<rect x="259.6" y="70.6" class="st9" width="44.5" height="1.5"/>
		<rect x="259.6" y="65.6" class="st9" width="44.5" height="1.5"/>
	</g>
	<g>
		<rect x="307" y="131.7" class="st16" width="22.6" height="1.5"/>
		<rect x="350.9" y="121.8" class="st16" width="22.6" height="1.5"/>
		<rect x="309.6" y="121.8" class="st9" width="38.1" height="1.5"/>
		<rect x="259.6" y="131.9" class="st9" width="44.5" height="1.5"/>
		<rect x="259.6" y="126.8" class="st9" width="23.6" height="1.5"/>
		<rect x="259.6" y="121.9" class="st16" width="44.5" height="1.5"/>
		<rect x="259.6" y="116.9" class="st9" width="44.5" height="1.5"/>
	</g>
	<g>
		<path class="st1" d="M267,59.9c0-12,9.7-21.7,21.7-21.7v-3.3c-0.4,0-0.9,0-1.3,0l-1.7-6.2l-8.9,2.3l1.6,6.1
			c-1.4,0.6-2.7,1.3-4,2.2l-4.3-4.3l-6.5,6.5l4.3,4.3c-0.9,1.3-1.6,2.6-2.2,4l-6.1-1.6l-2.3,8.9l6.2,1.6c-0.1,1.1-0.1,2.1,0,3.2
			l-6.1,1.8l2.6,8.7l5.7-1.7c0.6,1.2,1.2,2.4,2,3.5l-4.1,4.1l6.5,6.5l4.1-4.1c1.1,0.8,2.3,1.4,3.5,2l-1.7,5.7l8.7,2.6l1.8-6.1
			c0.6,0,1.2,0,1.8,0v-3.3C276.7,81.6,267,71.9,267,59.9z"/>
		<path class="st1" d="M317.6,71.7l2.3-8.9l-6.2-1.6c0.1-1.1,0.1-2.1,0-3.2l6.1-1.8l-2.6-8.7l-5.7,1.7c-0.6-1.2-1.2-2.4-2-3.5
			l4.1-4.1l-6.5-6.5l-4.1,4.1c-1.1-0.8-2.3-1.4-3.5-2l1.7-5.7l-8.7-2.6l-1.8,6.1c-0.6,0-1.2,0-1.8,0v3.3l0,0
			c12,0,21.7,9.7,21.7,21.7s-9.7,21.7-21.7,21.7l0,0V85c0.4,0,0.9,0,1.3,0l1.6,6.2l8.8-2.3l-1.6-6.1c1.4-0.6,2.7-1.3,4-2.2l4.3,4.3
			l6.5-6.5l-4.3-4.3c0.9-1.3,1.6-2.6,2.2-4L317.6,71.7z"/>
		<path class="st17" d="M301.5,59.9c0,0.8-0.1,1.6-0.2,2.4C301.4,61.5,301.5,60.7,301.5,59.9z"/>
		<path class="st17" d="M288.7,47.1L288.7,47.1c0.8,0,1.6,0.1,2.4,0.2C290.3,47.2,289.5,47.1,288.7,47.1z"/>
		<path class="st17" d="M275.9,60.1c0-0.1,0-0.1,0-0.2C275.8,60,275.9,60,275.9,60.1z"/>
		<path class="st2" d="M295.7,70.6c0.7-0.5,1.4-1,2-1.6c1.9-1.9,3.1-4.2,3.5-6.6c0.2-0.8,0.2-1.6,0.2-2.4c0-0.8-0.1-1.6-0.2-2.4
			c-0.5-2.4-1.6-4.7-3.5-6.6c-0.6-0.6-1.3-1.2-2-1.6c-1.4-0.9-3-1.6-4.6-1.9c-0.8-0.2-1.6-0.2-2.4-0.2c-3.3,0-6.6,1.3-9.1,3.8
			s-3.8,5.8-3.8,9.1c0,0.1,0,0.1,0,0.2c0.1,3.2,1.3,6.4,3.7,8.9c0.5,0.5,1.1,0.9,1.6,1.3C285.6,73.4,291.3,73.5,295.7,70.6z
			 M282.2,53.4c3.6-3.6,9.4-3.6,13,0s3.6,9.4,0,13s-9.4,3.6-13,0C278.6,62.8,278.6,57,282.2,53.4z"/>
		<path class="st2" d="M267,59.9c0,12,9.7,21.7,21.7,21.7v-8.9c-2.6,0-5.2-0.8-7.4-2.4c-0.6-0.4-1.1-0.8-1.6-1.3
			c-2.4-2.5-3.7-5.6-3.7-8.9c0-0.1,0-0.1,0-0.2c0-3.3,1.3-6.6,3.8-9.1s5.8-3.8,9.1-3.8l0,0v-8.9C276.7,38.2,267,47.9,267,59.9z"/>
		<path class="st17" d="M288.7,47.1c-3.3,0-6.6,1.3-9.1,3.8s-3.8,5.8-3.8,9.1c0-3.3,1.3-6.6,3.8-9.1
			C282.1,48.3,285.4,47.1,288.7,47.1z"/>
		<path class="st17" d="M275.9,60.1c0.1,3.2,1.3,6.4,3.7,8.9c0.5,0.5,1.1,0.9,1.6,1.3c-0.6-0.4-1.1-0.8-1.6-1.3
			C277.1,66.5,275.9,63.3,275.9,60.1z"/>
		<path class="st1" d="M291.1,47.3c1.6,0.3,3.2,0.9,4.6,1.9c0.7,0.5,1.4,1,2,1.6c1.9,1.9,3.1,4.2,3.5,6.6c0.2,0.8,0.2,1.6,0.2,2.4
			c0,0.8-0.1,1.6-0.2,2.4c-0.5,2.4-1.6,4.7-3.5,6.6c-0.6,0.6-1.3,1.2-2,1.6c-2.1,1.4-4.6,2.1-7.1,2.1v8.9l0,0
			c12,0,21.7-9.7,21.7-21.7S300.6,38,288.6,38l0,0v8.9C289.5,47.1,290.3,47.2,291.1,47.3z"/>
		<path class="st17" d="M291.1,47.3c1.6,0.3,3.2,0.9,4.6,1.9C294.3,48.2,292.7,47.6,291.1,47.3z"/>
		<path class="st17" d="M301.2,57.4c-0.5-2.4-1.6-4.7-3.5-6.6c-0.6-0.6-1.3-1.2-2-1.6c0.7,0.5,1.4,1,2,1.6
			C299.6,52.7,300.8,55,301.2,57.4z"/>
		<path class="st17" d="M301.2,57.4c0.2,0.8,0.2,1.6,0.2,2.4C301.5,59.1,301.4,58.3,301.2,57.4z"/>
	</g>
	<g>
		<path class="st13" d="M292.6,25h-85.8c-1.8,0-3.2,1.4-3.2,3.2v4.9v73.4c0,1.8,1.4,3.2,3.2,3.2h85.8c1.8,0,3.2-1.4,3.2-3.2V33.1
			v-4.9C295.8,26.4,294.4,25,292.6,25z"/>
		<path class="st9" d="M199.1,27.3v73.4c0,1.8,1.4,3.2,3.2,3.2h85.8c1.8,0,3.2-1.4,3.2-3.2V27.3H199.1z"/>
		<path class="st1" d="M288.1,19.3h-85.8c-1.8,0-3.2,1.4-3.2,3.2v4.9h92.2v-4.9C291.3,20.7,289.9,19.3,288.1,19.3z"/>
		<path class="st9" d="M212.4,25.1L212.4,25.1c-0.8,0-1.5-0.7-1.5-1.5l0,0c0-0.8,0.7-1.5,1.5-1.5l0,0c0.8,0,1.5,0.7,1.5,1.5l0,0
			C213.9,24.4,213.3,25.1,212.4,25.1z"/>
		<path class="st9" d="M207.8,25.1L207.8,25.1c-0.8,0-1.5-0.7-1.5-1.5l0,0c0-0.8,0.7-1.5,1.5-1.5l0,0c0.8,0,1.5,0.7,1.5,1.5l0,0
			C209.2,24.4,208.6,25.1,207.8,25.1z"/>
		<path class="st9" d="M202.8,25.1L202.8,25.1c-0.8,0-1.5-0.7-1.5-1.5l0,0c0-0.8,0.7-1.5,1.5-1.5l0,0c0.8,0,1.5,0.7,1.5,1.5l0,0
			C204.2,24.4,203.6,25.1,202.8,25.1z"/>
		<g>
			<rect x="206.4" y="93.6" class="st18" width="25.6" height="2"/>
			<rect x="234.2" y="93.6" class="st19" width="13" height="2"/>
			<rect x="233.3" y="53" class="st18" width="13" height="2"/>
			<rect x="258.5" y="40" class="st18" width="13" height="2"/>
			<rect x="234.7" y="59.5" class="st19" width="21.9" height="2"/>
			<rect x="234.7" y="40" class="st18" width="21.9" height="2"/>
			<rect x="206.4" y="87.1" class="st18" width="25.6" height="2"/>
			<rect x="253.6" y="80.5" class="st18" width="25.6" height="2"/>
			<rect x="206.4" y="80.5" class="st18" width="45.3" height="2"/>
			<rect x="236.4" y="67.6" class="st18" width="45.3" height="2"/>
			<rect x="206.4" y="74.1" class="st19" width="29.4" height="2"/>
			<rect x="206.4" y="67.6" class="st18" width="25.6" height="2"/>
			<rect x="206" y="59.5" class="st18" width="25.6" height="2"/>
			<rect x="206" y="53" class="st18" width="25.6" height="2"/>
			<rect x="206" y="46.4" class="st18" width="13.6" height="2"/>
			<rect x="206" y="40" class="st19" width="25.6" height="2"/>
			<rect x="206" y="33.5" class="st18" width="25.6" height="2"/>
		</g>
	</g>
	<g>
		<path class="st13" d="M474.4,106.3h-52.5c-1.1,0-1.9,0.9-1.9,2v3v44.9c0,1.1,0.9,2,2,2h52.5c1.1,0,1.9-0.9,1.9-2v-44.9v-3
			C476.3,107.2,475.5,106.3,474.4,106.3z"/>
		<path class="st9" d="M417.2,107.7v45c0,1.1,0.9,2,2,2h52.5c1.1,0,2-0.9,2-2v-45H417.2z"/>
		<path class="st1" d="M471.6,102.8h-52.5c-1.1,0-1.9,0.9-1.9,1.9v3h56.4v-3C473.6,103.7,472.7,102.8,471.6,102.8z"/>
		<path class="st9" d="M425.3,106.4L425.3,106.4c-0.5,0-0.9-0.4-0.9-0.9l0,0c0-0.5,0.4-0.9,0.9-0.9l0,0c0.5,0,0.9,0.4,0.9,0.9l0,0
			C426.2,106,425.8,106.4,425.3,106.4z"/>
		<path class="st9" d="M422.5,106.4L422.5,106.4c-0.5,0-0.9-0.4-0.9-0.9l0,0c0-0.5,0.4-0.9,0.9-0.9l0,0c0.5,0,0.9,0.4,0.9,0.9l0,0
			C423.4,106,423,106.4,422.5,106.4z"/>
		<path class="st9" d="M419.4,106.4L419.4,106.4c-0.5,0-0.9-0.4-0.9-0.9l0,0c0-0.5,0.4-0.9,0.9-0.9l0,0c0.5,0,0.9,0.4,0.9,0.9l0,0
			C420.3,106,419.9,106.4,419.4,106.4z"/>
		<g>
			<rect x="421.7" y="148.3" class="st18" width="15.6" height="1.2"/>
			<rect x="438.6" y="148.3" class="st19" width="7.9" height="1.2"/>
			<rect x="438.1" y="123.4" class="st18" width="7.9" height="1.2"/>
			<rect x="453.5" y="115.5" class="st18" width="7.9" height="1.2"/>
			<rect x="439" y="127.4" class="st19" width="13.4" height="1.2"/>
			<rect x="439" y="115.5" class="st18" width="13.4" height="1.2"/>
			<rect x="421.7" y="144.3" class="st18" width="15.6" height="1.2"/>
			<rect x="450.5" y="140.3" class="st18" width="15.6" height="1.2"/>
			<rect x="421.7" y="140.3" class="st18" width="27.7" height="1.2"/>
			<rect x="440" y="132.4" class="st18" width="27.7" height="1.2"/>
			<rect x="421.7" y="136.4" class="st19" width="18" height="1.2"/>
			<rect x="421.7" y="132.4" class="st18" width="15.6" height="1.2"/>
			<rect x="421.5" y="127.5" class="st18" width="15.6" height="1.2"/>
			<rect x="421.5" y="123.5" class="st18" width="15.6" height="1.2"/>
			<rect x="421.4" y="119.5" class="st18" width="8.3" height="1.2"/>
			<rect x="421.5" y="115.5" class="st19" width="15.6" height="1.2"/>
			<rect x="421.5" y="111.6" class="st18" width="15.6" height="1.2"/>
		</g>
	</g>
	<g>
		<g>
			<path class="st17" d="M205.9,96.1c-4.4,4.4-4.4,11.6,0,16c4.4,4.4,11.6,4.4,16,0s4.4-11.6,0-16S210.3,91.7,205.9,96.1z
				 M208.2,98.3c3.2-3.2,8.3-3.2,11.4,0c3.2,3.2,3.2,8.3,0,11.4c-3.2,3.2-8.3,3.2-11.4,0C205,106.6,205,101.5,208.2,98.3z"/>
			<g>
				<path class="st7" d="M239.4,114.4l2-7.8l-5.5-1.4c0.1-0.9,0-1.9,0-2.8l5.3-1.6l-2.3-7.7l-5.1,1.5c-0.5-1.1-1.1-2.1-1.8-3.1
					l3.6-3.6l-5.7-5.7l-3.6,3.6c-1-0.7-2-1.3-3.1-1.8l1.5-5.1l-7.7-2.3l-1.6,5.3c-0.5,0-1.1,0-1.6,0v10.7c2.9,0,5.8,1.1,8,3.3
					c4.4,4.4,4.4,11.6,0,16c-2.2,2.2-5.1,3.3-8,3.3v10.7c0.4,0,0.8,0,1.2,0l1.4,5.5l7.8-2l-1.4-5.3c1.2-0.5,2.4-1.2,3.5-2l3.8,3.8
					l5.7-5.7l-3.8-3.8c0.8-1.1,1.4-2.3,2-3.5L239.4,114.4z"/>
				<path class="st20" d="M205.9,112c-4.4-4.4-4.4-11.6,0-16c2.2-2.2,5.1-3.3,8-3.3V82c-0.4,0-0.8,0-1.2,0l-1.4-5.5l-7.8,2l1.4,5.3
					c-1.2,0.5-2.4,1.2-3.5,2l-3.8-3.8l-5.7,5.7l3.8,3.8c-0.8,1.1-1.4,2.3-2,3.5l-5.3-1.4l-2,7.8l5.5,1.4c0,0.9,0,1.9,0,2.8l-5.3,1.6
					l2.3,7.7l5.1-1.5c0.5,1.1,1.1,2.1,1.8,3.1l-3.6,3.6l5.7,5.7l3.6-3.6c1,0.7,2,1.3,3.1,1.8l-1.5,5.1l7.7,2.3l1.6-5.3
					c0.5,0,1.1,0,1.6,0v-10.7C211,115.4,208.1,114.2,205.9,112z"/>
			</g>
			<path class="st7" d="M213.9,121.4c4.4,0,8.9-1.7,12.3-5.1c6.8-6.8,6.8-17.8,0-24.6c-3.4-3.4-7.8-5.1-12.3-5.1
				c-4.4,0-8.9,1.7-12.3,5.1c-6.8,6.8-6.8,17.8,0,24.6C205,119.7,209.5,121.4,213.9,121.4z M205.9,96.1c4.4-4.4,11.6-4.4,16,0
				s4.4,11.6,0,16s-11.6,4.4-16,0C201.5,107.6,201.5,100.5,205.9,96.1z"/>
		</g>
		<g>
			<path class="st1" d="M227,104.3c0-1.4-0.2-2.7-0.6-4c0,0,0,0,0-0.1s-0.1-0.3-0.1-0.4c-0.6-1.8-1.6-3.6-3.1-5.1
				c-5.1-5.1-13.3-5.1-18.3,0c-1.5,1.5-2.5,3.2-3.1,5.1c0,0.1-0.1,0.3-0.1,0.4c0,0,0,0,0,0.1c-0.1,0.4-0.2,0.7-0.3,1.1
				c-0.2,0.9-0.3,1.9-0.3,2.9c0,3.8,1.6,7.3,4.3,9.7c0.9,0.8,1.9,1.5,2.9,2v16.4v32.8c-3,1.9-4.9,5.3-4.9,9.1c0,0.4,0,0.8,0.1,1.2
				c0.1,1.3,0.5,2.5,1.1,3.7c0.6,1.3,1.5,2.4,2.6,3.3l0,0l0,0v-7.6l7.1-4.1l0,0l7.1,4.1v7.6c2.3-2,3.7-4.9,3.7-8.2
				c0-3.8-2-7.1-4.9-9.1v-49.3C224.1,113.8,227,109.4,227,104.3z M221.1,108.1l-7.2,4.2l-7.2-4.2v-8.4l7.2-4.2l7.2,4.2V108.1z"/>
			<g>
				<polygon class="st21" points="206.7,99.8 206.7,108.2 213.9,112.4 213.9,113.9 205.4,109 205.4,99.2 213.9,94.3 213.9,95.7 				
					"/>
				<polygon class="st22" points="222.4,109 213.9,113.9 213.9,112.4 221.1,108.2 221.1,99.8 213.9,95.7 213.9,94.3 222.4,99.2 				
					"/>
			</g>
			<g>
				<path class="st21" d="M213.9,169.8v1l-7.1,4.1v7.6l0,0l0,0c-0.3-0.2-0.5-0.5-0.8-0.8v-7.3L213.9,169.8z"/>
				<path class="st22" d="M213.9,169.8L213.9,169.8l7.9,4.5v7.3c-0.2,0.3-0.5,0.5-0.8,0.7v-7.6l-7.1-4.1l0,0l0,0L213.9,169.8
					L213.9,169.8z"/>
			</g>
			<path class="st23" d="M206.7,99.8v8.4l7.2,4.2v58.5l-7.1,4.1v7.6l0,0l0,0c-1.1-0.9-1.9-2-2.6-3.3c-0.6-1.1-1-2.4-1.1-3.7
				c0-0.4-0.1-0.8-0.1-1.2c0-3.8,2-7.1,4.9-9.1v-32.8v-16.4c-1.1-0.5-2-1.2-2.9-2c-2.6-2.4-4.3-5.8-4.3-9.7c0-1,0.1-1.9,0.3-2.9
				c0.1-0.4,0.2-0.7,0.3-1.1c0,0,0,0,0-0.1s0.1-0.3,0.1-0.4c0.6-1.8,1.6-3.6,3.1-5.1c2.5-2.5,5.9-3.8,9.2-3.8v4.6L206.7,99.8z"/>
		</g>
	</g>
	<g>
		<path class="st13" d="M464.6,84.6h-100c-1.2,0-2.1,1-2.1,2.1V90v49.4c0,1.2,1,2.1,2.1,2.1h100c1.2,0,2.1-1,2.1-2.1V90v-3.3
			C466.7,85.6,465.8,84.6,464.6,84.6z"/>
		<path class="st1" d="M463.7,135.6c0,1.2-1,2.1-2.1,2.1h-100c-1.2,0-2.1-1-2.1-2.1V86.2h104.2V135.6z"/>
		<path class="st9" d="M461.6,80.8h-100c-1.2,0-2.1,1-2.1,2.1v3.3h104.2v-3.3C463.7,81.7,462.8,80.8,461.6,80.8z"/>
		<path class="st1" d="M368.4,84.7L368.4,84.7c-0.5,0-1-0.4-1-1l0,0c0-0.5,0.4-1,1-1l0,0c0.5,0,1,0.4,1,1l0,0
			C369.4,84.2,368.9,84.7,368.4,84.7z"/>
		<path class="st1" d="M365.2,84.7L365.2,84.7c-0.5,0-1-0.4-1-1l0,0c0-0.5,0.4-1,1-1l0,0c0.5,0,1,0.4,1,1l0,0
			C366.2,84.2,365.7,84.7,365.2,84.7z"/>
		<path class="st1" d="M361.8,84.7L361.8,84.7c-0.5,0-1-0.4-1-1l0,0c0-0.5,0.4-1,1-1l0,0c0.5,0,1,0.4,1,1l0,0
			C362.8,84.2,362.4,84.7,361.8,84.7z"/>
		<g>
			<rect x="398.1" y="125.3" class="st9" width="6.8" height="1.3"/>
			<rect x="385.8" y="125.3" class="st9" width="11.4" height="1.3"/>
			<rect x="382.1" y="121.1" class="st9" width="23.7" height="1.3"/>
			<rect x="370.7" y="121.2" class="st9" width="7.1" height="1.3"/>
			<rect x="370.7" y="125.3" class="st9" width="13.4" height="1.3"/>
			<rect x="370.7" y="129.6" class="st9" width="13.4" height="1.3"/>
		</g>
		<g>
			<rect x="419.7" y="129.8" class="st9" width="13.4" height="1.3"/>
			<rect x="434.2" y="129.8" class="st9" width="6.8" height="1.3"/>
			<rect x="433.7" y="103.3" class="st9" width="6.8" height="1.3"/>
			<rect x="446.9" y="94.9" class="st9" width="6.8" height="1.3"/>
			<rect x="434.5" y="107.6" class="st9" width="11.4" height="1.3"/>
			<rect x="434.5" y="94.9" class="st9" width="11.4" height="1.3"/>
			<rect x="419.7" y="125.5" class="st9" width="13.4" height="1.3"/>
			<rect x="444.4" y="121.2" class="st9" width="13.4" height="1.3"/>
			<rect x="419.7" y="121.2" class="st9" width="23.7" height="1.3"/>
			<rect x="435.4" y="112.8" class="st9" width="23.7" height="1.3"/>
			<rect x="419.7" y="117.1" class="st9" width="15.4" height="1.3"/>
			<rect x="419.7" y="112.8" class="st9" width="13.4" height="1.3"/>
			<rect x="419.5" y="107.6" class="st9" width="13.4" height="1.3"/>
			<rect x="419.5" y="103.4" class="st9" width="13.4" height="1.3"/>
			<rect x="419.5" y="99.1" class="st9" width="7.1" height="1.3"/>
			<rect x="419.5" y="94.9" class="st9" width="13.4" height="1.3"/>
			<rect x="419.5" y="90.7" class="st9" width="13.4" height="1.3"/>
		</g>
	</g>
	<g>
		<g>
			<polygon class="st7" points="460.8,77.7 411.5,77.7 436.1,102.4 			"/>
			<polygon class="st20" points="460.8,77.7 448.4,77.7 436.1,102.4 436.1,102.4 			"/>
			<polygon class="st24" points="448.5,65.4 423.8,65.4 411.5,77.7 460.8,77.7 			"/>
			<polygon class="st25" points="436.1,102.4 436.1,77.7 448.4,90.1 			"/>
			<polygon class="st7" points="436.1,102.4 436.1,77.7 423.8,90.1 			"/>
			<polygon class="st7" points="436.1,102.3 436.1,77.7 436.1,77.7 427.9,85.9 			"/>
			<polygon class="st26" points="448.5,65.4 436.1,65.4 436.1,77.7 460.8,77.7 			"/>
			<polygon class="st7" points="448.5,65.4 423.8,65.4 436.1,77.7 			"/>
			<polygon class="st7" points="423.8,65.4 436.1,77.7 436.1,65.4 			"/>
			<polygon class="st7" points="423.8,77.7 436.1,77.7 436.1,65.4 			"/>
			<polygon class="st27" points="448.5,65.4 448.5,90.1 436.1,77.7 			"/>
			<polygon class="st24" points="411.5,77.7 423.8,77.7 436.1,102.4 436.1,102.4 			"/>
			<polygon class="st24" points="423.8,77.7 448.5,77.7 436.1,65.4 			"/>
			<polygon class="st27" points="423.8,65.4 423.8,90.1 436.1,77.7 			"/>
		</g>
		<path class="st9" d="M428.7,51L428.7,51c-0.9,0.8-1.4,1.9-1.5,3.1l-0.2,3.3l-0.2-3.3c-0.1-1.2-0.7-2.2-1.5-3l0,0
			c-0.8-0.8-1.9-1.4-3-1.5l-3.3-0.2l3.3-0.2c1.2-0.1,2.2-0.7,3-1.5l0,0c0.8-0.8,1.4-1.9,1.5-3l0.2-3.3l0.2,3.3
			c0.1,1.2,0.7,2.2,1.5,3l0,0c0.8,0.8,1.9,1.4,3,1.5l3.3,0.2l-3.3,0.2C430.6,49.6,429.5,50.2,428.7,51z"/>
		<path class="st9" d="M440.6,59.1L440.6,59.1c-0.5,0.5-0.8,1.1-0.8,1.7l-0.1,1.9l-0.1-1.9c0-0.7-0.4-1.2-0.8-1.7l0,0
			c-0.5-0.5-1-0.8-1.7-0.8l-1.9-0.1l1.9-0.1c0.7,0,1.2-0.4,1.7-0.8l0,0c0.5-0.5,0.8-1,0.8-1.7l0.1-1.9l0.1,1.9
			c0,0.7,0.4,1.2,0.8,1.7l0,0c0.5,0.5,1,0.8,1.7,0.8l1.9,0.1l-1.9,0.1C441.6,58.3,441,58.7,440.6,59.1z"/>
		<path class="st9" d="M441,34.4L441,34.4c-0.4,0.4-0.7,0.9-0.8,1.5l-0.1,1.7l-0.1-1.7c0-0.6-0.3-1.1-0.7-1.5l0,0
			c-0.4-0.4-0.9-0.7-1.5-0.7l-1.7-0.1l1.7-0.1c0.6,0,1.1-0.3,1.5-0.7l0,0c0.4-0.4,0.7-0.9,0.8-1.5l0.1-1.7l0.1,1.7
			c0,0.6,0.3,1.1,0.7,1.5l0,0c0.4,0.4,0.9,0.7,1.5,0.8l1.7,0.1l-1.7,0.1C442,33.7,441.5,34,441,34.4z"/>
		<path class="st9" d="M446.1,77.9L446.1,77.9c-0.6,0.6-1,1.3-1,2l-0.2,2.2l-0.2-2.2c-0.1-0.8-0.4-1.5-1-2l0,0c-0.5-0.6-1.2-0.9-2-1
			l-2.2-0.2l2.2-0.2c0.8-0.1,1.5-0.4,2-1l0,0c0.6-0.6,1-1.3,1-2l0.2-2.2l0.2,2.2c0.1,0.8,0.4,1.5,1,2l0,0c0.6,0.6,1.2,0.9,2,1
			l2.2,0.2l-2.2,0.2C447.3,77,446.6,77.4,446.1,77.9z"/>
	</g>
	<text transform="matrix(1 0 0 1 492.9812 108.2152)" class="st1 st28 st29">ONLINE MARKETING</text>
	<text transform="matrix(0.8949 0 0 1 497.2547 130.4784)" class="st30"><tspan x="0" y="0" class="st1 st28 st31">Everything from Social Media campaigns to paid ads</tspan><tspan x="314.7" y="0" class="st9 st28 st31"> </tspan></text>
	<text transform="matrix(0.8949 0 0 1 513.2169 149.5282)" class="st1 st28 st31">Aswell as Email and Marketing Automation.</text>
	<text transform="matrix(0.8949 0 0 1 9.155273e-05 161.6578)" class="st9 st28 st32"> </text>
	<rect x="370.5" y="89.3" class="st7" width="18.9" height="27"/>
	<line class="st33" x1="370.4" y1="89.4" x2="390.4" y2="117.9"/>
	<line class="st34" x1="371" y1="89.6" x2="389" y2="115.7"/>
	<line class="st34" x1="371" y1="89.6" x2="389" y2="115.7"/>
	<line class="st34" x1="371" y1="89.6" x2="389" y2="115.7"/>
	<line class="st34" x1="371.2" y1="116.2" x2="388.8" y2="89.7"/>
	<path class="st35" d="M158.5,118.9l-2.4,4c-2.7-1.4-5.7-2.2-8.8-2.4v-4.7l0,0h-2.9l0,0v4.7c-3.2,0.2-6.2,1-8.8,2.4l-2.4-4l-2.6,1.5
		l2.4,4c-2.5,1.7-4.6,3.8-6.2,6.2l-4-2.4l-1.5,2.6l4.1,2.4c-1.3,2.7-2.2,5.7-2.4,8.8h-4.7v3h4.7c0.2,3.2,1,6.2,2.4,8.8l-4.1,2.4
		l1.5,2.6l4-2.4c1.7,2.5,3.8,4.6,6.2,6.2l-2.4,4l2.6,1.5l2.4-4c2.7,1.4,5.7,2.2,8.8,2.4v4.7l0,0h2.9l0,0v-4.7c3.2-0.2,6.2-1,8.8-2.4
		l2.4,4l2.6-1.5l-2.4-4c2.5-1.7,4.6-3.8,6.2-6.2l4,2.4l1.5-2.6l-4.1-2.4c1.4-2.7,2.2-5.7,2.4-8.8h4.7v-3h-4.7
		c-0.2-3.2-1-6.2-2.4-8.8l4.1-2.4l-1.5-2.6l-4,2.4c-1.7-2.5-3.8-4.6-6.2-6.2l2.4-4L158.5,118.9z M161.2,143.5
		c0,8.5-6.9,15.5-15.5,15.5c-8.5,0-15.5-6.9-15.5-15.5c0-8.5,6.9-15.5,15.5-15.5C154.3,128.1,161.2,135,161.2,143.5z"/>
</g>
</svg>
