<?xml version="1.0" encoding="utf-8"?>
<!-- Generator: Adobe Illustrator 19.2.0, SVG Export Plug-In . SVG Version: 6.00 Build 0)  -->
<svg version="1.1" id="Layer_1" xmlns="http://www.w3.org/2000/svg" xmlns:xlink="http://www.w3.org/1999/xlink" x="0px" y="0px"
	 viewBox="0 0 927.3 1200" style="enable-background:new 0 0 927.3 1200;" xml:space="preserve">
<style type="text/css">
	.st0{clip-path:url(#SVGID_2_);fill:#D5E7E2;}
	.st1{clip-path:url(#SVGID_2_);}
	.st2{fill-rule:evenodd;clip-rule:evenodd;fill:#8ABCC1;}
	.st3{fill-rule:evenodd;clip-rule:evenodd;fill:#F8F9F7;}
	.st4{clip-path:url(#SVGID_2_);fill:#8ABCC1;}
	.st5{clip-path:url(#SVGID_2_);fill:#74AAAD;}
	.st6{clip-path:url(#SVGID_2_);fill:#E6F1EE;}
	.st7{fill-rule:evenodd;clip-rule:evenodd;fill:#93C4CC;}
	.st8{clip-path:url(#SVGID_2_);fill:#F7FAF9;}
	.st9{fill:#E96642;}
	.st10{fill:#F3764B;}
	.st11{fill:#E1593C;}
	.st12{fill:#98866F;}
	.st13{fill-rule:evenodd;clip-rule:evenodd;fill:#74AAAD;}
	.st14{fill:#478879;}
	.st15{fill:#223B3F;}
	.st16{fill:#D6CCC0;}
	.st17{fill:#F8B77C;}
	.st18{fill:#264147;}
	.st19{fill:#E1D5C9;}
	.st20{fill:#FCC287;}
	.st21{fill:#2B4A51;}
	.st22{fill:#529285;}
	.st23{fill:#C55A28;}
	.st24{fill:#BD5328;}
	.st25{fill:#E1A836;}
	.st26{fill:#E9B540;}
	.st27{fill:#C95230;}
	.st28{fill:#D45F36;}
	.st29{fill:#3C5568;}
	.st30{fill:#445E73;}
	.st31{fill:#DCA036;}
	.st32{fill:#D0932E;}
	.st33{fill:#F9F9F9;}
	.st34{fill:#FFFFFF;}
	.st35{fill:#7A5034;}
	.st36{fill:#684127;}
	.st37{fill:#3A2A21;}
	.st38{fill:#F7D8BA;}
	.st39{fill:#443328;}
	.st40{fill:#377866;}
</style>
<g>
	<g>
		<defs>
			<rect id="SVGID_1_" x="1" width="927.3" height="1200"/>
		</defs>
		<clipPath id="SVGID_2_">
			<use xlink:href="#SVGID_1_"  style="overflow:visible;"/>
		</clipPath>
		<rect x="1" class="st0" width="927.3" height="1200"/>
		<g class="st1">
			<polygon class="st2" points="1070.6,1110.8 813.9,1110.8 942.3,833.5 			"/>
			<polygon class="st3" points="942.3,833.5 878.1,972.2 908.3,956.1 933.7,968 954.8,938.3 1000.8,960 			"/>
		</g>
		<rect x="22" y="1043.9" class="st4" width="927.3" height="158.2"/>
		<rect x="2" y="1079.4" class="st5" width="927.3" height="122.8"/>
		<path class="st6" d="M258.9,503c0-24.1-17.7-44.1-40.7-47.6c-2.1-34-30.2-61-64.7-61c-23.8,0-44.6,12.9-55.8,32
			c-7.5-4.6-16.3-7.3-25.7-7.3c-20.2,0-37.5,12.1-45.2,29.5c-0.5,0-1.1-0.1-1.6-0.1c-13.7,0-24.8,11-25,24.6c0,0-0.1,0-0.1,0
			c-21.5,0-38.9,17.5-38.9,39c0,21.6,17.4,39,38.9,39h215.9v-0.3C240.1,548.4,258.9,527.9,258.9,503z"/>
		<g class="st1">
			<polygon class="st2" points="856.4,1052 599.7,1052 728.1,774.7 			"/>
			<polygon class="st3" points="728.1,774.7 663.9,913.3 694.1,897.3 719.5,909.2 740.6,879.5 786.6,901.2 			"/>
		</g>
		<g class="st1">
			<polygon class="st7" points="136.5,735.1 -22.4,1078.5 295.5,1078.5 			"/>
			<path class="st3" d="M203,878.7l-66.5-143.6L57.1,906.8l37.4-19.9l31.5,14.7l26.1-36.8l48.1,22.7
				C201,884.5,201.9,881.6,203,878.7z"/>
		</g>
		<path class="st8" d="M638.1,489.9c0-13.7-10-25.1-23.1-27.1c-1.2-19.3-17.2-34.7-36.7-34.7c-13.5,0-25.3,7.3-31.7,18.2
			c-4.3-2.6-9.3-4.1-14.6-4.1c-11.5,0-21.3,6.9-25.7,16.8c-0.3,0-0.6,0-0.9,0c-7.8,0-14.1,6.2-14.2,14c0,0,0,0-0.1,0
			c-12.2,0-22.1,9.9-22.1,22.2c0,12.2,9.9,22.2,22.1,22.2h122.7v-0.2C627.4,515.7,638.1,504.1,638.1,489.9z"/>
		<path class="st8" d="M878.2,595.4c0-18.1-13.2-33.1-30.5-35.7c-1.6-25.5-22.7-45.7-48.5-45.7c-17.8,0-33.4,9.6-41.9,24
			c-5.6-3.5-12.2-5.4-19.3-5.4c-15.1,0-28.1,9.1-33.9,22.1c-0.4,0-0.8,0-1.2,0c-10.2,0-18.6,8.2-18.8,18.5c0,0-0.1,0-0.1,0
			c-16.1,0-29.2,13.1-29.2,29.3c0,16.2,13.1,29.3,29.2,29.3H846v-0.2C864.1,629.4,878.2,614.1,878.2,595.4z"/>
		<g class="st1">
			<g>
				<g>
					<polygon class="st9" points="321.1,423.6 258,427.4 280.1,400.3 255.5,376.8 315.8,373.4 					"/>
					<path class="st10" d="M388.6,348.1c0,0.2,0.1,0.5,0.1,0.7c1,10.1,0.4,60.5,0.6,61.4l-92.5,0.7l-5.2-61.9L388.6,348.1z"/>
					<polygon class="st11" points="321.1,423.6 296.8,411 319.8,411.2 					"/>
				</g>
				<rect x="388.4" y="348.1" class="st12" width="6.2" height="193.2"/>
			</g>
			<g>
				<polygon class="st13" points="716.9,1088.2 57.8,1091.1 238.9,774.2 441.8,617.9 525.4,745.9 				"/>
				<polygon class="st3" points="391.1,520.8 238.9,774.2 238.9,774.2 309.4,736.8 368.7,764.6 418,695.2 525.4,745.9 				"/>
			</g>
		</g>
		<path class="st4" d="M-197.9,1121h463.6c0,0,187.8-0.2,150.7-118.6c-15.4-49.2-139.1-73.4-136-143.8
			c3.1-70.5,154.9-134.9,110.7-337.8c0,0,73.2,145.1-19.5,292.3c0,0-40.2,57.6,89.6,100.2c211.4,69.5,228.7,278.9,49.5,302.7h-708.6
			V1121z"/>
	</g>
	<g>
		<g>
			<path class="st14" d="M285.6,1065l26.2-12.1c0,0-6.2-40.1-10.6-55.2c-5.1-17.5-40.8-58.7-40.8-58.7l-49.7,33.3
				c0,0,47.1,15.9,59.9,37.8C286.6,1037.2,285.6,1065,285.6,1065z"/>
		</g>
		<g>
			<g>
				<path class="st15" d="M291.8,1077.7c0,0-1-3.1,5.4-4.2c6.4-1.2,10.6-1.5,12.7-2.7c2.1-1.2,4.4,5.3,4.1,5.6
					c-0.3,0.4-9.2,5-9.9,4.9C303.4,1081.2,291.8,1077.7,291.8,1077.7z"/>
			</g>
			<g>
				<path class="st16" d="M293.9,1088.9c0,0-2.2,3.1,0.6,8.1c1.1,1.8,6.5-0.8,19.9,0.6c13.4,1.3,30.3,0.5,44.3-14.7
					c1.5-1.6,0.3-9.3-6.1-7.6C346.3,1076.8,293.9,1088.9,293.9,1088.9z"/>
			</g>
			<g>
				<path class="st17" d="M316.6,1074.7c0.5,1.4-0.4,3-2.1,3.6l-14.4,5c-1.6,0.6-3.4-0.1-3.9-1.5l-6.9-19.7c-0.5-1.4,0.4-3,2.1-3.6
					l14.4-5c1.6-0.6,3.4,0.1,3.9,1.5L316.6,1074.7z"/>
			</g>
			<g>
				<path class="st18" d="M291.8,1077.7c0,0,0.7,10.3,1.6,12.4c7.9-0.3,5.4-0.5,13.6,0.4c8.2,0.9,39.7,0.4,48.4-14.3
					c1-2.1-5.6-10-24.4-8.1c-3.8-0.1-10.7-3.7-13.6-5.8c-3.6,0.2-7.2,5.3-11.1,12.6C302.5,1082.2,291.2,1075.1,291.8,1077.7z"/>
			</g>
			<g>
				<path class="st16" d="M325.6,1073.8c0,0-1.5-1.4-1.9-3.6c-0.8,0.5-1.6,1.1-2.3,1.9c-0.1,0.1-0.3,0.2-0.5,0.2
					c-0.2,0-0.3-0.1-0.4-0.3c-0.5-1-0.8-2-0.9-3c-0.2,0.1-0.3,0.1-0.5,0.2c-1.1,0.5-2.4,1.1-3.8,1.8c-0.2,0.1-0.4,0.1-0.6-0.1
					c-0.2-0.1-0.2-0.4-0.2-0.6c1.2-4.9,6.2-6.4,6.4-6.4c0.2-0.1,0.5,0,0.6,0.2c0.1,0.2,0.2,0.4,0.1,0.6c-0.4,0.9-0.7,1.7-0.8,2.5
					c1.7-0.8,2.9-1.3,4-1.4c0.2,0,0.4,0.1,0.6,0.2c0.1,0.2,0.1,0.4,0,0.6c-0.3,0.6-0.5,1.2-0.6,1.7c1.8-0.9,3.3-1.3,3.4-1.3
					c0.3-0.1,0.6,0.1,0.7,0.4c0.1,0.3-0.1,0.6-0.4,0.7c0,0-1.7,0.4-3.8,1.5c0.1,2.1,1.5,3.3,1.6,3.4c0.2,0.2,0.3,0.6,0.1,0.8
					c-0.1,0.1-0.2,0.1-0.2,0.2C326,1074,325.8,1074,325.6,1073.8z M324,1067.1c-0.9,0.3-1.9,0.7-3.2,1.3c0,0.8,0.2,1.5,0.5,2.3
					c0.8-0.7,1.6-1.3,2.4-1.8C323.7,1068.4,323.8,1067.8,324,1067.1z M320.1,1065.5c-1.2,0.6-3,1.8-3.9,3.9c0.9-0.4,1.8-0.8,2.6-1.2
					c0.3-0.1,0.6-0.3,0.9-0.4C319.7,1067,319.8,1066.2,320.1,1065.5z"/>
			</g>
		</g>
		<g>
			<g>
				<g>
					<path class="st18" d="M155.8,1108c0,0,0.1-3.2,6.5-2.2c6.4,1,10.5,2.1,12.9,1.6c2.4-0.4,2.4,6.4,2,6.7
						c-0.4,0.2-10.3,1.6-10.9,1.4C165.6,1115.2,155.8,1108,155.8,1108z"/>
				</g>
				<g>
					<path class="st19" d="M154,1119.3c0,0-3.1,2.1-2.1,7.8c0.5,2.1,6.4,1.4,18.6,7.1c12.2,5.7,28.5,10.5,46.7,0.8
						c1.9-1,3.4-8.6-3.2-9.2C207.4,1125.2,154,1119.3,154,1119.3z"/>
				</g>
				<g>
					<path class="st20" d="M180.1,1113.4c0,1.5-1.4,2.7-3.1,2.7h-15.3c-1.7,0-3.1-1.2-3.1-2.7v-20.9c0-1.5,1.4-2.7,3.1-2.7H177
						c1.7,0,3.1,1.2,3.1,2.7V1113.4z"/>
				</g>
				<g>
					<path class="st21" d="M155.8,1108c0,0-2.7,10-2.6,12.3c7.6,2.3,5.3,1.3,12.7,4.9c7.5,3.5,37.4,13.5,50.4,2.6
						c1.6-1.6-2-11.3-20.3-15.7c-3.5-1.4-8.9-7-10.9-10c-3.5-1-8.6,2.6-14.6,8.2C164.3,1115.8,156,1105.3,155.8,1108z"/>
				</g>
			</g>
			<g>
				<path class="st19" d="M188.8,1115.6c0,0-1-1.8-0.6-4c-0.9,0.2-1.8,0.6-2.8,1c-0.2,0.1-0.4,0.1-0.5,0c-0.2-0.1-0.3-0.3-0.3-0.4
					c-0.1-1.1-0.1-2.1,0.2-3.1c-0.2,0-0.3,0-0.5,0.1c-1.2,0.1-2.6,0.3-4.2,0.4c-0.2,0-0.4-0.1-0.5-0.3c-0.1-0.2-0.1-0.4,0-0.6
					c2.8-4.2,7.9-4,8.1-4c0.2,0,0.4,0.2,0.5,0.4c0.1,0.2,0,0.5-0.1,0.6c-0.7,0.7-1.2,1.4-1.6,2.1c1.8-0.2,3.2-0.2,4.3,0
					c0.2,0,0.4,0.2,0.5,0.4c0.1,0.2,0,0.4-0.2,0.6c-0.5,0.5-0.9,0.9-1.1,1.4c2-0.3,3.5-0.1,3.6-0.1c0.3,0,0.5,0.3,0.5,0.6
					c0,0.3-0.3,0.5-0.6,0.5c0,0-1.8-0.2-4,0.2c-0.6,2,0.3,3.6,0.4,3.7c0.2,0.3,0.1,0.6-0.2,0.8c-0.1,0.1-0.2,0.1-0.3,0.1
					C189.1,1115.9,188.9,1115.7,188.8,1115.6z M189.5,1108.7c-0.9,0-2.1,0.1-3.5,0.2c-0.2,0.7-0.3,1.5-0.3,2.3
					c1-0.4,1.9-0.7,2.9-0.9C188.7,1109.7,189,1109.2,189.5,1108.7z M186.3,1105.8c-1.3,0.2-3.4,0.7-5,2.3c1-0.1,2-0.2,2.8-0.3
					c0.4,0,0.7-0.1,1-0.1C185.4,1107.1,185.8,1106.4,186.3,1105.8z"/>
			</g>
		</g>
		<g>
			<g>
				<path class="st22" d="M183.9,1099.8h-28.2V969l47.5,4.6c0,0-2.2,1.2-7.7,10.4C188,996.5,183.9,1099.8,183.9,1099.8z"/>
			</g>
			<g>
				<g>
					<path class="st22" d="M155.6,927.3v44.8c0,0,40.6,3.1,54.2,3.1l1.5-19.5l-1.5-28.3H155.6z"/>
				</g>
				<g>
					<path class="st14" d="M209.8,927.3v47.9c13.5,0,54.2-3.1,54.2-3.1v-44.8H209.8z"/>
				</g>
			</g>
		</g>
		<g>
			<path class="st14" d="M188.4,1098.3c0,0.9-0.7,1.5-1.5,1.5h-34.9c-0.8,0-1.5-0.7-1.5-1.5v-11.6c0-0.9,0.7-1.5,1.5-1.5h34.9
				c0.8,0,1.5,0.7,1.5,1.5V1098.3z"/>
		</g>
		<g>
			<path class="st23" d="M178.4,944.8c0,2.5-2,4.5-4.5,4.5h-5.9c-2.5,0-4.5-2-4.5-4.5v-5.9c0-2.5,2-4.5,4.5-4.5h5.9
				c2.5,0,4.5,2,4.5,4.5V944.8z"/>
		</g>
		<g>
			<path class="st24" d="M255,944.8c0,2.5-2,4.5-4.5,4.5h-5.9c-2.5,0-4.5-2-4.5-4.5v-5.9c0-2.5,2-4.5,4.5-4.5h5.9
				c2.5,0,4.5,2,4.5,4.5V944.8z"/>
		</g>
		<g>
			<polygon class="st25" points="122.5,1017.9 114,1017.9 114,1024 128.7,1024 132.1,1014.3 170.2,1014.3 170.2,1007.5 
				126.1,1007.5 			"/>
			<polygon class="st26" points="99.2,1024 114,1024 114,1017.9 105.4,1017.9 101.8,1007.5 57.7,1007.5 57.7,1014.3 95.9,1014.3 			
				"/>
			<path class="st27" d="M133.2,982.6h7c-1.8-12.7-14.5-22.4-26.3-22.4l-1.7,2.9l1.7,3.4C123.5,966.4,131.4,972.9,133.2,982.6z"/>
			<path class="st28" d="M113.9,960.2c-11.7,0-24.5,9.8-26.3,22.5c0.2,0,3.4,0,3.6,0h3.4c1.8-9.7,9.7-16.2,19.3-16.2c0,0,0,0,0,0
				L113.9,960.2C113.9,960.2,113.9,960.2,113.9,960.2z"/>
			<polygon class="st29" points="114,982 112.3,990.9 114,1017.9 122.5,1017.9 126.1,1007.5 170.2,1007.5 170.2,990.9 170.2,982 			
				"/>
			<polygon class="st30" points="57.7,982 57.7,990.9 57.7,1007.5 101.8,1007.5 105.4,1017.9 114,1017.9 114,990.9 114,982 			"/>
			<polygon class="st29" points="132.1,1014.3 128.7,1024 114,1024 112.3,1029.1 114,1054.4 170.2,1054.4 170.2,1029.1 
				170.2,1014.3 			"/>
			<polygon class="st30" points="99.2,1024 95.9,1014.3 57.7,1014.3 57.7,1029.1 57.7,1054.4 114,1054.4 114,1029.1 114,1024 			"/>
		</g>
		<g>
			<polygon class="st17" points="224,812.1 209.8,812.1 208.3,821.7 209.8,831.4 224,831.4 			"/>
			<rect x="195.6" y="812.1" class="st20" width="14.2" height="19.3"/>
		</g>
		<g>
			<g>
				<g>
					<path class="st17" d="M365,924.7l5.2,0c1.6,0,2.9-1.3,2.9-2.9c0-1.1-0.7-2.1-1.7-2.6c0,0,0,0,0,0c-0.7-1.4,0.8-1.6,0.8-1.6
						c1.6,0,2.9-1.3,2.9-2.9c0-1.4-1.1-2.6-2.5-2.8c0,0,0,0,0,0c-1-1,0.4-1.4,0.4-1.4s0,0,0,0c1.4-0.2,2.5-1.4,2.5-2.8
						c0-1.3-0.9-2.4-2.1-2.8c0,0,0,0,0,0c-1.4-0.9-0.2-1.9-0.2-1.9l0,0c0.8-0.5,1.3-1.4,1.3-2.4c0-1.6-1.3-2.9-2.9-2.9
						c-2.7-0.4-1.4-2.4-1.4-2.4s0,0,0,0c0.4-0.5,0.6-1.1,0.6-1.8c0-1.6-1.3-2.9-2.9-2.9l-4.9,0c-19-1.9-16.4,4.2-19.7,6.8
						c-3.3,2.6-12.2,2.5-12.2,2.5s0,14.7,0,18.9c14-0.4,12.5,1.5,17.4,4.8C352.2,926,360.7,925.3,365,924.7z"/>
				</g>
				<g>
					<path class="st25" d="M339.4,924.3c-41,4.8-61-2.8-81-21.7c-21.7-20.5-22-47.1-21.6-54.8l32.3,1.9c-0.2,4.1-0.1,18.5,11.4,29.4
						c12.5,11.8,24.5,16.7,55.1,13.1L339.4,924.3z"/>
				</g>
			</g>
			<g>
				<path class="st17" d="M96.9,971.3l0.5,5.1c0.2,1.6,1.6,2.7,3.2,2.6c1.1-0.1,2.1-0.9,2.4-1.9c0,0,0,0,0,0
					c1.4-0.8,1.7,0.7,1.7,0.7c0.2,1.6,1.6,2.7,3.2,2.6c1.4-0.1,2.5-1.3,2.6-2.7c0,0,0,0,0,0c0.9-1.1,1.4,0.2,1.4,0.2s0,0,0,0
					c0.3,1.4,1.6,2.4,3.1,2.2c1.3-0.1,2.3-1.1,2.5-2.4c0,0,0,0,0,0c0.7-1.5,1.9-0.4,1.9-0.4l0,0c0.6,0.7,1.5,1.2,2.5,1.1
					c1.6-0.2,2.7-1.6,2.6-3.2c0.1-2.7,2.3-1.7,2.3-1.7s0,0,0,0c0.5,0.3,1.2,0.5,1.8,0.5c1.6-0.2,2.7-1.6,2.6-3.1l-0.5-4.8
					c0-19.1-5.8-15.9-8.7-19c-3-3.1-3.7-11.9-3.7-11.9s-14.7,1.5-18.8,1.9c1.8,13.9-0.2,12.5-3.1,17.8
					C94.3,958.7,95.9,967.1,96.9,971.3z"/>
			</g>
			<g>
				<path class="st26" d="M93.2,944.5c-5-41,2-71.9,20.7-92c20.4-21.8,47-22.2,54.7-21.8L167,863c-4.2-0.2-18.5,0-29.4,11.6
					c-11.8,12.6-16,35.4-12.3,66L93.2,944.5z"/>
			</g>
			<g>
				<g>
					<path class="st26" d="M168.2,830.6c-9.6,0-17.4,7.2-17.4,19.8l4.9,88.8h54.5l1.5-48.7l-1.5-59.9H168.2z"/>
				</g>
				<g>
					<path class="st25" d="M269.2,850.4c0-12.6-7.8-19.8-17.4-19.8h-42v108.6H264L269.2,850.4z"/>
				</g>
			</g>
			<g>
				<polygon class="st31" points="186.3,866.1 203.5,847.6 181.2,830.6 171,830.6 				"/>
			</g>
			<g>
				<polygon class="st32" points="233.7,866.1 216.5,847.5 239.1,830.6 249,830.6 				"/>
			</g>
			<g>
				<polygon class="st33" points="209.8,829.1 208.3,843.7 209.8,863.8 209.8,863.9 216.5,847.5 239,830.6 				"/>
				<polygon class="st34" points="181.2,830.6 203.5,847.6 209.8,863.8 209.8,829.1 				"/>
			</g>
		</g>
		<g>
			<path class="st28" d="M176,939.2V831.5c0-1.1-0.9-2-2-2h-6c-1.1,0-2,0.9-2,2v107.7H176z"/>
		</g>
		<g>
			<path class="st27" d="M252.7,939.2V831.5c0-1.1-0.9-2-2-2h-6c-1.1,0-2,0.9-2,2v107.7H252.7z"/>
		</g>
		<g>
			<g>
				<g>
					<polygon class="st14" points="229.1,823.3 209.8,834 229.1,844.6 					"/>
				</g>
				<g>
					<polygon class="st22" points="190.5,823.3 209.8,834 190.5,844.6 					"/>
				</g>
			</g>
			<g>
				<path class="st22" d="M208.2,827c-2.9,0-5.3,2.4-5.3,5.3v3.2c0,2.9,2.4,5.3,5.3,5.3h1.6l1.5-6.9l-1.5-6.9H208.2z"/>
				<path class="st14" d="M211.4,827h-1.6v13.8h1.6c2.9,0,5.3-2.4,5.3-5.3v-3.2C216.7,829.4,214.3,827,211.4,827z"/>
			</g>
		</g>
		<g>
			<g>
				<path class="st17" d="M270.8,749.8c-0.1,3.5-1.4,7.7-4.9,7.5l0,0c-3.5-0.2-6.1-3.2-5.9-6.6l1.2-20.8c0.2-3.5,3.2-6.1,6.6-5.9
					l0,0c3.5,0.2,6.4,3.2,5.9,6.6C272.9,735.4,271.1,740.4,270.8,749.8z"/>
				<path class="st20" d="M148.9,749.8c0.1,3.5,1.4,7.7,4.9,7.5l0,0c3.5-0.2,6.1-3.2,5.9-6.6l-1.2-20.8c-0.2-3.5-3.2-6.1-6.6-5.9
					l0,0c-3.5,0.2-6.4,3.2-5.9,6.6C146.7,735.4,148.5,740.4,148.9,749.8z"/>
				<g>
					<path class="st20" d="M263.7,762.3c0,16.4-10.3,29.7-26.7,29.7h-54.2c-16.4,0-26.7-13.3-26.7-29.7l-3-69.1
						c0-16.4,10.3-29.7,26.7-29.7h60.2c16.4,0,26.7,13.3,26.7,29.7L263.7,762.3z"/>
					<g>
						<path class="st17" d="M239.7,663.5h-30.1V792h27.1c16.4,0,26.7-13.3,26.7-29.7l3-69.1C266.4,676.8,256.1,663.5,239.7,663.5z"
							/>
					</g>
				</g>
				<g>
					<path class="st35" d="M183.2,773.2c-13.2,11.1-25.3-12.5-25.3-29.8l-1.9-49.2c-1.2,3.4-4.4-8.5-4.4-0.3l4.2,78.4
						c0,47.5,53.8,52.1,53.8,52.1l1.5-33.1l-1.5-27.1C193.3,764.3,188.8,768.4,183.2,773.2z"/>
				</g>
				<g>
					<path class="st36" d="M235.9,773.2c13.2,11.1,25.4-12.5,25.4-29.8l1.8-49.4c1.2,3.4,4.8-12.6,4.8-4.3l-4.5,82.7
						c0,47.5-53.8,52.1-53.8,52.1v-60.1C225.9,764.3,230.3,768.4,235.9,773.2z"/>
				</g>
				<g>
					<path class="st17" d="M210.3,785.4c-8.6,0-17.3-4.5-16.8-5.7c0.5-1.3,1.9-1.9,3.2-1.4l0,0c0.1,0.1,13.4,4.9,26.3,0
						c1.3-0.5,2.7,0.2,3.2,1.4C226.6,780.9,219.3,785.4,210.3,785.4z"/>
				</g>
				<g>
					<path class="st36" d="M227.2,719.1c13.3-4.4,26.7-0.1,26.8,0c2.3,0.7,5.2-4.7,2.9-5.4c-0.7-0.2-16.9-6.8-33.9-1.6
						C220.9,712.8,224.9,719.9,227.2,719.1z"/>
				</g>
				<g>
					<circle class="st37" cx="239.6" cy="728.1" r="5.4"/>
					<circle class="st38" cx="241" cy="726.9" r="1.8"/>
				</g>
				<g>
					<path class="st35" d="M192.4,719.1c-2.9-1.2-5.7-3.4-10.7-3.4c-9-0.1-16.1,3.4-16.2,3.4c-2.3,0.7-5.2-4.7-2.9-5.4
						c0.5-0.2,8.5-4.9,19-5.1c4.6-0.1,10.9,1.5,14.9,3.5C198.7,713.2,194.7,720.1,192.4,719.1z"/>
				</g>
				<g>
					<path class="st20" d="M198.8,762.4c0,3.3,5,5.9,11,6l-0.3-66.1C205.6,707.4,198.8,762.4,198.8,762.4z"/>
					<path class="st17" d="M215.5,724.9c-2.4-14.2-4.2-21-5.9-22.6v66.1c0.1,0,0.2,0,0.3,0c6.1,0,11-2.7,11-6
						C220.9,762.4,218.8,744.3,215.5,724.9z"/>
				</g>
				<ellipse class="st20" cx="200.8" cy="764.5" rx="3.6" ry="2.9"/>
				<ellipse class="st17" cx="218.8" cy="764.5" rx="3.6" ry="2.9"/>
				<g>
					<circle class="st39" cx="179.8" cy="728.1" r="5.4"/>
					<circle class="st38" cx="181.2" cy="726.9" r="1.8"/>
				</g>
			</g>
			<g>
				<path class="st36" d="M252.6,659.3c0.9-11-14.4-29.1-43-28.2l-1.5,23.4l1.5,21.4c2.2-0.1,4.6-0.2,7.2-0.4
					c18.5-1.6,26.3-5.9,26.3-5.9s23.3-4.6,17.2,86.1c3.4-7.2,3.5,3.9,3.5,3.9s4.7-64.9,4.8-73.6
					C268.7,676.2,265.2,656.9,252.6,659.3z"/>
				<path class="st35" d="M191.3,634c-41.8,11.6-39.5,37.5-39.7,60.4c-0.2,22.9,3.8,64.2,3.8,64.2s1.5-18.2,2.1-14.2
					c-0.3-18.5-2.8-66.6,16.5-72.8c7.1-2.3,6.7,5.2,35.6,4.3v-44.8C204,631.3,197.9,632.2,191.3,634z"/>
			</g>
		</g>
		<path class="st40" d="M321.5,1055.6c0.3,0.8-0.1,1.7-0.9,2l-33.6,13.1c-0.8,0.3-1.7-0.1-2-0.9l-4.3-11.1c-0.3-0.8,0.1-1.7,0.9-2
			l33.6-13.1c0.8-0.3,1.7,0.1,2,0.9L321.5,1055.6z"/>
	</g>
</g>
</svg>
