<?xml version="1.0" encoding="utf-8"?>
<!-- Generator: Adobe Illustrator 19.2.0, SVG Export Plug-In . SVG Version: 6.00 Build 0)  -->
<svg version="1.1" id="Layer_1" xmlns="http://www.w3.org/2000/svg" xmlns:xlink="http://www.w3.org/1999/xlink" x="0px" y="0px"
	 viewBox="0 0 283.8 312.8" style="enable-background:new 0 0 283.8 312.8;" xml:space="preserve">
<style type="text/css">
	.st0{fill-rule:evenodd;clip-rule:evenodd;fill:#75AAAC;}
	.st1{fill-rule:evenodd;clip-rule:evenodd;fill:#D2E5F6;}
	.st2{fill:#E96643;}
	.st3{fill:#F4774C;}
	.st4{fill:#E15A3C;}
	.st5{fill-rule:evenodd;clip-rule:evenodd;fill:#988670;}
	.st6{fill:#F7B77C;}
	.st7{fill:#8C653F;}
	.st8{fill:#D6CCC0;}
	.st9{fill:#734C2E;}
	.st10{fill:#E1D5C9;}
	.st11{fill:#FDC387;}
	.st12{fill:#7F5735;}
	.st13{fill:#465F73;}
	.st14{fill:#3D5668;}
	.st15{fill:#354C57;}
	.st16{fill:#F9F9F9;}
	.st17{fill:#FFFFFF;}
	.st18{fill:#D65237;}
	.st19{fill:#D56036;}
	.st20{fill:#CA532F;}
	.st21{fill:#7A5135;}
	.st22{fill:#684228;}
	.st23{fill:#453428;}
	.st24{fill:#3A2B22;}
</style>
<g>
	<g>
		<g>
			<polygon class="st0" points="283.8,311.5 0,312.8 78,176.8 165.3,109.7 201.3,164.6 			"/>
			<polygon class="st1" points="143.5,68 78,176.8 78,176.8 108.3,160.7 133.9,172.6 155.1,142.9 201.3,164.6 			"/>
		</g>
	</g>
	<g>
		<g>
			<polygon class="st2" points="57.6,59.1 34.2,64.5 40.7,52.9 30,45.7 52.5,40.6 			"/>
			<path class="st3" d="M67.5,28.4c0,0.1,0.1,0.2,0.1,0.2c1,3.7,4,22.6,4.1,23l-24,4.3L41.8,33L67.5,28.4z"/>
			<polygon class="st4" points="57.6,59.1 47.7,55.9 56.3,54.5 			"/>
		</g>
		
			<rect x="78.8" y="25.8" transform="matrix(0.9852 -0.1714 0.1714 0.9852 -16.0976 15.2102)" class="st5" width="2.4" height="150"/>
	</g>
	<g>
		<path class="st6" d="M167,28.6l-0.1-2.1c0-0.5-0.4-0.9-1-0.9c-0.3,0-0.5,0.2-0.7,0.4c0,0,0,0,0,0c-0.7,0.4-1.1-0.3-1.1-0.3
			s0,0,0,0c-0.2-0.3-0.5-0.5-0.8-0.4c-0.3,0-0.6,0.2-0.8,0.5c0,0,0,0,0,0c-0.9,0.1-0.5-2.4-0.5-2.4l0.7-3.8c0.1-0.5-0.2-1-0.6-1.1
			c-0.5-0.1-1,0.2-1.1,0.6l-0.2,1.2l0,0c-0.4,1.9-1.1,4-1.5,5.1c-0.5-1-1.3-2.7-1.7-3.8l-0.8-2.1c-0.2-0.5-0.7-0.7-1.2-0.5
			c-0.5,0.2-0.7,0.7-0.5,1.2l1.4,3.7c0.1,0.4,0.2,0.8,0.3,1.1c0,0.1,0,0.3,0.1,0.4c0.2,1,0.1,1.7-0.1,2.2c-0.1,0.1-0.2,0.2-0.2,0.3
			c-0.2,0.3-0.3,0.7-0.3,1.3c0.5,5,1.8,5.1,2.7,6.2c1,1.1,0.9,5.6,0.9,5.6l5.9-0.2c0,0,0.1-0.5-0.1-3.5c-0.2-2.9,0.2-2.9,1-4.2
			C167.4,31.9,167.1,29.7,167,28.6z"/>
		<g>
			<path class="st6" d="M75.4,86.8l-1.7,0.1c-0.5,0-0.9-0.3-1-0.9c0-0.4,0.2-0.7,0.5-0.9c0,0,0,0,0,0c0.2-0.5-0.3-0.5-0.3-0.5
				c-0.5,0-0.9-0.3-1-0.9c0-0.5,0.3-0.9,0.7-1v0c0.3-0.4-0.2-0.4-0.2-0.4s0,0,0,0c-0.5,0-0.8-0.4-0.9-0.9c0-0.4,0.2-0.8,0.6-0.9
				c0,0,0,0,0,0c0.4-0.3,0-0.6,0-0.6l0,0c-0.3-0.1-0.5-0.4-0.5-0.7c0-0.5,0.3-0.9,0.9-1c0.9-0.2,0.4-0.8,0.4-0.8s0,0,0,0
				c-0.1-0.1-0.2-0.3-0.2-0.6c0-0.5,0.3-0.9,0.9-1l1.6-0.1c6-1.1,5.3,0.9,6.5,1.7c1.1,0.8,4,0.5,4,0.5s0.3,4.7,0.4,6
				c-4.5,0.2-4,0.8-5.4,2C79.6,86.9,76.8,86.9,75.4,86.8z"/>
		</g>
		<g>
			<path class="st3" d="M89.4,86c-2.5,0.2-4.6,0-6.3-0.3l2-9c3.1,0.7,16.3,1.3,23.9-15c1.5-3.3,4.6-3.4,4.6-3.4l5.3,3.5
				C112.6,79.4,98.9,85.2,89.4,86z"/>
		</g>
		<g>
			<g>
				<path class="st7" d="M153.9,123.8c0,0-0.2-0.9,1.6-1.1c1.8-0.2,3.1-0.2,3.7-0.5c0.6-0.3,1.1,1.6,1,1.7c-0.1,0.1-2.7,1.2-2.9,1.2
					C157.1,125.1,153.9,123.8,153.9,123.8z"/>
			</g>
			<g>
				<path class="st8" d="M154.2,127.1c0,0-0.7,0.8,0,2.3c0.3,0.5,1.9-0.1,5.6,0.6c3.8,0.7,8.6,0.8,13-3.1c0.5-0.4,0.3-2.6-1.6-2.3
					C169.4,124.8,154.2,127.1,154.2,127.1z"/>
			</g>
			<g>
				<path class="st6" d="M161,123.5c0.1,0.4-0.2,0.9-0.7,1l-4.2,1.1c-0.5,0.1-1-0.1-1.1-0.5l-1.5-5.8c-0.1-0.4,0.2-0.9,0.7-1
					l4.2-1.1c0.5-0.1,1,0.1,1.1,0.5L161,123.5z"/>
			</g>
			<g>
				<path class="st9" d="M153.9,123.8c0,0,0,2.9,0.2,3.6c2.3,0.1,1.5,0,3.9,0.4c2.3,0.4,11.3,1.1,14.1-2.9c0.3-0.6-1.4-3-6.8-2.9
					c-1.1-0.1-3-1.3-3.7-2c-1,0-2.2,1.3-3.5,3.3C156.8,125.3,153.7,123,153.9,123.8z"/>
			</g>
			<g>
				<path class="st8" d="M163.5,123.4c0,0-0.4-0.4-0.5-1.1c-0.2,0.1-0.5,0.3-0.7,0.5c0,0-0.1,0-0.1,0c-0.1,0-0.1-0.1-0.1-0.1
					c-0.1-0.3-0.2-0.6-0.2-0.9c0,0-0.1,0-0.1,0.1c-0.3,0.1-0.7,0.3-1.1,0.4c-0.1,0-0.1,0-0.2,0c0,0-0.1-0.1,0-0.2
					c0.5-1.4,1.9-1.7,2-1.7c0.1,0,0.1,0,0.2,0.1c0,0.1,0,0.1,0,0.2c-0.1,0.2-0.2,0.5-0.3,0.7c0.5-0.2,0.9-0.3,1.2-0.3
					c0.1,0,0.1,0,0.2,0.1c0,0.1,0,0.1,0,0.2c-0.1,0.2-0.2,0.3-0.2,0.5c0.5-0.2,1-0.3,1-0.3c0.1,0,0.2,0,0.2,0.1c0,0.1,0,0.2-0.1,0.2
					c0,0-0.5,0.1-1.1,0.3c0,0.6,0.4,1,0.4,1c0.1,0.1,0.1,0.2,0,0.2c0,0,0,0-0.1,0C163.6,123.5,163.5,123.5,163.5,123.4z
					 M163.2,121.5c-0.3,0.1-0.6,0.2-1,0.3c0,0.2,0,0.4,0.1,0.7c0.2-0.2,0.5-0.3,0.7-0.5C163,121.8,163.1,121.6,163.2,121.5z
					 M162.1,120.9c-0.4,0.1-0.9,0.4-1.2,1c0.3-0.1,0.5-0.2,0.8-0.3c0.1,0,0.2-0.1,0.3-0.1C161.9,121.3,162,121.1,162.1,120.9z"/>
			</g>
		</g>
		<g>
			<g>
				<path class="st7" d="M125.7,136.5c0,0-0.1-0.9-1.9-0.5c-1.8,0.4-3,0.8-3.6,0.7c-0.7-0.1-0.5,1.9-0.4,1.9c0.1,0.1,3,0.2,3.1,0.2
					C123.1,138.7,125.7,136.5,125.7,136.5z"/>
			</g>
			<g>
				<path class="st10" d="M126.5,139.7c0,0,0.9,0.5,0.8,2.2c-0.1,0.6-1.8,0.5-5.1,2.4c-3.3,1.9-7.9,3.6-13.3,1.2
					c-0.6-0.2-1.1-2.4,0.7-2.7C111.4,142.5,126.5,139.7,126.5,139.7z"/>
			</g>
			<g>
				<path class="st11" d="M118.9,138.5c0,0.4,0.5,0.7,1,0.7l4.3-0.3c0.5,0,0.9-0.4,0.8-0.8l-0.5-6c0-0.4-0.5-0.7-1-0.7l-4.3,0.3
					c-0.5,0-0.9,0.4-0.8,0.8L118.9,138.5z"/>
			</g>
			<g>
				<path class="st12" d="M125.7,136.5c0,0,1,2.8,1,3.4c-2.1,0.8-1.5,0.5-3.5,1.7c-2.1,1.2-10.4,4.7-14.3,1.8
					c-0.5-0.4,0.3-3.3,5.4-4.9c1-0.5,2.4-2.2,2.9-3.1c1-0.4,2.5,0.6,4.4,2C123.5,138.9,125.6,135.7,125.7,136.5z"/>
			</g>
			<g>
				<path class="st10" d="M116.3,139.3C116.3,139.3,116.3,139.3,116.3,139.3c-0.2-0.1-0.2-0.2-0.2-0.2c0,0,0.2-0.5,0-1.1
					c-0.7-0.1-1.1,0-1.2,0c-0.1,0-0.2,0-0.2-0.1c0-0.1,0-0.2,0.1-0.2c0,0,0.5-0.1,1-0.1c-0.1-0.1-0.2-0.3-0.4-0.4
					c0,0-0.1-0.1-0.1-0.2c0-0.1,0.1-0.1,0.1-0.1c0.3-0.1,0.7-0.1,1.2-0.1c-0.1-0.2-0.3-0.4-0.5-0.6c0,0-0.1-0.1-0.1-0.2
					c0-0.1,0.1-0.1,0.1-0.1c0.1,0,1.5-0.2,2.4,1c0,0,0,0.1,0,0.2c0,0.1-0.1,0.1-0.2,0.1c-0.5,0-0.8,0-1.2,0c0,0-0.1,0-0.1,0
					c0.1,0.3,0.1,0.6,0.1,0.9c0,0.1,0,0.1-0.1,0.1c0,0-0.1,0-0.2,0c-0.3-0.1-0.5-0.2-0.8-0.2c0.2,0.6-0.1,1.2-0.1,1.2
					C116.4,139.3,116.4,139.3,116.3,139.3z M116.4,137.7c0.3,0,0.5,0.1,0.8,0.2c0-0.2-0.1-0.4-0.1-0.6c-0.4,0-0.7,0-1,0
					C116.2,137.4,116.3,137.6,116.4,137.7z M117.3,136.9c0.1,0,0.2,0,0.3,0c0.2,0,0.5,0,0.8,0c-0.5-0.4-1.1-0.5-1.5-0.6
					C117.1,136.6,117.2,136.8,117.3,136.9z"/>
			</g>
		</g>
		<g>
			<polygon class="st6" points="130.9,51.3 126.8,51.6 126.6,54.3 127.3,57.1 131.3,56.8 			"/>
			
				<rect x="123" y="51.7" transform="matrix(0.9971 -7.574172e-02 7.574172e-02 0.9971 -3.7669 9.626)" class="st11" width="4.1" height="5.5"/>
		</g>
		<g>
			<g>
				<g>
					<g>
						<path class="st13" d="M125.7,134.1l-8,0.6l-2.8-37.3l13.6,0.3c0,0-0.6,0.4-2,3.1C124.6,104.6,125.7,134.1,125.7,134.1z"/>
					</g>
				</g>
				<g>
					<path class="st14" d="M152.4,121.1l7.2-3.6c0,0-2.1-11-3.4-15.2c-1.6-4.8-11.8-15.9-11.8-15.9l-12.8,9.6c0,0,0.7,0,3.3,1.6
						c1.6,1,9.2,2.4,12.9,8.3C152.4,113.4,152.4,121.1,152.4,121.1z"/>
				</g>
				<g>
					<g>
						<g>
							<path class="st13" d="M113.9,85.6l1,12.8c0,0,11.6,0,15.5-0.3l0-5.6l-1.1-8L113.9,85.6z"/>
						</g>
					</g>
					<g>
						<path class="st14" d="M129.3,84.4l1,13.6c3.9-0.3,15.4-2.1,15.4-2.1l-1-12.8L129.3,84.4z"/>
					</g>
				</g>
			</g>
			<g>
				<path class="st14" d="M126.9,133.6c0,0.2-0.2,0.5-0.4,0.5l-10,0.8c-0.2,0-0.4-0.2-0.5-0.4l-0.3-3.3c0-0.2,0.2-0.5,0.4-0.5
					l10-0.8c0.2,0,0.4,0.2,0.5,0.4L126.9,133.6z"/>
			</g>
			<g>
				<path class="st15" d="M162.3,118.2c0.1,0.2,0,0.5-0.2,0.6l-9.2,4c-0.2,0.1-0.5,0-0.6-0.2l-1.3-3c-0.1-0.2,0-0.5,0.2-0.6l9.2-4
					c0.2-0.1,0.5,0,0.6,0.2L162.3,118.2z"/>
			</g>
		</g>
		<g>
			<path class="st2" d="M155.6,65.4c-6.6,2.3-14.3,1.1-19.3-1.7l4.5-8.1c3.3,1.8,10,2.8,14.1-0.1c4.5-3.2,4.4-10.3,3.4-15.7l9.1-1.6
				c2.5,14.5-2.5,21.5-7.2,24.8C158.8,64,157.2,64.8,155.6,65.4z"/>
		</g>
		<g>
			<g>
				<g>
					<path class="st3" d="M115.4,57.7c-2.7,0.2-4.8,2.4-4.5,6l3.3,25.2l15.5-1.2l-0.6-13.9l-1.7-17L115.4,57.7z"/>
				</g>
			</g>
			<g>
				<path class="st2" d="M144.6,61.2c-0.3-3.6-2.6-5.5-5.4-5.3l-12,0.9l2.4,30.9l15.4-1.2L144.6,61.2z"/>
			</g>
		</g>
		<g>
			<polygon class="st16" points="127.2,56.4 127.1,60.6 127.6,61.9 127.6,61.9 129.4,59.8 135.6,56.2 			"/>
			<polygon class="st17" points="119.1,57.5 125.7,60.1 127.6,61.9 127.2,56.4 			"/>
		</g>
		<g>
			<polygon class="st4" points="121.4,67.9 125.7,60.1 119.1,57.5 116.2,57.7 			"/>
		</g>
		<g>
			<polygon class="st18" points="134.8,66.9 129.4,59.8 135.6,56.2 138.4,56 			"/>
		</g>
		<g>
			<path class="st10" d="M120,88.5l-2.3-30.7c0-0.3-0.3-0.6-0.6-0.5l-1.7,0.1c-0.3,0-0.6,0.3-0.5,0.6l2.3,30.7L120,88.5z"/>
		</g>
		<g>
			<path class="st8" d="M141.8,86.9l-2.3-30.7c0-0.3-0.3-0.6-0.6-0.5l-1.7,0.1c-0.3,0-0.6,0.3-0.5,0.6l2.3,30.7L141.8,86.9z"/>
		</g>
		<g>
			<path class="st19" d="M120.8,90.1c0.1,0.7-0.5,1.3-1.2,1.4l-1.7,0.1c-0.7,0.1-1.3-0.5-1.4-1.2l-0.1-1.7c-0.1-0.7,0.5-1.3,1.2-1.4
				l1.7-0.1c0.7-0.1,1.3,0.5,1.4,1.2L120.8,90.1z"/>
		</g>
		<g>
			<path class="st20" d="M142.6,88.4c0.1,0.7-0.5,1.3-1.2,1.4l-1.7,0.1c-0.7,0.1-1.3-0.5-1.4-1.2l-0.1-1.7c-0.1-0.7,0.5-1.3,1.2-1.4
				l1.7-0.1c0.7-0.1,1.3,0.5,1.4,1.2L142.6,88.4z"/>
		</g>
		<g>
			<path class="st6" d="M143.5,31.7c0,1-0.2,2.3-1.3,2.3l0,0c-1,0-1.9-0.8-1.9-1.8l-0.1-6.2c0-1,0.8-1.9,1.8-1.9l0,0
				c1,0,2,0.8,1.9,1.8C143.9,27.4,143.4,28.9,143.5,31.7z"/>
			<path class="st11" d="M107.5,34.4c0.1,1,0.6,2.2,1.6,2.1l0,0c1-0.1,1.7-1.1,1.6-2.1l-0.8-6.1c-0.1-1-1.1-1.7-2.1-1.6l0,0
				c-1,0.1-1.8,1.1-1.6,2.1C106.6,30.2,107.2,31.6,107.5,34.4z"/>
			<g>
				<path class="st11" d="M141.7,35.5c0.4,4.8-2.4,9-7.2,9.4l-16,1.2c-4.8,0.4-8.2-3.3-8.6-8.2l-2.4-20.3c-0.4-4.8,2.4-9,7.2-9.4
					l17.8-1.4c4.8-0.4,8.2,3.3,8.6,8.2L141.7,35.5z"/>
				<g>
					<path class="st6" d="M132.4,6.8l-8.9,0.7l2.9,38l8-0.6c4.8-0.4,7.6-4.5,7.2-9.4L141,15C140.6,10.2,137.3,6.5,132.4,6.8z"/>
				</g>
			</g>
			<g>
				<path class="st21" d="M118.2,40.5c-3.7,3.6-7.8-3.1-8.2-8.2l-1.7-14.5c-0.3,1-1.9-2.4-1.8,0l3.2,20.4
					c1.1,14,17.3,16.8,17.3,16.8l-0.3-9.8l-1-8C121,37.7,119.7,39,118.2,40.5z"/>
			</g>
			<g>
				<path class="st22" d="M133.8,39.3c4.2,3,7.2-4.3,6.8-9.4L140,15.3c0.4,1,1.4-3.8,1.6-1.4l0,21.9c1.1,14-14.5,19.2-14.5,19.2
					l-1.4-17.8C130.6,37,132,38.1,133.8,39.3z"/>
			</g>
			<g>
				<path class="st6" d="M126.7,46.6c-4.8,0.4-6.1-4-6-4.3c0.1-0.4,0.6-0.6,1-0.5l0,0c0,0,4.5,1.1,8.7-0.7c0.4-0.2,0.9,0,1.1,0.3
					C131.8,41.8,130.8,46.3,126.7,46.6z"/>
			</g>
			<g>
				<path class="st22" d="M130,23.6c3.8-1.6,7.9-0.6,7.9-0.6c0.7,0.2,1.4-1.5,0.7-1.7c-0.2,0-5.2-1.6-10,0.3
					C128,21.8,129.3,23.9,130,23.6z"/>
			</g>
			<g>
				<path class="st21" d="M119.7,24.4c-0.9-0.3-1.8-0.9-3.2-0.8c-2.7,0.2-4.7,1.4-4.7,1.4c-0.7,0.3-1.6-1.3-1-1.5
					c0.1-0.1,2.4-1.6,5.5-1.9c1.4-0.1,3.3,0.2,4.5,0.7C121.4,22.5,120.4,24.6,119.7,24.4z"/>
			</g>
			<g>
				<path class="st11" d="M122.6,37c0.1,1,1.6,1.6,3.4,1.5L124.4,19C123.3,20.6,122.6,37,122.6,37z"/>
				<path class="st6" d="M126.7,25.5c-1-4.1-1.7-6.1-2.3-6.5l1.5,19.5c0,0,0.1,0,0.1,0c1.8-0.1,3.2-1,3.1-2
					C129.1,36.5,128,31.2,126.7,25.5z"/>
			</g>
			
				<ellipse transform="matrix(0.9971 -7.611662e-02 7.611662e-02 0.9971 -2.5031 9.4856)" class="st11" cx="123.2" cy="37.6" rx="1.1" ry="0.9"/>
			
				<ellipse transform="matrix(0.9971 -7.587793e-02 7.587793e-02 0.9971 -2.4503 9.8585)" class="st6" cx="128.5" cy="37.2" rx="1.1" ry="0.9"/>
			<path class="st21" d="M122.9,0c-2.1,0-4.5,0.3-7.1,1.1c-7.2,2.1-6.1,6.8-6.1,6.8c-1.1-0.7-3.3,0-3.7,4.7c-0.4,4.9,1.6,8,1.6,8
				s0.6,0.2,0.6-2.5c-0.5-7,3.7-3.5,3.7-3.5s0.1-0.1,0.2-0.3c0,0,2.3-3.1,11.7-1l-0.1-6.9L122.9,0z"/>
			<g>
				<path class="st22" d="M122.9,0l1,13.2c12.5,2.9,18.1,4.7,17.7-0.3C141.2,7.6,138.1-0.5,122.9,0z"/>
			</g>
			<g>
				<path class="st23" d="M114.2,27.9c-0.1,0-0.1,0-0.2,0c-0.2-0.1-0.4-0.3-0.3-0.6c0-0.1,0.5-1.5,2.1-1.6c1.5-0.1,2.4,1.1,2.4,1.2
					c0.1,0.2,0.1,0.5-0.1,0.6c-0.2,0.1-0.5,0.1-0.6-0.1c0,0-0.6-0.9-1.6-0.8c-0.9,0.1-1.3,0.9-1.3,1
					C114.6,27.8,114.4,27.9,114.2,27.9z"/>
			</g>
			<g>
				<path class="st24" d="M131.6,26.6c-0.1,0-0.1,0-0.2,0c-0.2-0.1-0.3-0.4-0.2-0.6c0-0.1,0.7-1.4,2.2-1.5c1.5-0.1,2.3,1.2,2.3,1.2
					c0.1,0.2,0,0.5-0.2,0.6c-0.2,0.1-0.5,0-0.6-0.2c0,0-0.5-0.8-1.4-0.8c-1,0.1-1.4,1-1.5,1C132,26.5,131.8,26.6,131.6,26.6z"/>
			</g>
			<path class="st18" d="M121.8,43.4c0,0,1.2,2.8,4.6,2.8c1.9-0.1,3.8-2.1,4.1-3.4C126.4,43.1,121.8,43.4,121.8,43.4z"/>
			<path class="st17" d="M121.5,42.4c0,0,5.2,1,9.3-0.7c0.2,0.8-0.3,1.3-0.3,1.3s-3.5,1.7-8.6,0.5C121.6,43.1,121.5,42.4,121.5,42.4
				z"/>
		</g>
	</g>
</g>
</svg>
