<?xml version="1.0" encoding="utf-8"?>
<!-- Generator: Adobe Illustrator 19.2.0, SVG Export Plug-In . SVG Version: 6.00 Build 0)  -->
<svg version="1.1" id="Layer_1" xmlns="http://www.w3.org/2000/svg" xmlns:xlink="http://www.w3.org/1999/xlink" x="0px" y="0px"
	 viewBox="0 0 799.5 266.5" style="enable-background:new 0 0 799.5 266.5;" xml:space="preserve">
<style type="text/css">
	.st0{fill:#FFFFFF;}
	.st1{opacity:0.75;fill:#1CB2B8;enable-background:new    ;}
	.st2{fill:#E6E6E6;}
	.st3{fill:#2F566C;}
	.st4{fill:#A7DDE6;}
	.st5{fill:#BDC831;}
	.st6{fill:#9CD7E6;}
	.st7{fill:#2F475F;}
	.st8{opacity:0.25;fill:#1CB2B8;enable-background:new    ;}
	.st9{fill:#B3B3B3;}
	.st10{opacity:0.75;}
	.st11{opacity:0.5;fill:#1CB2B8;enable-background:new    ;}
	.st12{fill:#577789;}
	.st13{fill:#1CB2B8;}
	.st14{fill:#17868B;}
	.st15{fill:#586C80;}
	.st16{opacity:0.25;fill:#FFFFFF;enable-background:new    ;}
	.st17{fill:#234050;}
	.st18{enable-background:new    ;}
	.st19{font-family:'GillSansMT';}
	.st20{font-size:30px;}
	.st21{font-size:35.5315px;}
	.st22{font-size:15.1009px;}
	.st23{font-size:13.3243px;}
</style>
<rect y="1.6" class="st0" width="799.5" height="266.5"/>
<g>
	<rect x="364.9" y="109.1" class="st1" width="25.9" height="2.8"/>
	<rect x="320.3" y="118.6" class="st1" width="70.5" height="2.8"/>
	<rect x="320.3" y="127.2" class="st1" width="70.5" height="2.8"/>
	<rect x="320.3" y="136" class="st1" width="70.5" height="2.8"/>
	<rect x="320.3" y="145.5" class="st1" width="70.5" height="2.8"/>
	<rect x="320.3" y="153.6" class="st1" width="70.5" height="2.8"/>
	<rect x="320.3" y="162.3" class="st1" width="70.5" height="2.8"/>
	<rect x="320.3" y="171.9" class="st1" width="70.5" height="2.8"/>
</g>
<g>
	<path class="st2" d="M175.2,102.1H76.1c-2.1,0-3.8,1.7-3.8,3.8v5.8V190c0,2.1,1.7,3.8,3.8,3.8h99.1c2.1,0,3.8-1.7,3.8-3.8v-78.3
		v-5.8C179,103.8,177.3,102.1,175.2,102.1z"/>
	<g>
		<path class="st0" d="M175.4,184.9c0,2.1-1.7,3.8-3.8,3.8H72.4c-2.1,0-3.8-1.7-3.8-3.8v-78.3h106.7v78.3H175.4z"/>
		<path class="st3" d="M171.5,97H72.4c-2.1,0-3.8,1.7-3.8,3.8v5.8h106.7v-5.8C175.4,98.7,173.7,97,171.5,97z"/>
		<path class="st0" d="M84.6,104L84.6,104c-1,0-1.8-0.8-1.8-1.8l0,0c0-1,0.8-1.8,1.8-1.8l0,0c1,0,1.8,0.8,1.8,1.8l0,0
			C86.3,103.2,85.6,104,84.6,104z"/>
		<path class="st0" d="M79,104L79,104c-1,0-1.8-0.8-1.8-1.8l0,0c0-1,0.8-1.8,1.8-1.8l0,0c1,0,1.8,0.8,1.8,1.8l0,0
			C80.7,103.2,79.9,104,79,104z"/>
		<path class="st0" d="M73,104L73,104c-1,0-1.8-0.8-1.8-1.8l0,0c0-1,0.8-1.8,1.8-1.8l0,0c1,0,1.8,0.8,1.8,1.8l0,0
			C74.7,103.2,74,104,73,104z"/>
		<g>
			<rect x="73" y="117.9" class="st4" width="59.7" height="2.9"/>
			<rect x="73" y="127.1" class="st4" width="59.7" height="2.9"/>
			<rect x="73" y="136.4" class="st4" width="59.7" height="2.9"/>
			<rect x="73" y="146.5" class="st4" width="59.7" height="2.9"/>
			<rect x="73" y="155.2" class="st4" width="59.7" height="2.9"/>
			<rect x="73" y="164.5" class="st4" width="59.7" height="2.9"/>
			<rect x="73" y="174.6" class="st4" width="59.7" height="2.9"/>
		</g>
		<g>
			<rect x="141.3" y="165.8" class="st5" width="26.9" height="2.9"/>
			<rect x="141.3" y="174.9" class="st5" width="26.9" height="2.9"/>
		</g>
		<g>
			<rect x="140.3" y="117.6" class="st3" width="29.1" height="41.5"/>
			<polygon class="st0" points="140.2,117.6 140.6,117.6 154.8,137.9 169.1,117.6 169.4,117.6 169.4,118.1 155.1,138.4 169.4,158.6 
				169.4,159.1 169.1,159.1 154.8,138.8 140.6,159.1 140.2,159.1 140.2,158.6 154.5,138.4 140.2,118.1 			"/>
		</g>
	</g>
</g>
<g>
	<path class="st2" d="M142.5,125.6H50.7c-2,0-3.5,1.6-3.5,3.5v5.4v72.6c0,2,1.6,3.5,3.5,3.5h91.8c2,0,3.5-1.6,3.5-3.5v-72.6v-5.4
		C146,127.2,144.5,125.6,142.5,125.6z"/>
	<g>
		<path class="st6" d="M41.8,203c0,2,1.6,3.5,3.5,3.5h91.8c2,0,3.5-1.6,3.5-3.5v-72.6H41.8V203z"/>
		<path class="st5" d="M137.1,121.5H45.3c-2,0-3.5,1.6-3.5,3.5v5.4h98.9V125C140.7,123.1,139.1,121.5,137.1,121.5z"/>
		<path class="st0" d="M56.5,128L56.5,128c-0.9,0-1.6-0.7-1.6-1.6l0,0c0-0.9,0.7-1.6,1.6-1.6l0,0c0.9,0,1.6,0.7,1.6,1.6l0,0
			C58.2,127.2,57.4,128,56.5,128z"/>
		<path class="st0" d="M51.3,128L51.3,128c-0.9,0-1.6-0.7-1.6-1.6l0,0c0-0.9,0.7-1.6,1.6-1.6l0,0c0.9,0,1.6,0.7,1.6,1.6l0,0
			C53,127.2,52.2,128,51.3,128z"/>
		<path class="st0" d="M45.8,128L45.8,128c-0.9,0-1.6-0.7-1.6-1.6l0,0c0-0.9,0.7-1.6,1.6-1.6l0,0c0.9,0,1.6,0.7,1.6,1.6l0,0
			C47.4,127.2,46.7,128,45.8,128z"/>
		<polygon class="st0" points="135,123.9 62.7,123.9 62.7,123.9 62.7,128.8 135,128.8 		"/>
		<g>
			<rect x="71.1" y="138" class="st0" width="63" height="3"/>
			<rect x="71.1" y="147.2" class="st0" width="63" height="3"/>
			<rect x="71.1" y="156.6" class="st0" width="63" height="3"/>
			<rect x="71.1" y="166.9" class="st0" width="63" height="3"/>
			<rect x="71.1" y="175.6" class="st0" width="63" height="3"/>
			<rect x="71.1" y="185" class="st0" width="63" height="3"/>
			<rect x="71.1" y="195.3" class="st0" width="63" height="3"/>
		</g>
		<rect x="45.7" y="137.5" class="st3" width="18.4" height="18.4"/>
		<polygon class="st0" points="64.1,137.5 63.9,137.5 54.9,146.5 45.9,137.5 45.7,137.5 45.7,137.7 54.7,146.7 45.7,155.8 45.7,156 
			45.9,156 54.9,147 63.9,156 64.1,156 64.1,155.8 55.1,146.7 64.1,137.7 		"/>
		<rect x="45.5" y="158.6" class="st3" width="18.4" height="18.4"/>
		<polygon class="st0" points="63.9,158.6 63.7,158.6 54.7,167.7 45.7,158.6 45.5,158.6 45.5,158.8 54.5,167.9 45.5,176.9 
			45.5,177.1 45.7,177.1 54.7,168.1 63.7,177.1 63.9,177.1 63.9,176.9 54.9,167.9 63.9,158.8 		"/>
		<rect x="45.7" y="179.8" class="st3" width="18.4" height="18.4"/>
		<polygon class="st0" points="64.1,179.8 63.9,179.8 54.9,188.8 45.9,179.8 45.7,179.8 45.7,180 54.7,189 45.7,198 45.7,198.3 
			45.9,198.3 54.9,189.2 63.9,198.3 64.1,198.3 64.1,198 55.1,189 64.1,180 		"/>
	</g>
</g>
<path class="st7" d="M282.5,165.4L282.5,165.4c0.5,0,0.9,0,1.4,0.1C283.5,165.5,283,165.4,282.5,165.4z"/>
<path class="st7" d="M283.9,165.5c0.9,0.2,1.8,0.5,2.6,1.1C285.7,166.1,284.8,165.7,283.9,165.5z"/>
<ellipse class="st8" cx="213" cy="222.6" rx="79" ry="20.4"/>
<g>
	<path class="st2" d="M247.6,218.9C247.6,218.9,247.5,218.9,247.6,218.9h-66.9l-6.6,3.7c0,0,0,0-0.1,0.1h79.3l0,0L247.6,218.9z"/>
	<path class="st9" d="M253,222.5h-78.6c-0.5,0-1,0.4-1,1c0,0.5,0.4,0.9,1,0.9H253c0.5,0,1-0.4,1-0.9
		C254,222.9,253.6,222.5,253,222.5z"/>
	<path class="st3" d="M117.7,201.1h194.2c2.1,0,3.8-1.7,3.8-3.8V56.1c0-2.1-1.7-3.8-3.8-3.8H117.7c-2.1,0-3.8,1.7-3.8,3.8v141.2
		C113.9,199.4,115.6,201.1,117.7,201.1z"/>
	<rect x="120.4" y="60.5" class="st0" width="188.3" height="113"/>
</g>
<rect x="119.5" y="69.6" class="st6" width="189.1" height="103.9"/>
<polygon class="st0" points="308.6,59.6 119.5,59.6 119.5,59.6 119.5,69.6 308.6,69.6 "/>
<path class="st3" d="M141.7,67L141.7,67c-1.3,0-2.4-1.1-2.4-2.4l0,0c0-1.3,1.1-2.4,2.4-2.4l0,0c1.3,0,2.4,1.1,2.4,2.4l0,0
	C144.1,65.9,143,67,141.7,67z"/>
<path class="st3" d="M134.2,67L134.2,67c-1.3,0-2.4-1.1-2.4-2.4l0,0c0-1.3,1.1-2.4,2.4-2.4l0,0c1.3,0,2.4,1.1,2.4,2.4l0,0
	C136.6,65.9,135.5,67,134.2,67z"/>
<path class="st3" d="M126.2,67L126.2,67c-1.3,0-2.4-1.1-2.4-2.4l0,0c0-1.3,1.1-2.4,2.4-2.4l0,0c1.3,0,2.4,1.1,2.4,2.4l0,0
	C128.5,65.9,127.5,67,126.2,67z"/>
<path class="st0" d="M113.9,197.3c0,2.1,1.7,3.8,3.8,3.8h194.2c2.1,0,3.8-1.7,3.8-3.8v-15H113.9V197.3z"/>
<polygon class="st0" points="91.7,224.8 95.1,221.5 98.4,224.8 99.1,224.1 95.8,220.7 99.1,217.4 98.4,216.7 95.1,220 91.7,216.7 
	91,217.4 94.3,220.7 91,224.1 "/>
<rect x="187.2" y="196.6" class="st0" width="54.1" height="22.3"/>
<rect x="187.2" y="201" class="st2" width="54.1" height="2.3"/>
<g>
	<rect x="330.8" y="37.8" class="st0" width="5" height="5"/>
	<rect x="330.8" y="51.4" class="st0" width="5" height="5"/>
	<rect x="330.8" y="64.9" class="st0" width="5" height="5"/>
</g>
<g class="st10">
	<rect x="99.7" y="63.4" class="st11" width="6.6" height="6.6"/>
	<rect x="88.5" y="63.5" class="st11" width="6.6" height="6.6"/>
	<rect x="88.5" y="74.7" class="st11" width="6.6" height="6.6"/>
	<rect x="77.2" y="74.7" class="st11" width="6.6" height="6.6"/>
	<rect x="99.7" y="74.6" class="st11" width="6.6" height="6.6"/>
	<rect x="88.5" y="85.8" class="st11" width="6.6" height="6.6"/>
	<rect x="77.2" y="85.8" class="st11" width="6.6" height="6.6"/>
	<rect x="99.7" y="85.7" class="st11" width="6.6" height="6.6"/>
</g>
<g>
	<path class="st2" d="M320.3,18.6h-51.8c-1.1,0-2,0.9-2,2v3v65.9c0,1.1,0.9,2,2,2h51.8c1.1,0,2-0.9,2-2V23.6v-3
		C322.3,19.4,321.4,18.6,320.3,18.6z"/>
	<path class="st0" d="M263.5,87.2c0,1.1,0.9,2,2,2h51.8c1.1,0,2-0.9,2-2V21.3h-55.8V87.2z"/>
	<path class="st12" d="M317.3,16.2h-51.8c-1.1,0-2,0.9-2,2v3h55.8v-3C319.3,17.1,318.4,16.2,317.3,16.2z"/>
	<path class="st0" d="M271.8,19.9L271.8,19.9c-0.5,0-0.9-0.4-0.9-0.9l0,0c0-0.5,0.4-0.9,0.9-0.9l0,0c0.5,0,0.9,0.4,0.9,0.9l0,0
		C272.7,19.5,272.3,19.9,271.8,19.9z"/>
	<path class="st0" d="M268.9,19.9L268.9,19.9c-0.5,0-0.9-0.4-0.9-0.9l0,0c0-0.5,0.4-0.9,0.9-0.9l0,0c0.5,0,0.9,0.4,0.9,0.9l0,0
		C269.8,19.5,269.4,19.9,268.9,19.9z"/>
	<path class="st0" d="M265.7,19.9L265.7,19.9c-0.5,0-0.9-0.4-0.9-0.9l0,0c0-0.5,0.4-0.9,0.9-0.9l0,0c0.5,0,0.9,0.4,0.9,0.9l0,0
		C266.7,19.5,266.2,19.9,265.7,19.9z"/>
	<polygon class="st0" points="316.1,17.6 275.2,17.6 275.2,17.6 275.2,20.3 316.1,20.3 	"/>
	<g>
		<rect x="297.8" y="45.5" class="st13" width="10.4" height="10.4"/>
		<polygon class="st0" points="308.3,56 308.3,55.9 303.2,50.8 308.3,45.7 308.3,45.6 308.1,45.6 303.1,50.7 298,45.6 297.8,45.6 
			297.8,45.7 302.9,50.8 297.8,55.9 297.8,56 298,56 303.1,50.9 308.1,56 		"/>
		<rect x="285.9" y="45.4" class="st13" width="10.4" height="10.4"/>
		<polygon class="st0" points="296.3,55.9 296.3,55.7 291.3,50.7 296.3,45.6 296.3,45.5 296.2,45.5 291.1,50.5 286.1,45.5 
			285.9,45.5 285.9,45.6 291,50.7 285.9,55.7 285.9,55.9 286.1,55.9 291.1,50.8 296.2,55.9 		"/>
		<rect x="274" y="45.6" class="st13" width="10.4" height="10.4"/>
		<polygon class="st0" points="284.4,56 284.4,55.9 279.3,50.8 284.4,45.7 284.4,45.6 284.3,45.6 279.2,50.7 274.1,45.6 274,45.6 
			274,45.7 279.1,50.8 274,55.9 274,56 274.1,56 279.2,50.9 284.3,56 		"/>
	</g>
	<rect x="270.9" y="64.2" class="st6" width="40.4" height="1.5"/>
	<rect x="270.9" y="68.9" class="st6" width="40.4" height="1.5"/>
	<rect x="270.9" y="73.8" class="st6" width="40.4" height="1.5"/>
	<rect x="270.9" y="79.1" class="st6" width="40.4" height="1.5"/>
	<rect x="270.9" y="83.6" class="st6" width="40.4" height="1.5"/>
	<rect x="268" y="26.3" class="st13" width="46.2" height="1.5"/>
	<rect x="267.9" y="31.6" class="st12" width="46.4" height="9.6"/>
</g>
<g>
	<path class="st13" d="M288.7,131.9c5.2,0,10.5-2,14.5-6c8-8,8-21,0-29c-4-4-9.3-6-14.5-6s-10.5,2-14.5,6c-8,8-8,21,0,29
		C278.2,129.9,283.4,131.9,288.7,131.9z M279.2,102c5.2-5.2,13.7-5.2,18.9,0c5.2,5.2,5.2,13.7,0,18.9c-5.2,5.2-13.7,5.2-18.9,0
		C274,115.6,274,107.2,279.2,102z"/>
	<path class="st3" d="M298.1,120.8c5.2-5.2,5.2-13.7,0-18.9c-5.2-5.2-13.7-5.2-18.9,0c-5.2,5.2-5.2,13.7,0,18.9
		C284.4,126,292.9,126,298.1,120.8z M281.9,104.6c3.7-3.7,9.8-3.7,13.5,0s3.7,9.8,0,13.5s-9.8,3.7-13.5,0S278.2,108.4,281.9,104.6z"
		/>
	<path class="st13" d="M258.6,99.1l-2.4,9.2l6.4,1.7c-0.1,1.1-0.1,2.2,0,3.3l-6.3,1.9l2.8,9.1l6-1.8c0.6,1.3,1.3,2.5,2.1,3.6
		l-4.3,4.3l6.7,6.7l4.3-4.3c1.2,0.8,2.4,1.5,3.6,2.1l-1.8,6l9.1,2.8l1.9-6.3c0.6,0,1.3,0,1.9,0v-5.5c-5.2,0-10.5-2-14.5-6
		c-8-8-8-21,0-29c4-4,9.3-6,14.5-6v-5.5c-0.5,0-0.9,0-1.4,0l-1.7-6.5l-9.2,2.4l1.6,6.3c-1.4,0.6-2.8,1.4-4.1,2.3l-4.4-4.4l-6.7,6.7
		l4.4,4.4c-0.9,1.3-1.7,2.7-2.3,4.1L258.6,99.1z"/>
	<path class="st14" d="M288.7,90.9c5.2,0,10.5,2,14.5,6c8,8,8,21,0,29c-4,4-9.3,6-14.5,6l0,0v5.5l0,0c0.5,0,0.9,0,1.4,0l1.7,6.5
		l9.2-2.4l-1.6-6.3c1.4-0.6,2.8-1.4,4.1-2.3l4.4,4.4l6.7-6.7l-4.4-4.4c0.9-1.3,1.7-2.7,2.3-4.1l6.3,1.6l2.4-9.2l-6.5-1.7
		c0.1-1.1,0.1-2.2,0-3.3l6.3-1.9l-2.8-9.1l-6,1.8c-0.6-1.3-1.3-2.5-2.1-3.6l4.3-4.3l-6.7-6.7l-4.3,4.3c-1.2-0.8-2.4-1.5-3.6-2.1
		l1.8-6l-9.1-2.8l-1.9,6.3c-0.6,0-1.3,0-1.9,0l0,0L288.7,90.9L288.7,90.9z"/>
</g>
<g>
	<path class="st15" d="M290.1,116.1l-11.8-3.9v-0.8V110v-0.8l11.8-3.9l6.9,2.4l0,0h63.1c1.7,0,3,1.3,3,3s-1.3,3-3,3H297l0,0
		L290.1,116.1z"/>
	<path class="st16" d="M278.3,111.4v0.8l11.8,3.9l6.9-2.4h63.1c1.7,0,3-1.3,3-3h-84.8L278.3,111.4z"/>
	<g>
		<rect x="337.4" y="104.8" class="st3" width="70.8" height="11.4"/>
		<polygon class="st12" points="337.4,97.6 342.8,97.6 349.6,103.1 357.6,97.6 408.1,97.6 408.1,104 408.1,104.8 337.4,104.8 		"/>
		<polygon class="st17" points="408.1,123.3 357.6,123.3 349.6,117.8 342.8,123.3 337.4,123.3 337.4,116.2 408.1,116.2 408.1,116.9 
					"/>
		<polygon class="st3" points="333.3,116.2 333.3,104.8 333.3,96.4 337.4,96.4 337.4,97.6 337.4,104.8 337.4,116.2 337.4,123.3 
			337.4,124.5 333.3,124.5 		"/>
	</g>
</g>
<g>
	<path class="st2" d="M290.2,47.5H151.4c-3,0-5.3,2.4-5.3,5.3v8.1v109.7c0,3,2.4,5.3,5.3,5.3h138.8c3,0,5.3-2.4,5.3-5.3V61v-8.1
		C295.5,49.9,293.1,47.5,290.2,47.5z"/>
	<g>
		<path class="st0" d="M290.4,163.6c0,3-2.4,5.3-5.3,5.3H146.2c-3,0-5.3-2.4-5.3-5.3V53.9h149.5V163.6z"/>
		<path class="st3" d="M285,40.4H146.2c-3,0-5.3,2.4-5.3,5.3v8.1h149.5v-8.1C290.4,42.8,288,40.4,285,40.4z"/>
		<path class="st0" d="M163.2,50.1L163.2,50.1c-1.4,0-2.5-1.1-2.5-2.5l0,0c0-1.4,1.1-2.5,2.5-2.5l0,0c1.4,0,2.5,1.1,2.5,2.5l0,0
			C165.7,49,164.6,50.1,163.2,50.1z"/>
		<path class="st0" d="M155.3,50.1L155.3,50.1c-1.4,0-2.5-1.1-2.5-2.5l0,0c0-1.4,1.1-2.5,2.5-2.5l0,0c1.4,0,2.5,1.1,2.5,2.5l0,0
			C157.8,49,156.7,50.1,155.3,50.1z"/>
		<path class="st0" d="M147,50.1L147,50.1c-1.4,0-2.5-1.1-2.5-2.5l0,0c0-1.4,1.1-2.5,2.5-2.5l0,0c1.4,0,2.5,1.1,2.5,2.5l0,0
			C149.4,49,148.3,50.1,147,50.1z"/>
		<g>
			<rect x="147" y="69.7" class="st6" width="83.6" height="4.1"/>
			<rect x="147" y="82.5" class="st6" width="83.6" height="4.1"/>
			<rect x="147" y="95.5" class="st6" width="83.6" height="4.1"/>
			<rect x="147" y="109.7" class="st6" width="83.6" height="4.1"/>
			<rect x="147" y="121.8" class="st6" width="83.6" height="4.1"/>
			<rect x="147" y="134.8" class="st6" width="83.6" height="4.1"/>
			<rect x="147" y="149.1" class="st6" width="83.6" height="4.1"/>
		</g>
		<g>
			<rect x="242.7" y="136.7" class="st13" width="37.7" height="4.1"/>
			<rect x="242.7" y="149.5" class="st13" width="37.7" height="4.1"/>
		</g>
		<g>
			<rect x="241.2" y="69.3" class="st3" width="40.8" height="58.1"/>
			<polygon class="st0" points="241.2,69.2 241.6,69.2 261.6,97.6 281.6,69.2 282,69.2 282,69.9 262.1,98.3 282,126.7 282,127.4 
				281.6,127.4 261.6,99 241.6,127.4 241.2,127.4 241.2,126.7 261.1,98.3 241.2,69.9 			"/>
		</g>
	</g>
</g>
<text transform="matrix(1 0 0 1 484.7144 123.3)" class="st18"><tspan x="0" y="0" class="st3 st19 st20">WEB DESIGN</tspan><tspan x="175.9" y="0" class="st0 st19 st21"> </tspan></text>
<text transform="matrix(0.8949 0 0 1 459.5934 145.4585)" class="st3 st19 st22">We offer many options to match any budget. </text>
<text transform="matrix(0.8949 0 0 1 426.5079 164.4639)" class="st3 st19 st22">Every site is built on a CMS to allow for easy updates..</text>
<text transform="matrix(0.8949 0 0 1 706.7643 165.9503)" class="st0 st19 st23"> </text>
</svg>
