<?xml version="1.0" encoding="utf-8"?>
<!-- Generator: Adobe Illustrator 19.2.0, SVG Export Plug-In . SVG Version: 6.00 Build 0)  -->
<svg version="1.1" id="Layer_1" xmlns="http://www.w3.org/2000/svg" xmlns:xlink="http://www.w3.org/1999/xlink" x="0px" y="0px"
	 viewBox="0 0 800 266.7" style="enable-background:new 0 0 800 266.7;" xml:space="preserve">
<style type="text/css">
	.st0{opacity:0.75;}
	.st1{opacity:0.75;fill:#2F566C;enable-background:new    ;}
	.st2{fill:#FFFFFF;}
	.st3{fill:#78CEDC;}
	.st4{fill:#9CD7E6;}
	.st5{fill:#2F566C;}
	.st6{fill:#2F475F;}
	.st7{fill:#234050;}
	.st8{fill:none;}
	.st9{fill:#D1ECF4;}
	.st10{fill:#F7F7F7;}
	.st11{opacity:0.35;fill:#FFFFFF;enable-background:new    ;}
	.st12{fill:#F2F2F2;}
	.st13{fill:#1CB2B8;}
	.st14{fill:#4AC1C7;}
	.st15{fill:#808080;}
	.st16{fill:#ACB5BF;}
	.st17{fill:#999999;}
	.st18{font-family:'GillSansMT';}
	.st19{font-size:30px;}
	.st20{enable-background:new    ;}
	.st21{font-size:15.0433px;}
</style>
<g class="st0">
	<rect x="313.6" y="57.6" class="st1" width="69.1" height="2.8"/>
	<rect x="313.6" y="66.2" class="st1" width="69.1" height="2.8"/>
	<rect x="313.6" y="74.9" class="st1" width="69.1" height="2.8"/>
	<rect x="313.6" y="84.4" class="st1" width="69.1" height="2.8"/>
	<rect x="313.6" y="92.5" class="st1" width="69.1" height="2.8"/>
	<rect x="313.6" y="101.3" class="st1" width="69.1" height="2.8"/>
	<rect x="313.6" y="110.8" class="st1" width="69.1" height="2.8"/>
</g>
<path class="st2" d="M269.4,187.5h47.8c0.1,6.8,5.6,12.3,12.5,12.3c0.1,0,0.1,0,0.2,0c6.8-0.1,12.3-5.6,12.3-12.5l-0.1-106.6h-72.8
	L269.4,187.5z"/>
<path class="st2" d="M356.9,66c-8.1,0-14.8,6.6-14.9,14.7h-57h-15.7c0.1-8.1,6.7-14.7,14.9-14.7c0.3,0,0.6,0.1,0.8,0.1V66H356.9z"/>
<polygon class="st2" points="301.5,57.6 301.5,52.8 306.3,52.8 306.3,51.7 301.5,51.7 301.5,47 300.4,47 300.4,51.7 295.6,51.7 
	295.6,52.8 300.4,52.8 300.4,57.6 "/>
<polygon class="st2" points="387.2,194.5 390.5,191.2 393.9,194.5 394.7,193.8 391.3,190.4 394.7,187 393.9,186.2 390.5,189.6 
	387.2,186.2 386.4,187 389.8,190.4 386.4,193.8 "/>
<g>
	<rect x="284.7" y="94.1" class="st3" width="43.1" height="2.6"/>
	<rect x="284.7" y="102.3" class="st3" width="43.1" height="2.6"/>
	<rect x="284.7" y="110.6" class="st3" width="43.1" height="2.6"/>
	<rect x="284.7" y="119.6" class="st3" width="43.1" height="2.6"/>
	<rect x="284.7" y="127.4" class="st3" width="43.1" height="2.6"/>
	<rect x="284.7" y="135.7" class="st3" width="43.1" height="2.6"/>
</g>
<g>
	<path class="st3" d="M280.3,149.3c-1,0-2-0.8-2-2.1V119c0-0.6-0.3-1.1-0.8-1.1v-0.8c0.5,0,0.8-0.5,0.8-1.1V85.5c0-1.3,1-2.1,2-2.1
		h1v0.9h-1c-0.6,0-1,0.5-1,1.3v30.6c0,0.7-0.2,1.2-0.7,1.4c0.5,0.2,0.7,0.7,0.7,1.4v28.2c0,0.7,0.5,1.3,1,1.3h1v0.9L280.3,149.3
		L280.3,149.3z"/>
	<path class="st3" d="M331.3,148.4h1c0.6,0,1-0.5,1-1.3v-28.2c0-0.7,0.2-1.2,0.7-1.4c-0.5-0.2-0.7-0.7-0.7-1.4V85.5
		c0-0.7-0.5-1.3-1-1.3h-1v-0.9h1c1,0,2,0.8,2,2.1v30.5c0,0.6,0.3,1.1,0.8,1.1v0.8c-0.5,0-0.8,0.5-0.8,1.1v28.2c0,1.3-1,2.1-2,2.1h-1
		V148.4z"/>
</g>
<g class="st0">
	<rect x="225" y="170.6" class="st1" width="15.6" height="2.8"/>
	<rect x="198.1" y="180.1" class="st1" width="42.5" height="2.8"/>
	<rect x="198.1" y="188.6" class="st1" width="42.5" height="2.8"/>
	<rect x="198.1" y="197.3" class="st1" width="42.5" height="2.8"/>
	<rect x="198.1" y="206.9" class="st1" width="42.5" height="2.8"/>
	<rect x="198.1" y="215" class="st1" width="42.5" height="2.8"/>
	<rect x="198.1" y="223.7" class="st1" width="42.5" height="2.8"/>
	<rect x="198.1" y="233.2" class="st1" width="42.5" height="2.8"/>
</g>
<g class="st0">
	<rect x="81.7" y="60.5" class="st1" width="45.8" height="2.8"/>
	<rect x="81.7" y="70" class="st1" width="62.3" height="2.8"/>
	<rect x="81.7" y="78.6" class="st1" width="62.3" height="2.8"/>
	<rect x="81.7" y="87.3" class="st1" width="62.3" height="2.8"/>
	<rect x="81.7" y="96.8" class="st1" width="62.3" height="2.8"/>
	<rect x="81.7" y="104.9" class="st1" width="62.3" height="2.8"/>
	<rect x="81.7" y="113.6" class="st1" width="62.3" height="2.8"/>
	<rect x="81.7" y="123.1" class="st1" width="62.3" height="2.8"/>
</g>
<path class="st4" d="M230.5,119.9h57c0.1-8.1,6.7-14.7,14.9-14.7c0.1,0,0.2,0,0.3,0c8.1,0.1,14.6,6.7,14.6,14.9v20.4h-86.8
	L230.5,119.9L230.5,119.9z"/>
<path class="st4" d="M329.7,199.8c-6.8,0-12.4-5.5-12.5-12.3h-47.8h-13.2c0.1,6.8,5.6,12.3,12.5,12.3c0.2,0,0.5-0.1,0.7-0.1v0.1
	H329.7z"/>
<rect x="256.1" y="135.6" class="st4" width="61.1" height="51.9"/>
<g>
	<path class="st5" d="M274.3,154.9c0-7,5.7-12.7,12.7-12.7v-1.9c-0.3,0-0.5,0-0.8,0l-0.9-3.6l-5.2,1.3l0.9,3.5
		c-0.8,0.4-1.6,0.8-2.3,1.3l-2.5-2.5l-3.8,3.8l2.5,2.5c-0.5,0.7-0.9,1.5-1.3,2.3l-3.5-0.9l-1.3,5.2l3.6,0.9c0,0.6,0,1.2,0,1.9
		l-3.5,1.1l1.5,5.1l3.3-1c0.3,0.7,0.7,1.4,1.2,2l-2.4,2.4l3.8,3.8l2.4-2.4c0.7,0.4,1.3,0.8,2,1.2l-1,3.3l5.1,1.5l1.1-3.5
		c0.4,0,0.7,0,1.1,0v-1.9C280,167.6,274.3,161.9,274.3,154.9z"/>
	<path class="st5" d="M303.9,161.8l1.3-5.2l-3.6-0.9c0-0.6,0-1.2,0-1.9l3.5-1.1l-1.5-5.1l-3.3,1c-0.3-0.7-0.7-1.4-1.2-2l2.4-2.4
		l-3.8-3.8l-2.4,2.4c-0.7-0.5-1.3-0.8-2-1.2l1-3.3l-5.1-1.5l-1.1,3.5c-0.4,0-0.7,0-1.1,0v1.9l0,0c7,0,12.7,5.7,12.7,12.7
		s-5.7,12.7-12.7,12.7l0,0v1.9c0.3,0,0.5,0,0.8,0l0.9,3.6l5.2-1.3l-0.9-3.5c0.8-0.4,1.6-0.8,2.3-1.3l2.5,2.5l3.8-3.8l-2.5-2.5
		c0.5-0.7,0.9-1.5,1.3-2.3L303.9,161.8z"/>
	<path class="st6" d="M294.5,154.9c0,0.5,0,1-0.1,1.4C294.4,155.8,294.5,155.4,294.5,154.9z"/>
	<path class="st6" d="M287,147.4L287,147.4c0.5,0,1,0,1.4,0.1C287.9,147.5,287.5,147.4,287,147.4z"/>
	<path class="st6" d="M279.5,155v-0.1V155z"/>
	<path class="st7" d="M291.1,161.1c0.4-0.3,0.8-0.6,1.2-1c1.1-1.1,1.8-2.4,2.1-3.9c0.1-0.5,0.1-1,0.1-1.4c0-0.5,0-1-0.1-1.4
		c-0.3-1.4-1-2.8-2.1-3.9c-0.4-0.4-0.8-0.7-1.2-1c-0.8-0.5-1.7-0.9-2.7-1.1c-0.5-0.1-0.9-0.1-1.4-0.1c-1.9,0-3.8,0.7-5.3,2.2
		s-2.2,3.4-2.2,5.3v0.1c0,1.9,0.7,3.7,2.2,5.2c0.3,0.3,0.6,0.5,1,0.8C285.2,162.8,288.5,162.8,291.1,161.1z M283.2,151.1
		c2.1-2.1,5.5-2.1,7.6,0s2.1,5.5,0,7.6s-5.5,2.1-7.6,0S281.1,153.2,283.2,151.1z"/>
	<path class="st7" d="M274.3,154.9c0,7,5.7,12.7,12.7,12.7v-5.2c-1.5,0-3-0.5-4.3-1.4c-0.3-0.2-0.7-0.5-1-0.8
		c-1.4-1.4-2.1-3.3-2.2-5.2v-0.1c0-1.9,0.7-3.8,2.2-5.3s3.4-2.2,5.3-2.2l0,0v-5.2C280,142.2,274.3,147.9,274.3,154.9z"/>
	<path class="st6" d="M287,147.4c-1.9,0-3.8,0.7-5.3,2.2s-2.2,3.4-2.2,5.3c0-1.9,0.7-3.8,2.2-5.3S285.1,147.4,287,147.4z"/>
	<path class="st6" d="M279.5,155c0,1.9,0.7,3.7,2.2,5.2c0.3,0.3,0.6,0.5,1,0.8c-0.3-0.2-0.7-0.5-1-0.8
		C280.3,158.8,279.5,156.9,279.5,155z"/>
	<path class="st5" d="M288.4,147.5c0.9,0.2,1.9,0.5,2.7,1.1c0.4,0.3,0.8,0.6,1.2,1c1.1,1.1,1.8,2.4,2.1,3.9c0.1,0.5,0.1,1,0.1,1.4
		c0,0.5,0,1-0.1,1.4c-0.3,1.4-1,2.8-2.1,3.9c-0.4,0.4-0.8,0.7-1.2,1c-1.2,0.8-2.7,1.2-4.1,1.2v5.2l0,0c7,0,12.7-5.7,12.7-12.7
		s-5.7-12.7-12.7-12.7l0,0v5.2C287.5,147.4,287.9,147.5,288.4,147.5z"/>
	<path class="st6" d="M288.4,147.5c0.9,0.2,1.9,0.5,2.7,1.1C290.3,148.1,289.4,147.7,288.4,147.5z"/>
	<path class="st6" d="M294.3,153.5c-0.3-1.4-1-2.8-2.1-3.9c-0.4-0.4-0.8-0.7-1.2-1c0.4,0.3,0.8,0.6,1.2,1
		C293.4,150.7,294,152,294.3,153.5z"/>
	<path class="st6" d="M294.3,153.5c0.1,0.5,0.1,1,0.1,1.4C294.5,154.4,294.4,153.9,294.3,153.5z"/>
</g>
<polygon class="st2" points="243.9,191.6 247.3,188.2 250.7,191.6 251.5,190.8 248.1,187.4 251.5,184 250.7,183.2 247.3,186.6 
	243.9,183.2 243.2,184 246.6,187.4 243.2,190.8 "/>
<path class="st2" d="M214.8,154.9h47.8c0.1,6.8,5.6,12.3,12.5,12.3c0.1,0,0.1,0,0.2,0c6.8-0.1,12.3-5.6,12.3-12.5l-0.1-34.8h-72.8
	L214.8,154.9z"/>
<path class="st2" d="M302.3,105.2c-8.1,0-14.8,6.6-14.9,14.7h-57h-15.7c0.1-8.1,6.7-14.7,14.9-14.7c0.3,0,0.6,0.1,0.8,0.1v-0.1
	H302.3z"/>
<g>
	<rect x="226.9" y="121" class="st3" width="22.5" height="2.1"/>
	<rect x="226.9" y="128.4" class="st3" width="53.7" height="2.1"/>
	<rect x="226.9" y="135.1" class="st3" width="53.7" height="2.1"/>
	<rect x="226.9" y="141.8" class="st3" width="53.7" height="2.1"/>
	<rect x="226.9" y="149.2" class="st3" width="53.7" height="2.1"/>
	<rect x="226.9" y="155.5" class="st3" width="53.7" height="2.1"/>
</g>
<g>
	<path class="st8" d="M222.5,64.2c-4.1-4.1-9.6-6.2-15-6.2v42.4c5.4,0,10.8-2.1,15-6.2C230.8,85.9,230.8,72.5,222.5,64.2z"/>
	<path class="st4" d="M248.9,71.1l8.3-2.2l-1.4-5.2l-8.3,2.2c-1.7-5.2-4.5-10.1-8.3-14.5l6.1-6.1l-3.8-3.8l-6.1,6.1
		c-4.3-3.8-9.3-6.6-14.5-8.3l2.2-8.3l-5.2-1.4l-2.2,8.3c-2.7-0.5-5.4-0.8-8.1-0.8V51c7.2,0,14.4,2.8,19.9,8.3c11,11,11,28.9,0,39.9
		c-5.5,5.5-12.7,8.3-19.9,8.3v13.9c2.7,0,5.4-0.3,8-0.8l2.2,8.3l5.2-1.4l-2.2-8.3c5.2-1.7,10.2-4.5,14.5-8.3l6.1,6.1l0.1-0.1
		l3.8-3.8l0.1-0.1l-6.1-6.1c3.8-4.4,6.6-9.3,8.3-14.5l8.3,2.2l1.4-5.2l-8.3-2.2C250,81.9,250,76.4,248.9,71.1z"/>
	<path class="st4" d="M222.5,64.2c8.3,8.3,8.3,21.7,0,30c-4.1,4.1-9.6,6.2-15,6.2v7c7.2,0,14.4-2.8,19.9-8.3c11-11,11-28.9,0-39.9
		c-5.5-5.5-12.7-8.3-19.9-8.3v7C213,58,218.4,60,222.5,64.2z"/>
	<path class="st9" d="M187.6,99.1c-11-11-11-28.9,0-39.9c5.5-5.5,12.7-8.3,19.9-8.3V37c-2.7,0-5.4,0.3-8,0.8l-2.2-8.3l-5.2,1.4
		l2.2,8.3c-5.2,1.7-10.2,4.5-14.5,8.3l-6.1-6.1l-0.1,0.1l-3.8,3.8l-0.1,0.1l6.1,6.1c-3.8,4.4-6.6,9.3-8.3,14.5l-8.3-2.2l-1.4,5.2
		l8.3,2.2c-1,5.3-1,10.8,0,16.1l-8.3,2.2l1.4,5.2l8.3-2.2c1.7,5.2,4.5,10.1,8.3,14.5l-6.1,6.1l3.8,3.8l6.1-6.1
		c4.3,3.8,9.3,6.6,14.5,8.3l-2.2,8.3l5.2,1.4l2.2-8.3c2.7,0.5,5.4,0.8,8.1,0.8v-13.9C200.3,107.4,193.1,104.6,187.6,99.1z"/>
	<path class="st4" d="M187.6,59.2c-11,11-11,28.9,0,39.9c5.5,5.5,12.7,8.3,19.9,8.3v-7c-5.4,0-10.8-2.1-15-6.2
		c-8.3-8.3-8.3-21.7,0-30c4.1-4.1,9.6-6.2,15-6.2v-7C200.3,50.9,193.1,53.7,187.6,59.2z"/>
</g>
<path class="st4" d="M275.1,167.2c-6.8,0-12.4-5.5-12.5-12.3h-47.8h-13.2c0.1,6.8,5.6,12.3,12.5,12.3c0.2,0,0.5-0.1,0.7-0.1v0.1
	H275.1z"/>
<path class="st4" d="M201.6,100.6h31.5c0.1-8.1,6.7-14.7,14.9-14.7c0.1,0,0.2,0,0.3,0c8.1,0.1,14.6,6.7,14.6,14.9v54.1h-61.2
	L201.6,100.6L201.6,100.6z"/>
<path class="st2" d="M179.6,161.8h31.5c0.1,6,4.9,10.8,10.9,10.8c0.1,0,0.1,0,0.2,0c6-0.1,10.8-5,10.8-10.9v-61.6h-53.4V161.8z"/>
<path class="st10" d="M190.2,171.4h3.1V76.6l0,0c0.2-5.2,4.1-9.5,9.1-10.3c-0.5-0.1-1-0.2-1.5-0.2l0,0c-5.8,0.1-10.5,4.7-10.7,10.5
	l0,0L190.2,171.4L190.2,171.4z"/>
<path class="st2" d="M247.9,85.9c-8.1,0-14.7,6.6-14.9,14.7h-57h-15.7c0.1-8.1,6.7-14.7,14.9-14.7c0.3,0,0.6,0.1,0.8,0.1v-0.1H247.9
	z"/>
<g>
	<rect x="197.3" y="113.7" class="st3" width="22.5" height="2.1"/>
	<rect x="166.2" y="121.1" class="st3" width="53.7" height="2.1"/>
	<rect x="166.2" y="127.7" class="st3" width="53.7" height="2.1"/>
	<rect x="166.2" y="134.5" class="st3" width="53.7" height="2.1"/>
	<rect x="166.2" y="141.9" class="st3" width="53.7" height="2.1"/>
	<rect x="166.2" y="148.2" class="st3" width="53.7" height="2.1"/>
</g>
<path class="st11" d="M147.1,175.7l2-7.7l-5.4-1.4c0.1-0.9,0-1.9,0-2.8l5.3-1.6l-2.3-7.6l-5,1.5c-0.5-1.1-1.1-2.1-1.7-3.1l3.6-3.6
	l-5.6-5.6l-3.6,3.6c-1-0.7-2-1.2-3.1-1.7l1.5-5l-7.6-2.3l-1.6,5.3c-0.9-0.1-1.9-0.1-2.8,0l-1.4-5.4l-7.7,2l1.4,5.3
	c-1.2,0.5-2.4,1.2-3.5,1.9l-3.7-3.7l-5.6,5.6l3.7,3.7c-0.8,1.1-1.4,2.3-1.9,3.5l-5.3-1.4l-2,7.7l5.4,1.4c0,0.9,0,1.9,0,2.8l-5.3,1.6
	l2.3,7.6l5-1.5c0.5,1.1,1.1,2.1,1.7,3.1l-3.6,3.6l5.6,5.6l3.6-3.6c1,0.7,2,1.3,3.1,1.7l-1.5,5l7.6,2.3l1.6-5.3
	c0.9,0.1,1.9,0.1,2.8,0l1.4,5.4l7.7-2l-1.4-5.3c1.2-0.5,2.4-1.2,3.5-1.9l3.7,3.7l5.6-5.6l-3.7-3.7c0.8-1.1,1.4-2.3,1.9-3.5
	L147.1,175.7z M116.2,171.1c-3.1-3.1-3.1-8.2,0-11.4c3.1-3.1,8.2-3.1,11.4,0c3.1,3.1,3.1,8.2,0,11.4
	C124.4,174.2,119.3,174.2,116.2,171.1z"/>
<path class="st2" d="M121.9,214h44.9c0.1,6.4,5.3,11.5,11.7,11.5c0.1,0,0.1,0,0.2,0c6.4-0.1,11.5-5.3,11.5-11.7l-0.1-38.4h-68.3
	L121.9,214z"/>
<path class="st12" d="M222.5,172.6c-6,0-10.8-4.8-10.9-10.8h-54.1H146c0.1,6,4.9,10.8,10.9,10.8c0.2,0,0.4-0.1,0.6-0.1v0.1H222.5z"
	/>
<path class="st4" d="M146,77.1h43.8c0.1-6,4.9-10.8,10.9-10.8c0.1,0,0.1,0,0.2,0c6,0.1,10.8,5,10.8,10.9v84.6H146V77.1z"/>
<path class="st2" d="M201.1,66.3c-6,0-10.9,4.8-10.9,10.8h-56.8h-11.6c0.1-6,4.9-10.8,10.9-10.8c0.2,0,0.4,0.1,0.6,0.1v-0.1H201.1z"
	/>
<rect x="121.8" y="76.8" class="st2" width="68.4" height="135.4"/>
<g>
	<rect x="133.8" y="89.9" class="st3" width="43.1" height="2.6"/>
	<rect x="133.8" y="98.1" class="st3" width="43.1" height="2.6"/>
	<rect x="133.8" y="106.4" class="st3" width="43.1" height="2.6"/>
	<rect x="133.8" y="115.4" class="st3" width="43.1" height="2.6"/>
	<rect x="133.8" y="123.1" class="st3" width="43.1" height="2.6"/>
	<rect x="133.8" y="131.4" class="st3" width="43.1" height="2.6"/>
	<rect x="133.8" y="140.5" class="st3" width="43.1" height="2.6"/>
</g>
<g>
	<path class="st3" d="M129.4,151.9c-1,0-2-0.8-2-2.1v-28.2c0-0.6-0.3-1.1-0.8-1.1v-0.8c0.5,0,0.8-0.5,0.8-1.1V88.1
		c0-1.3,1-2.1,2-2.1h1v0.9h-1c-0.6,0-1,0.5-1,1.3v30.6c0,0.7-0.2,1.2-0.7,1.4c0.5,0.2,0.7,0.7,0.7,1.4v28.2c0,0.7,0.5,1.3,1,1.3h1
		v0.9L129.4,151.9L129.4,151.9z"/>
	<path class="st3" d="M180.3,151.1h1c0.6,0,1-0.5,1-1.3v-28.2c0-0.7,0.2-1.2,0.7-1.4c-0.5-0.2-0.7-0.7-0.7-1.4V88.2
		c0-0.7-0.5-1.3-1-1.3h-1V86h1c1,0,2,0.8,2,2.1v30.5c0,0.6,0.3,1.1,0.8,1.1v0.8c-0.5,0-0.8,0.5-0.8,1.1v28.2c0,1.3-1,2.1-2,2.1h-1
		V151.1z"/>
</g>
<g>
	<path class="st13" d="M330.5,164.6c-5.4,0-10.9,2.1-15,6.2c-8.3,8.3-8.3,21.8,0,30.1c4.2,4.2,9.6,6.2,15,6.2s10.9-2.1,15-6.2
		c8.3-8.3,8.3-21.8,0-30.1C341.4,166.6,335.9,164.6,330.5,164.6z M340.3,195.6c-5.4,5.4-14.2,5.4-19.5,0c-5.4-5.4-5.4-14.2,0-19.6
		s14.1-5.4,19.5,0C345.7,181.4,345.7,190.2,340.3,195.6z"/>
	<path class="st7" d="M320.7,176.1c-5.4,5.4-5.4,14.2,0,19.6s14.1,5.4,19.5,0s5.4-14.2,0-19.6C334.9,170.7,326.1,170.7,320.7,176.1z
		 M337.5,192.8c-3.9,3.9-10.1,3.9-14,0s-3.9-10.1,0-14s10.1-3.9,14,0C341.4,182.7,341.4,189,337.5,192.8z"/>
	<path class="st13" d="M361.7,198.5l2.5-9.5l-6.7-1.7c0.1-1.1,0.1-2.3,0-3.4l6.5-2l-2.9-9.4l-6.2,1.9c-0.6-1.3-1.3-2.6-2.2-3.8
		l4.4-4.4l-7-7l-4.4,4.4c-1.2-0.8-2.5-1.5-3.8-2.2l1.9-6.2l-9.4-2.9l-2,6.5c-0.7,0-1.3,0-2,0v5.7c5.4,0,10.9,2.1,15,6.2
		c8.3,8.3,8.3,21.8,0,30.1c-4.2,4.1-9.6,6.2-15,6.2v5.7c0.5,0,1,0,1.4,0l1.7,6.7l9.5-2.5l-1.7-6.5c1.5-0.7,2.9-1.4,4.3-2.4l4.6,4.6
		l7-7l-4.6-4.6c0.9-1.4,1.7-2.8,2.4-4.3L361.7,198.5z"/>
	<path class="st14" d="M330.5,207.1c-5.4,0-10.9-2.1-15-6.2c-8.3-8.3-8.3-21.8,0-30.1c4.2-4.2,9.6-6.2,15-6.2l0,0v-5.7l0,0
		c-0.5,0-1,0-1.4,0l-1.7-6.7l-9.5,2.5l1.7,6.5c-1.5,0.7-2.9,1.4-4.3,2.4l-4.6-4.6l-7,7l4.6,4.6c-0.9,1.4-1.7,2.8-2.4,4.3l-6.5-1.7
		l-2.5,9.5l6.7,1.7c-0.1,1.1-0.1,2.3,0,3.4l-6.5,2l2.9,9.4l6.2-1.9c0.6,1.3,1.3,2.6,2.2,3.8l-4.4,4.4l7,7l4.4-4.4
		c1.2,0.8,2.5,1.5,3.8,2.2l-1.9,6.2l9.4,2.9l2-6.5c0.7,0,1.3,0,2,0l0,0v-5.8H330.5z"/>
</g>
<g>
	<path class="st15" d="M212.1,212H89.2c-1,0-1.9,0.8-1.9,1.9v8.5c0,1,0.8,1.9,1.9,1.9h122.9c1,0,1.9-0.8,1.9-1.9v-8.5
		C214,212.8,213.1,212,212.1,212z"/>
	<path class="st16" d="M211.5,164.9H89.8c-1.4,0-2.5,1.1-2.5,2.5v55H214v-55C214,166,212.9,164.9,211.5,164.9z"/>
	<rect x="91.3" y="176.5" class="st17" width="8.7" height="8.7"/>
	<rect x="102.2" y="176.5" class="st17" width="8.7" height="8.7"/>
	<rect x="113.4" y="176.5" class="st17" width="8.7" height="8.7"/>
	<rect x="124.3" y="176.5" class="st17" width="8.7" height="8.7"/>
	<rect x="113.4" y="188.5" class="st17" width="8.7" height="8.7"/>
	<rect x="124.3" y="188.5" class="st17" width="8.7" height="8.7"/>
	<rect x="113.5" y="212.2" class="st17" width="8.7" height="8.7"/>
	<rect x="124.3" y="200.5" class="st17" width="8.7" height="8.7"/>
	<rect x="91.3" y="188.5" class="st17" width="19.3" height="8.7"/>
	<rect x="135.3" y="176.5" class="st17" width="8.7" height="8.7"/>
	<rect x="146.2" y="176.5" class="st17" width="8.7" height="8.7"/>
	<rect x="157.4" y="176.5" class="st17" width="8.7" height="8.7"/>
	<rect x="168.3" y="176.5" class="st17" width="8.7" height="8.7"/>
	<rect x="157.4" y="188.5" class="st17" width="8.7" height="8.7"/>
	<rect x="168.3" y="188.5" class="st17" width="8.7" height="8.7"/>
	<rect x="135.3" y="188.5" class="st17" width="8.7" height="8.7"/>
	<rect x="146.2" y="188.5" class="st17" width="8.7" height="8.7"/>
	<rect x="179.3" y="176.5" class="st17" width="8.7" height="8.7"/>
	<rect x="190.6" y="176.5" class="st17" width="8.7" height="8.7"/>
	<rect x="201.5" y="176.5" class="st17" width="8.7" height="8.7"/>
	<rect x="190.6" y="188.5" class="st17" width="8.7" height="8.7"/>
	<rect x="201.5" y="188.5" class="st17" width="8.7" height="8.7"/>
	<rect x="179.3" y="188.5" class="st17" width="8.7" height="8.7"/>
	<rect x="157.5" y="200.5" class="st17" width="8.7" height="8.7"/>
	<rect x="168.4" y="200.5" class="st17" width="8.7" height="8.7"/>
	<rect x="135.4" y="200.5" class="st17" width="8.7" height="8.7"/>
	<rect x="146.3" y="200.5" class="st17" width="8.7" height="8.7"/>
	<rect x="179.4" y="200.5" class="st17" width="8.7" height="8.7"/>
	<rect x="179.6" y="212.2" class="st17" width="8.7" height="8.7"/>
	<rect x="190.5" y="212.2" class="st17" width="8.7" height="8.7"/>
	<rect x="201.6" y="212.2" class="st17" width="8.7" height="8.7"/>
	<rect x="102.2" y="212.2" class="st17" width="8.7" height="8.7"/>
	<rect x="91.4" y="212.2" class="st17" width="8.7" height="8.7"/>
	<rect x="91.3" y="200.5" class="st17" width="30.8" height="8.7"/>
	<rect x="190.6" y="200.5" class="st17" width="19.6" height="8.7"/>
	<rect x="124.3" y="212.2" class="st17" width="52.7" height="8.7"/>
	<rect x="91.3" y="174.9" class="st2" width="8.7" height="8.7"/>
	<rect x="102.2" y="174.9" class="st2" width="8.7" height="8.7"/>
	<rect x="113.4" y="174.9" class="st2" width="8.7" height="8.7"/>
	<rect x="124.3" y="174.9" class="st2" width="8.7" height="8.7"/>
	<rect x="113.4" y="187" class="st2" width="8.7" height="8.7"/>
	<rect x="124.3" y="187" class="st2" width="8.7" height="8.7"/>
	<rect x="113.5" y="210.6" class="st2" width="8.7" height="8.7"/>
	<rect x="124.3" y="198.9" class="st2" width="8.7" height="8.7"/>
	<rect x="91.3" y="187" class="st2" width="19.3" height="8.7"/>
	<rect x="135.3" y="174.9" class="st2" width="8.7" height="8.7"/>
	<rect x="146.2" y="174.9" class="st2" width="8.7" height="8.7"/>
	<rect x="157.4" y="174.9" class="st2" width="8.7" height="8.7"/>
	<rect x="168.3" y="174.9" class="st2" width="8.7" height="8.7"/>
	<rect x="157.4" y="187" class="st2" width="8.7" height="8.7"/>
	<rect x="168.3" y="187" class="st2" width="8.7" height="8.7"/>
	<rect x="135.3" y="187" class="st2" width="8.7" height="8.7"/>
	<rect x="146.2" y="187" class="st2" width="8.7" height="8.7"/>
	<rect x="179.3" y="174.9" class="st2" width="8.7" height="8.7"/>
	<rect x="190.6" y="174.9" class="st2" width="8.7" height="8.7"/>
	<rect x="201.5" y="174.9" class="st2" width="8.7" height="8.7"/>
	<rect x="190.6" y="187" class="st2" width="8.7" height="8.7"/>
	<rect x="201.5" y="187" class="st2" width="8.7" height="8.7"/>
	<rect x="179.3" y="187" class="st2" width="8.7" height="8.7"/>
	<rect x="157.5" y="198.9" class="st2" width="8.7" height="8.7"/>
	<rect x="168.4" y="198.9" class="st2" width="8.7" height="8.7"/>
	<rect x="135.4" y="198.9" class="st2" width="8.7" height="8.7"/>
	<rect x="146.3" y="198.9" class="st2" width="8.7" height="8.7"/>
	<rect x="179.4" y="198.9" class="st2" width="8.7" height="8.7"/>
	<rect x="179.6" y="210.6" class="st2" width="8.7" height="8.7"/>
	<rect x="190.5" y="210.6" class="st2" width="8.7" height="8.7"/>
	<rect x="201.6" y="210.6" class="st2" width="8.7" height="8.7"/>
	<rect x="102.2" y="210.6" class="st2" width="8.7" height="8.7"/>
	<rect x="91.4" y="210.6" class="st2" width="8.7" height="8.7"/>
	<rect x="91.3" y="198.9" class="st2" width="30.8" height="8.7"/>
	<rect x="190.6" y="198.9" class="st2" width="19.6" height="8.7"/>
	<rect x="124.3" y="210.6" class="st2" width="52.7" height="8.7"/>
	<rect x="91.3" y="175.6" class="st10" width="8.7" height="8.7"/>
	<rect x="102.2" y="175.6" class="st10" width="8.7" height="8.7"/>
	<rect x="113.4" y="175.6" class="st10" width="8.7" height="8.7"/>
	<rect x="124.3" y="175.6" class="st10" width="8.7" height="8.7"/>
	<rect x="113.4" y="187.6" class="st10" width="8.7" height="8.7"/>
	<rect x="124.3" y="187.6" class="st10" width="8.7" height="8.7"/>
	<rect x="113.5" y="211.3" class="st10" width="8.7" height="8.7"/>
	<rect x="124.3" y="199.5" class="st10" width="8.7" height="8.7"/>
	<rect x="91.3" y="187.6" class="st10" width="19.3" height="8.7"/>
	<rect x="135.3" y="175.6" class="st10" width="8.7" height="8.7"/>
	<rect x="146.2" y="175.6" class="st10" width="8.7" height="8.7"/>
	<rect x="157.4" y="175.6" class="st10" width="8.7" height="8.7"/>
	<rect x="168.3" y="175.6" class="st10" width="8.7" height="8.7"/>
	<rect x="157.4" y="187.6" class="st10" width="8.7" height="8.7"/>
	<rect x="168.3" y="187.6" class="st10" width="8.7" height="8.7"/>
	<rect x="135.3" y="187.6" class="st10" width="8.7" height="8.7"/>
	<rect x="146.2" y="187.6" class="st10" width="8.7" height="8.7"/>
	<rect x="179.3" y="175.6" class="st10" width="8.7" height="8.7"/>
	<rect x="190.6" y="175.6" class="st10" width="8.7" height="8.7"/>
	<rect x="201.5" y="175.6" class="st10" width="8.7" height="8.7"/>
	<rect x="91.3" y="168.1" class="st17" width="8.7" height="4.2"/>
	<rect x="102.2" y="168.1" class="st17" width="8.7" height="4.2"/>
	<rect x="113.4" y="168.1" class="st17" width="8.7" height="4.2"/>
	<rect x="124.3" y="168.1" class="st17" width="8.7" height="4.2"/>
	<rect x="135.3" y="168.1" class="st17" width="8.7" height="4.2"/>
	<rect x="146.2" y="168.1" class="st17" width="8.7" height="4.2"/>
	<rect x="157.4" y="168.1" class="st17" width="8.7" height="4.2"/>
	<rect x="168.3" y="168.1" class="st17" width="8.7" height="4.2"/>
	<rect x="179.3" y="168.1" class="st17" width="8.7" height="4.2"/>
	<rect x="190.6" y="168.1" class="st17" width="8.7" height="4.2"/>
	<rect x="201.5" y="168.1" class="st17" width="8.7" height="4.2"/>
	<rect x="91.3" y="167.3" class="st2" width="8.7" height="4.2"/>
	<rect x="102.2" y="167.3" class="st2" width="8.7" height="4.2"/>
	<rect x="113.4" y="167.3" class="st2" width="8.7" height="4.2"/>
	<rect x="124.3" y="167.3" class="st2" width="8.7" height="4.2"/>
	<rect x="135.3" y="167.3" class="st2" width="8.7" height="4.2"/>
	<rect x="146.2" y="167.3" class="st2" width="8.7" height="4.2"/>
	<rect x="157.4" y="167.3" class="st2" width="8.7" height="4.2"/>
	<rect x="168.3" y="167.3" class="st2" width="8.7" height="4.2"/>
	<rect x="179.3" y="167.3" class="st2" width="8.7" height="4.2"/>
	<rect x="190.6" y="167.3" class="st2" width="8.7" height="4.2"/>
	<rect x="201.5" y="167.3" class="st2" width="8.7" height="4.2"/>
	<rect x="91.3" y="167.6" class="st10" width="8.7" height="4.2"/>
	<rect x="102.2" y="167.6" class="st10" width="8.7" height="4.2"/>
	<rect x="113.4" y="167.6" class="st10" width="8.7" height="4.2"/>
	<rect x="124.3" y="167.6" class="st10" width="8.7" height="4.2"/>
	<rect x="135.3" y="167.6" class="st10" width="8.7" height="4.2"/>
	<rect x="146.2" y="167.6" class="st10" width="8.7" height="4.2"/>
	<rect x="157.4" y="167.6" class="st10" width="8.7" height="4.2"/>
	<rect x="168.3" y="167.6" class="st10" width="8.7" height="4.2"/>
	<rect x="179.3" y="167.6" class="st10" width="8.7" height="4.2"/>
	<rect x="190.6" y="167.6" class="st10" width="8.7" height="4.2"/>
	<rect x="201.5" y="167.6" class="st10" width="8.7" height="4.2"/>
	<rect x="190.6" y="187.6" class="st10" width="8.7" height="8.7"/>
	<rect x="201.5" y="187.6" class="st10" width="8.7" height="8.7"/>
	<rect x="179.3" y="187.6" class="st10" width="8.7" height="8.7"/>
	<rect x="157.5" y="199.5" class="st10" width="8.7" height="8.7"/>
	<rect x="168.4" y="199.5" class="st10" width="8.7" height="8.7"/>
	<rect x="135.4" y="199.5" class="st10" width="8.7" height="8.7"/>
	<rect x="146.3" y="199.5" class="st10" width="8.7" height="8.7"/>
	<rect x="179.4" y="199.5" class="st10" width="8.7" height="8.7"/>
	<rect x="179.6" y="211.3" class="st10" width="8.7" height="8.7"/>
	<rect x="190.5" y="211.3" class="st10" width="8.7" height="8.7"/>
	<rect x="201.6" y="211.3" class="st10" width="8.7" height="8.7"/>
	<rect x="102.2" y="211.3" class="st10" width="8.7" height="8.7"/>
	<rect x="91.4" y="211.3" class="st10" width="8.7" height="8.7"/>
	<rect x="91.3" y="199.5" class="st10" width="30.8" height="8.7"/>
	<rect x="190.6" y="199.5" class="st10" width="19.6" height="8.7"/>
	<rect x="124.3" y="211.3" class="st10" width="52.7" height="8.7"/>
</g>
<path class="st4" d="M178.5,225.5c-6.4,0-11.6-5.2-11.7-11.5h-44.9h-12.3c0.1,6.4,5.3,11.5,11.7,11.5c0.2,0,0.4-0.1,0.7-0.1v0.1
	H178.5z"/>
<path class="st3" d="M281.4,158.8h1c0.6,0,1-0.5,1-1.3v-11.2c0-0.7,0.2-1.2,0.7-1.4c-0.5-0.2-0.7-0.7-0.7-1.4v-15.3
	c0-0.7-0.5-1.3-1-1.3h-1V126h1c1,0,2,0.8,2,2.1v15.2c0,0.6,0.3,1.1,0.8,1.1v0.8c-0.5,0-0.8,0.5-0.8,1.1v11.1c0,1.3-1,2.1-2,2.1h-1
	V158.8z"/>
<path class="st3" d="M223.3,152.5h0.9c0.5,0,0.9-0.5,0.9-1.1v-19c0-0.6,0.2-1.1,0.7-1.3c-0.5-0.2-0.7-0.7-0.7-1.3V106
	c0-0.7-0.4-1.1-0.9-1.1h-0.9v-0.8h0.9c0.9,0,1.8,0.7,1.8,1.9v23.8c0,0.5,0.2,1,0.7,1v0.7c-0.5,0-0.7,0.5-0.7,1v18.9
	c0,1.2-0.9,1.9-1.8,1.9h-0.9V152.5z"/>
<g>
	<path class="st2" d="M622.6,186.1L621,190"/>
</g>
<text transform="matrix(1 0 0 1 476.2295 92.5001)" class="st2 st18 st19">SERVICES</text>
<text transform="matrix(0.8949 0 0 1 374.2295 115.7668)" class="st20"><tspan x="0" y="0" class="st2 st18 st21">There is alot of information to be learned from consulting &amp; </tspan><tspan x="0" y="18.1" class="st2 st18 st21">uncovering the story and explanations behind the data.</tspan></text>
</svg>
